SplineFontDB: 3.2
FontName: FdSymbolB-Book
FullName: FdSymbolB-Book
FamilyName: FdSymbolB
Weight: Book
Copyright: Copyright (c) 2011-2025, Michael Ummels. This Font Software is licensed under the SIL Open Font License, Version 1.1.
Version: 1.010
ItalicAngle: 0
UnderlinePosition: -100
UnderlineWidth: 50
Ascent: 800
Descent: 200
InvalidEm: 0
LayerCount: 2
Layer: 0 0 "Back" 1
Layer: 1 0 "Fore" 0
OS2Version: 0
OS2_WeightWidthSlopeOnly: 0
OS2_UseTypoMetrics: 0
CreationTime: 1739799030
ModificationTime: 1739799030
OS2TypoAscent: 0
OS2TypoAOffset: 1
OS2TypoDescent: 0
OS2TypoDOffset: 1
OS2TypoLinegap: 0
OS2WinAscent: 0
OS2WinAOffset: 1
OS2WinDescent: 0
OS2WinDOffset: 1
HheadAscent: 0
HheadAOffset: 1
HheadDescent: 0
HheadDOffset: 1
OS2Vendor: 'PfEd'
DEI: 91125
Encoding: Custom
UnicodeInterp: none
NameList: AGL For New Fonts
DisplaySize: -48
AntiAlias: 1
FitToEm: 0
BeginPrivate: 2
BlueValues 31 [-10 0 546 556 707 717 754 764]
OtherBlues 11 [-230 -220]
EndPrivate
BeginChars: 256 236

StartChar: equal
Encoding: 0 61 0
Width: 660
Flags: HW
HStem: 178 64<90 570> 358 64<90 570>
LayerCount: 2
Fore
SplineSet
90 358 m 1
 90 422 l 1
 570 422 l 1
 570 358 l 1
 90 358 l 1
90 178 m 1
 90 242 l 1
 570 242 l 1
 570 178 l 1
 90 178 l 1
EndSplineSet
EndChar

StartChar: uni2261
Encoding: 1 8801 1
Width: 660
Flags: HW
HStem: 88 64<90 570> 268 64<90 570> 448 64<90 570>
CounterMasks: 1 e0
LayerCount: 2
Fore
SplineSet
90 448 m 1
 90 512 l 1
 570 512 l 1
 570 448 l 1
 90 448 l 1
90 268 m 1
 90 332 l 1
 570 332 l 1
 570 268 l 1
 90 268 l 1
90 88 m 1
 90 152 l 1
 570 152 l 1
 570 88 l 1
 90 88 l 1
EndSplineSet
EndChar

StartChar: similar
Encoding: 2 8764 2
Width: 660
Flags: HW
HStem: 223 64<375.771 497.661> 313 64<162.339 284.229>
LayerCount: 2
Fore
SplineSet
439 223 m 0
 337 223 297 313 221 313 c 0
 183 313 154 287 126 261 c 1
 90 300 l 1
 128 336 168 377 221 377 c 0
 323 377 363 287 439 287 c 0
 477 287 506 313 534 339 c 1
 570 300 l 1
 532 264 492 223 439 223 c 0
EndSplineSet
EndChar

StartChar: uni223D
Encoding: 3 8765 3
Width: 660
Flags: HW
HStem: 223 64<162.339 284.229> 313 64<375.771 497.661>
LayerCount: 2
Fore
SplineSet
221 287 m 0
 297 287 337 377 439 377 c 0
 492 377 532 336 570 300 c 1
 534 261 l 1
 506 287 477 313 439 313 c 0
 363 313 323 223 221 223 c 0
 168 223 128 264 90 300 c 1
 126 339 l 1
 154 313 183 287 221 287 c 0
EndSplineSet
EndChar

StartChar: approxequal
Encoding: 4 8776 4
Width: 660
Flags: HW
HStem: 133 64<375.771 497.661> 223 64<162.339 284.229> 313 64<375.771 497.661> 403 64<162.339 284.229>
LayerCount: 2
Fore
SplineSet
439 313 m 0
 337 313 297 403 221 403 c 0
 183 403 154 377 126 351 c 1
 90 390 l 1
 128 426 168 467 221 467 c 0
 323 467 363 377 439 377 c 0
 477 377 506 403 534 429 c 1
 570 390 l 1
 532 354 492 313 439 313 c 0
439 133 m 0
 337 133 297 223 221 223 c 0
 183 223 154 197 126 171 c 1
 90 210 l 1
 128 246 168 287 221 287 c 0
 323 287 363 197 439 197 c 0
 477 197 506 223 534 249 c 1
 570 210 l 1
 532 174 492 133 439 133 c 0
EndSplineSet
EndChar

StartChar: uni224B
Encoding: 5 8779 5
Width: 660
Flags: HW
HStem: 43 64<375.771 497.661> 133 64<162.339 284.229> 223 64<375.771 497.661> 313 64<162.339 284.229> 403 64<375.771 497.661> 493 64<162.339 284.229>
LayerCount: 2
Fore
SplineSet
439 403 m 0
 337 403 297 493 221 493 c 0
 183 493 154 467 126 441 c 1
 90 480 l 1
 128 516 168 557 221 557 c 0
 323 557 363 467 439 467 c 0
 477 467 506 493 534 519 c 1
 570 480 l 1
 532 444 492 403 439 403 c 0
439 223 m 0
 337 223 297 313 221 313 c 0
 183 313 154 287 126 261 c 1
 90 300 l 1
 128 336 168 377 221 377 c 0
 323 377 363 287 439 287 c 0
 477 287 506 313 534 339 c 1
 570 300 l 1
 532 264 492 223 439 223 c 0
439 43 m 0
 337 43 297 133 221 133 c 0
 183 133 154 107 126 81 c 1
 90 120 l 1
 128 156 168 197 221 197 c 0
 323 197 363 107 439 107 c 0
 477 107 506 133 534 159 c 1
 570 120 l 1
 532 84 492 43 439 43 c 0
EndSplineSet
EndChar

StartChar: uni2243
Encoding: 6 8771 6
Width: 660
Flags: HW
HStem: 178 64<90 570> 313 64<375.771 497.661> 403 64<162.339 284.229>
LayerCount: 2
Fore
SplineSet
439 313 m 0
 337 313 297 403 221 403 c 0
 183 403 154 377 126 351 c 1
 90 390 l 1
 128 426 168 467 221 467 c 0
 323 467 363 377 439 377 c 0
 477 377 506 403 534 429 c 1
 570 390 l 1
 532 354 492 313 439 313 c 0
90 178 m 1
 90 242 l 1
 570 242 l 1
 570 178 l 1
 90 178 l 1
EndSplineSet
EndChar

StartChar: uni22CD
Encoding: 7 8909 7
Width: 660
Flags: HW
HStem: 178 64<90 570> 313 64<162.339 284.229> 403 64<375.771 497.661>
LayerCount: 2
Fore
SplineSet
221 377 m 0
 297 377 337 467 439 467 c 0
 492 467 532 426 570 390 c 1
 534 351 l 1
 506 377 477 403 439 403 c 0
 363 403 323 313 221 313 c 0
 168 313 128 354 90 390 c 1
 126 429 l 1
 154 403 183 377 221 377 c 0
570 242 m 1
 570 178 l 1
 90 178 l 1
 90 242 l 1
 570 242 l 1
EndSplineSet
EndChar

StartChar: uni2242
Encoding: 8 8770 8
Width: 660
Flags: HW
HStem: 133 64<375.771 497.661> 223 64<162.339 284.229> 358 64<90 570>
LayerCount: 2
Fore
SplineSet
90 358 m 1
 90 422 l 1
 570 422 l 1
 570 358 l 1
 90 358 l 1
439 133 m 0
 337 133 297 223 221 223 c 0
 183 223 154 197 126 171 c 1
 90 210 l 1
 128 246 168 287 221 287 c 0
 323 287 363 197 439 197 c 0
 477 197 506 223 534 249 c 1
 570 210 l 1
 532 174 492 133 439 133 c 0
EndSplineSet
EndChar

StartChar: congruent
Encoding: 9 8773 9
Width: 660
Flags: HW
HStem: 88 64<90 570> 268 64<90 570> 403 64<375.771 497.661> 493 64<162.339 284.229>
LayerCount: 2
Fore
SplineSet
439 403 m 0
 337 403 297 493 221 493 c 0
 183 493 154 467 126 441 c 1
 90 480 l 1
 128 516 168 557 221 557 c 0
 323 557 363 467 439 467 c 0
 477 467 506 493 534 519 c 1
 570 480 l 1
 532 444 492 403 439 403 c 0
90 268 m 1
 90 332 l 1
 570 332 l 1
 570 268 l 1
 90 268 l 1
90 88 m 1
 90 152 l 1
 570 152 l 1
 570 88 l 1
 90 88 l 1
EndSplineSet
EndChar

StartChar: uni224C
Encoding: 10 8780 10
Width: 660
Flags: HW
HStem: 88 64<90 570> 268 64<90 570> 403 64<162.339 284.229> 493 64<375.771 497.661>
LayerCount: 2
Fore
SplineSet
221 467 m 0
 297 467 337 557 439 557 c 0
 492 557 532 516 570 480 c 1
 534 441 l 1
 506 467 477 493 439 493 c 0
 363 493 323 403 221 403 c 0
 168 403 128 444 90 480 c 1
 126 519 l 1
 154 493 183 467 221 467 c 0
570 332 m 1
 570 268 l 1
 90 268 l 1
 90 332 l 1
 570 332 l 1
570 152 m 1
 570 88 l 1
 90 88 l 1
 90 152 l 1
 570 152 l 1
EndSplineSet
EndChar

StartChar: uni224A
Encoding: 11 8778 11
Width: 660
Flags: HW
HStem: 88 64<90 570> 223 64<375.771 497.661> 313 64<162.339 284.229> 403 64<375.771 497.661> 493 64<162.339 284.229>
LayerCount: 2
Fore
SplineSet
439 403 m 0
 337 403 297 493 221 493 c 0
 183 493 154 467 126 441 c 1
 90 480 l 1
 128 516 168 557 221 557 c 0
 323 557 363 467 439 467 c 0
 477 467 506 493 534 519 c 1
 570 480 l 1
 532 444 492 403 439 403 c 0
439 223 m 0
 337 223 297 313 221 313 c 0
 183 313 154 287 126 261 c 1
 90 300 l 1
 128 336 168 377 221 377 c 0
 323 377 363 287 439 287 c 0
 477 287 506 313 534 339 c 1
 570 300 l 1
 532 264 492 223 439 223 c 0
90 88 m 1
 90 152 l 1
 570 152 l 1
 570 88 l 1
 90 88 l 1
EndSplineSet
EndChar

StartChar: uni224F
Encoding: 12 8783 12
Width: 660
Flags: HW
HStem: 178 64<90 570> 358 64<90 212.887 447.113 570> 454 64<282.537 377.463>
LayerCount: 2
Fore
SplineSet
90 422 m 1
 206 422 l 1
 220 477 270 518 330 518 c 0
 390 518 440 477 454 422 c 1
 570 422 l 1
 570 358 l 1
 394 358 l 1
 394 390 l 2
 394 425 365 454 330 454 c 0
 295 454 266 425 266 390 c 2
 266 358 l 1
 90 358 l 1
 90 422 l 1
90 178 m 1
 90 242 l 1
 570 242 l 1
 570 178 l 1
 90 178 l 1
EndSplineSet
EndChar

StartChar: uni2AAE
Encoding: 13 10926 13
Width: 660
Flags: HW
HStem: 88 64<90 570> 268 64<90 570> 448 64<90 212.887 447.113 570> 544 64<282.537 377.463>
LayerCount: 2
Fore
SplineSet
90 512 m 1
 206 512 l 1
 220 567 270 608 330 608 c 0
 390 608 440 567 454 512 c 1
 570 512 l 1
 570 448 l 1
 394 448 l 1
 394 480 l 2
 394 515 365 544 330 544 c 0
 295 544 266 515 266 480 c 2
 266 448 l 1
 90 448 l 1
 90 512 l 1
90 268 m 1
 90 332 l 1
 570 332 l 1
 570 268 l 1
 90 268 l 1
90 88 m 1
 90 152 l 1
 570 152 l 1
 570 88 l 1
 90 88 l 1
EndSplineSet
EndChar

StartChar: uni224E
Encoding: 14 8782 14
Width: 660
Flags: HW
HStem: 82 64<282.537 377.463> 178 64<90 212.887 447.113 570> 358 64<90 212.887 447.113 570> 454 64<282.537 377.463>
VStem: 90 176<178.297 242 358 421.703> 394 176<178.297 242 358 421.703>
LayerCount: 2
Fore
SplineSet
90 422 m 1
 206 422 l 1
 220 477 270 518 330 518 c 0
 390 518 440 477 454 422 c 1
 570 422 l 1
 570 358 l 1
 394 358 l 1
 394 390 l 2
 394 425 365 454 330 454 c 0
 295 454 266 425 266 390 c 2
 266 358 l 1
 90 358 l 1
 90 422 l 1
90 178 m 1
 90 242 l 1
 266 242 l 1
 266 210 l 2
 266 175 295 146 330 146 c 0
 365 146 394 175 394 210 c 2
 394 242 l 1
 570 242 l 1
 570 178 l 1
 454 178 l 1
 440 123 390 82 330 82 c 0
 270 82 220 123 206 178 c 1
 90 178 l 1
EndSplineSet
EndChar

StartChar: uni2250
Encoding: 15 8784 15
Width: 660
Flags: HW
HStem: 178 64<90 570> 358 64<90 570> 514 112<295.625 364.375>
VStem: 274 112<535.625 604.375>
LayerCount: 2
Fore
SplineSet
90 358 m 1
 90 422 l 1
 570 422 l 1
 570 358 l 1
 90 358 l 1
90 178 m 1
 90 242 l 1
 570 242 l 1
 570 178 l 1
 90 178 l 1
330 626 m 0
 347 626 386 587 386 570 c 0
 386 553 347 514 330 514 c 0
 313 514 274 553 274 570 c 0
 274 587 313 626 330 626 c 0
EndSplineSet
EndChar

StartChar: uni2A66
Encoding: 16 10854 16
Width: 660
Flags: HW
HStem: -26 112<295.625 364.375> 178 64<90 570> 358 64<90 570>
VStem: 274 112<-4.375 64.375>
LayerCount: 2
Fore
SplineSet
90 358 m 1
 90 422 l 1
 570 422 l 1
 570 358 l 1
 90 358 l 1
90 178 m 1
 90 242 l 1
 570 242 l 1
 570 178 l 1
 90 178 l 1
330 86 m 0
 347 86 386 47 386 30 c 0
 386 13 347 -26 330 -26 c 0
 313 -26 274 13 274 30 c 0
 274 47 313 86 330 86 c 0
EndSplineSet
EndChar

StartChar: uni2251
Encoding: 17 8785 17
Width: 660
Flags: HW
HStem: -26 112<295.625 364.375> 178 64<90 570> 358 64<90 570> 514 112<295.625 364.375>
VStem: 274 112<-4.375 64.375 535.625 604.375>
LayerCount: 2
Fore
SplineSet
90 358 m 1
 90 422 l 1
 570 422 l 1
 570 358 l 1
 90 358 l 1
90 178 m 1
 90 242 l 1
 570 242 l 1
 570 178 l 1
 90 178 l 1
330 626 m 0
 347 626 386 587 386 570 c 0
 386 553 347 514 330 514 c 0
 313 514 274 553 274 570 c 0
 274 587 313 626 330 626 c 0
330 86 m 0
 347 86 386 47 386 30 c 0
 386 13 347 -26 330 -26 c 0
 313 -26 274 13 274 30 c 0
 274 47 313 86 330 86 c 0
EndSplineSet
EndChar

StartChar: uni2252
Encoding: 18 8786 18
Width: 660
Flags: HW
HStem: -26 112<479.625 548> 178 64<90 570> 358 64<90 570> 514 112<112.375 179.732>
VStem: 90 113<537.131 602.869> 458 112<-3.25573 63.2557>
LayerCount: 2
Fore
SplineSet
90 358 m 1
 90 422 l 1
 570 422 l 1
 570 358 l 1
 90 358 l 1
90 178 m 1
 90 242 l 1
 570 242 l 1
 570 178 l 1
 90 178 l 1
146 626 m 0
 163 626 203 586 203 570 c 0
 203 554 163 514 146 514 c 0
 131 514 90 553 90 570 c 0
 90 587 131 626 146 626 c 0
514 86 m 0
 530 86 570 47 570 30 c 0
 570 13 530 -26 514 -26 c 0
 497 -26 458 13 458 30 c 0
 458 47 497 86 514 86 c 0
EndSplineSet
EndChar

StartChar: uni2253
Encoding: 19 8787 19
Width: 660
Flags: HW
HStem: -26 112<112.375 179.732> 178 64<90 570> 358 64<90 570> 514 112<479.625 548>
VStem: 90 113<-2.86938 62.8694> 458 112<536.744 603.256>
LayerCount: 2
Fore
SplineSet
570 422 m 1
 570 358 l 1
 90 358 l 1
 90 422 l 1
 570 422 l 1
570 242 m 1
 570 178 l 1
 90 178 l 1
 90 242 l 1
 570 242 l 1
514 626 m 0
 530 626 570 587 570 570 c 0
 570 553 530 514 514 514 c 0
 497 514 458 553 458 570 c 0
 458 587 497 626 514 626 c 0
146 86 m 0
 163 86 203 46 203 30 c 0
 203 14 163 -26 146 -26 c 0
 131 -26 90 13 90 30 c 0
 90 47 131 86 146 86 c 0
EndSplineSet
EndChar

StartChar: uni2254
Encoding: 20 8788 20
Width: 876
Flags: HW
HStem: 154 112<112.375 179.732> 178 64<306 786> 334 112<112.375 179.732> 358 64<306 786>
VStem: 90 113<177.131 242.869 357.131 422.869>
LayerCount: 2
Fore
SplineSet
146 446 m 0x28
 163 446 203 406 203 390 c 0
 203 374 163 334 146 334 c 0
 131 334 90 373 90 390 c 0
 90 407 131 446 146 446 c 0x28
146 266 m 0x88
 163 266 203 226 203 210 c 0
 203 194 163 154 146 154 c 0
 131 154 90 193 90 210 c 0
 90 227 131 266 146 266 c 0x88
306 358 m 1x18
 306 422 l 1
 786 422 l 1
 786 358 l 1
 306 358 l 1x18
306 178 m 1x48
 306 242 l 1
 786 242 l 1
 786 178 l 1
 306 178 l 1x48
EndSplineSet
EndChar

StartChar: uni2255
Encoding: 21 8789 21
Width: 876
Flags: HW
HStem: 154 112<695.625 764.375> 178 64<90 570> 334 112<695.625 764.375> 358 64<90 570>
VStem: 674 112<175.625 244.375 355.625 424.375>
LayerCount: 2
Fore
SplineSet
730 446 m 0x28
 747 446 786 407 786 390 c 0
 786 373 747 334 730 334 c 0
 713 334 674 373 674 390 c 0
 674 407 713 446 730 446 c 0x28
730 266 m 0x88
 747 266 786 227 786 210 c 0
 786 193 747 154 730 154 c 0
 713 154 674 193 674 210 c 0
 674 227 713 266 730 266 c 0x88
570 422 m 1x18
 570 358 l 1
 90 358 l 1
 90 422 l 1
 570 422 l 1x18
570 242 m 1x48
 570 178 l 1
 90 178 l 1
 90 242 l 1
 570 242 l 1x48
EndSplineSet
EndChar

StartChar: uni2323
Encoding: 22 8995 22
Width: 660
Flags: HW
HStem: 223 64<226.107 433.893>
LayerCount: 2
Fore
SplineSet
134 368 m 1
 187 318 257 287 330 287 c 0
 403 287 473 318 526 368 c 1
 570 322 l 1
 505 260 420 223 330 223 c 0
 240 223 155 260 90 322 c 1
 134 368 l 1
EndSplineSet
EndChar

StartChar: uni2322
Encoding: 23 8994 23
Width: 660
Flags: HW
HStem: 313 64<226.107 433.893>
LayerCount: 2
Fore
SplineSet
134 232 m 1
 90 278 l 1
 155 340 240 377 330 377 c 0
 420 377 505 340 570 278 c 1
 526 232 l 1
 473 282 403 313 330 313 c 0
 257 313 187 282 134 232 c 1
EndSplineSet
EndChar

StartChar: uni224D
Encoding: 24 8781 24
Width: 660
Flags: HW
HStem: 193 64<226.107 433.893> 343 64<226.107 433.893>
LayerCount: 2
Fore
SplineSet
134 488 m 1
 187 438 257 407 330 407 c 0
 403 407 473 438 526 488 c 1
 570 442 l 1
 505 380 420 343 330 343 c 0
 240 343 155 380 90 442 c 1
 134 488 l 1
134 112 m 1
 90 158 l 1
 155 220 240 257 330 257 c 0
 420 257 505 220 570 158 c 1
 526 112 l 1
 473 162 403 193 330 193 c 0
 257 193 187 162 134 112 c 1
EndSplineSet
EndChar

StartChar: uni2050
Encoding: 25 8272 25
Width: 660
Flags: HW
HStem: 103 64<226.107 433.893> 433 64<226.107 433.893>
LayerCount: 2
Fore
SplineSet
134 352 m 1
 90 398 l 1
 155 460 240 497 330 497 c 0
 420 497 505 460 570 398 c 1
 526 352 l 1
 473 402 403 433 330 433 c 0
 257 433 187 402 134 352 c 1
134 248 m 1
 187 198 257 167 330 167 c 0
 403 167 473 198 526 248 c 1
 570 202 l 1
 505 140 420 103 330 103 c 0
 240 103 155 140 90 202 c 1
 134 248 l 1
EndSplineSet
EndChar

StartChar: sym020
Encoding: 26 -1 26
Width: 660
Flags: HW
HStem: 88 64<90 570> 268 64<90 570> 403 64<226.107 433.893> 528 20G<114.87 160.5 499.5 545.13>
LayerCount: 2
Fore
SplineSet
134 548 m 1
 187 498 257 467 330 467 c 0
 403 467 473 498 526 548 c 1
 570 502 l 1
 505 440 420 403 330 403 c 0
 240 403 155 440 90 502 c 1
 134 548 l 1
90 268 m 1
 90 332 l 1
 570 332 l 1
 570 268 l 1
 90 268 l 1
90 88 m 1
 90 152 l 1
 570 152 l 1
 570 88 l 1
 90 88 l 1
EndSplineSet
EndChar

StartChar: uni2258
Encoding: 27 8792 27
Width: 660
Flags: HW
HStem: 88 64<90 570> 268 64<90 570> 493 64<226.107 433.893>
LayerCount: 2
Fore
SplineSet
134 412 m 1
 90 458 l 1
 155 520 240 557 330 557 c 0
 420 557 505 520 570 458 c 1
 526 412 l 1
 473 462 403 493 330 493 c 0
 257 493 187 462 134 412 c 1
90 268 m 1
 90 332 l 1
 570 332 l 1
 570 268 l 1
 90 268 l 1
90 88 m 1
 90 152 l 1
 570 152 l 1
 570 88 l 1
 90 88 l 1
EndSplineSet
EndChar

StartChar: uni2256
Encoding: 28 8790 28
Width: 660
Flags: HW
HStem: 178 71<288.456 371.701> 178 64<90 250 410 570> 351 71<288.456 371.701> 358 64<90 250 410 570>
VStem: 231 48<258.606 341.394> 381 48<258.081 341.919>
LayerCount: 2
Fore
SplineSet
90 178 m 1x5c
 90 242 l 1
 250 242 l 1
 238 259 231 279 231 300 c 0
 231 321 238 341 250 358 c 1
 90 358 l 1
 90 422 l 1
 570 422 l 1
 570 358 l 1
 410 358 l 1
 422 341 429 321 429 300 c 0
 429 279 422 259 410 242 c 1
 570 242 l 1
 570 178 l 1
 90 178 l 1x5c
330 249 m 0xac
 361 249 381 274 381 300 c 0
 381 326 361 351 330 351 c 0
 302 351 279 328 279 300 c 0
 279 272 302 249 330 249 c 0xac
EndSplineSet
EndChar

StartChar: uni2257
Encoding: 29 8791 29
Width: 660
Flags: HW
HStem: 178 64<90 570> 358 64<90 570> 516 48<288.787 371.291> 666 48<288.787 371.291>
VStem: 231 48<573.787 656.213> 381 48<573.7 656.3>
LayerCount: 2
Fore
SplineSet
90 358 m 1
 90 422 l 1
 570 422 l 1
 570 358 l 1
 90 358 l 1
90 178 m 1
 90 242 l 1
 570 242 l 1
 570 178 l 1
 90 178 l 1
330 714 m 0
 385 714 429 670 429 615 c 0
 429 560 385 516 330 516 c 0
 275 516 231 560 231 615 c 0
 231 670 275 714 330 714 c 0
330 564 m 0
 361 564 381 589 381 615 c 0
 381 641 361 666 330 666 c 0
 302 666 279 643 279 615 c 0
 279 587 302 564 330 564 c 0
EndSplineSet
EndChar

StartChar: uni2259
Encoding: 30 8793 30
Width: 660
Flags: HW
HStem: 178 64<90 570> 358 64<90 570>
LayerCount: 2
Fore
SplineSet
90 358 m 1
 90 422 l 1
 570 422 l 1
 570 358 l 1
 90 358 l 1
90 178 m 1
 90 242 l 1
 570 242 l 1
 570 178 l 1
 90 178 l 1
521 519 m 1
 470 480 l 1
 330 665 l 1
 190 480 l 1
 139 519 l 1
 314 750 l 1
 346 750 l 1
 521 519 l 1
EndSplineSet
EndChar

StartChar: uni225A
Encoding: 31 8794 31
Width: 660
Flags: HW
HStem: 178 64<90 570> 358 64<90 570>
LayerCount: 2
Fore
SplineSet
90 358 m 1
 90 422 l 1
 570 422 l 1
 570 358 l 1
 90 358 l 1
90 178 m 1
 90 242 l 1
 570 242 l 1
 570 178 l 1
 90 178 l 1
139 711 m 1
 190 750 l 1
 330 565 l 1
 470 750 l 1
 521 711 l 1
 346 480 l 1
 314 480 l 1
 139 711 l 1
EndSplineSet
EndChar

StartChar: uni225B
Encoding: 32 8795 32
Width: 660
Flags: HW
HStem: 178 64<90 570> 358 64<90 570>
LayerCount: 2
Fore
SplineSet
90 358 m 1
 90 422 l 1
 570 422 l 1
 570 358 l 1
 90 358 l 1
90 178 m 1
 90 242 l 1
 570 242 l 1
 570 178 l 1
 90 178 l 1
330 776 m 1
 368 667 l 1
 483 665 l 1
 391 595 l 1
 424 485 l 1
 330 551 l 1
 236 485 l 1
 269 595 l 1
 177 665 l 1
 292 667 l 1
 330 776 l 1
EndSplineSet
EndChar

StartChar: uni225C
Encoding: 33 8796 33
Width: 660
Flags: HW
HStem: 178 64<90 570> 358 64<90 570> 524 48<255 405>
LayerCount: 2
Fore
SplineSet
90 358 m 1
 90 422 l 1
 570 422 l 1
 570 358 l 1
 90 358 l 1
90 178 m 1
 90 242 l 1
 570 242 l 1
 570 178 l 1
 90 178 l 1
330 798 m 1
 488 524 l 1
 172 524 l 1
 330 798 l 1
330 702 m 1
 255 572 l 1
 405 572 l 1
 330 702 l 1
EndSplineSet
EndChar

StartChar: element
Encoding: 34 8712 34
Width: 660
Flags: HW
HStem: 43 64<235.645 570> 268 64<156 570> 493 64<235.645 570>
VStem: 90 66<197.216 268 332 402.784>
CounterMasks: 1 e0
LayerCount: 2
Fore
SplineSet
570 493 m 1
 309 493 l 2
 225 493 167 419 156 332 c 1
 570 332 l 1
 570 268 l 1
 156 268 l 1
 167 181 225 107 309 107 c 2
 570 107 l 1
 570 43 l 1
 309 43 l 2
 180 43 90 165 90 300 c 0
 90 435 180 557 309 557 c 2
 570 557 l 1
 570 493 l 1
EndSplineSet
EndChar

StartChar: uni220B
Encoding: 35 8715 35
Width: 660
Flags: HW
HStem: 43 64<90 424.355> 268 64<90 504> 493 64<90 424.355>
VStem: 504 66<197.216 268 332 402.784>
CounterMasks: 1 e0
LayerCount: 2
Fore
SplineSet
90 107 m 1
 351 107 l 2
 435 107 493 181 504 268 c 1
 90 268 l 1
 90 332 l 1
 504 332 l 1
 493 419 435 493 351 493 c 2
 90 493 l 1
 90 557 l 1
 351 557 l 2
 480 557 570 435 570 300 c 0
 570 165 480 43 351 43 c 2
 90 43 l 1
 90 107 l 1
EndSplineSet
EndChar

StartChar: less
Encoding: 36 60 36
Width: 660
Flags: HW
HStem: 526 20G<501.088 551.175>
LayerCount: 2
Fore
SplineSet
541 546 m 1
 570 489 l 1
 193 300 l 1
 570 111 l 1
 541 54 l 1
 90 280 l 1
 90 320 l 1
 541 546 l 1
EndSplineSet
EndChar

StartChar: greater
Encoding: 37 62 37
Width: 660
Flags: HW
HStem: 526 20G<108.825 158.912>
LayerCount: 2
Fore
SplineSet
119 54 m 1
 90 111 l 1
 467 300 l 1
 90 489 l 1
 119 546 l 1
 570 320 l 1
 570 280 l 1
 119 54 l 1
EndSplineSet
EndChar

StartChar: lessequal
Encoding: 38 8804 38
Width: 660
Flags: HW
HStem: 39 64<90 570> 534 20G<493.86 554.797>
LayerCount: 2
Fore
SplineSet
547 554 m 1
 570 495 l 1
 213 360 l 1
 570 225 l 1
 547 166 l 1
 90 338 l 1
 90 382 l 1
 547 554 l 1
90 39 m 1
 90 103 l 1
 570 103 l 1
 570 39 l 1
 90 39 l 1
EndSplineSet
EndChar

StartChar: greaterequal
Encoding: 39 8805 39
Width: 660
Flags: HW
HStem: 39 64<90 570> 534 20G<105.203 166.14>
LayerCount: 2
Fore
SplineSet
113 166 m 1
 90 225 l 1
 447 360 l 1
 90 495 l 1
 113 554 l 1
 570 382 l 1
 570 338 l 1
 113 166 l 1
570 103 m 1
 570 39 l 1
 90 39 l 1
 90 103 l 1
 570 103 l 1
EndSplineSet
EndChar

StartChar: uni2A7D
Encoding: 40 10877 40
Width: 660
Flags: HW
LayerCount: 2
Fore
SplineSet
547 584 m 1
 570 525 l 1
 213 390 l 1
 570 255 l 1
 547 196 l 1
 90 368 l 1
 90 412 l 1
 547 584 l 1
570 75 m 1
 547 16 l 1
 90 188 l 1
 113 248 l 1
 570 75 l 1
EndSplineSet
EndChar

StartChar: uni2A7E
Encoding: 41 10878 41
Width: 660
Flags: HW
LayerCount: 2
Fore
SplineSet
113 196 m 1
 90 255 l 1
 447 390 l 1
 90 525 l 1
 113 584 l 1
 570 412 l 1
 570 368 l 1
 113 196 l 1
113 16 m 1
 90 75 l 1
 547 248 l 1
 570 188 l 1
 113 16 l 1
EndSplineSet
EndChar

StartChar: uni2266
Encoding: 42 8806 42
Width: 660
Flags: HW
HStem: -51 64<90 570> 129 64<90 570>
LayerCount: 2
Fore
SplineSet
547 644 m 1
 570 585 l 1
 213 450 l 1
 570 315 l 1
 547 256 l 1
 90 428 l 1
 90 472 l 1
 547 644 l 1
90 129 m 1
 90 193 l 1
 570 193 l 1
 570 129 l 1
 90 129 l 1
90 -51 m 1
 90 13 l 1
 570 13 l 1
 570 -51 l 1
 90 -51 l 1
EndSplineSet
EndChar

StartChar: uni2267
Encoding: 43 8807 43
Width: 660
Flags: HW
HStem: -51 64<90 570> 129 64<90 570>
LayerCount: 2
Fore
SplineSet
113 256 m 1
 90 315 l 1
 447 450 l 1
 90 585 l 1
 113 644 l 1
 570 472 l 1
 570 428 l 1
 113 256 l 1
570 193 m 1
 570 129 l 1
 90 129 l 1
 90 193 l 1
 570 193 l 1
570 13 m 1
 570 -51 l 1
 90 -51 l 1
 90 13 l 1
 570 13 l 1
EndSplineSet
EndChar

StartChar: uni2272
Encoding: 44 8818 44
Width: 660
Flags: HW
HStem: 9 64<376.041 497.661> 99 64<162.339 284.551>
LayerCount: 2
Fore
SplineSet
547 584 m 1
 570 525 l 1
 213 390 l 1
 570 255 l 1
 547 196 l 1
 90 368 l 1
 90 412 l 1
 547 584 l 1
439 9 m 0
 338 9 298 99 221 99 c 0
 183 99 154 73 126 47 c 1
 90 86 l 1
 128 122 168 163 221 163 c 0
 323 163 363 73 439 73 c 0
 477 73 506 100 534 125 c 1
 570 86 l 1
 532 50 492 9 439 9 c 0
EndSplineSet
EndChar

StartChar: uni2273
Encoding: 45 8819 45
Width: 660
Flags: HW
HStem: 9 64<376.041 497.661> 99 64<162.339 284.551>
LayerCount: 2
Fore
SplineSet
113 196 m 1
 90 255 l 1
 447 390 l 1
 90 525 l 1
 113 584 l 1
 570 412 l 1
 570 368 l 1
 113 196 l 1
439 9 m 0
 338 9 298 99 221 99 c 0
 183 99 154 73 126 47 c 1
 90 86 l 1
 128 122 168 163 221 163 c 0
 323 163 363 73 439 73 c 0
 477 73 506 100 534 125 c 1
 570 86 l 1
 532 50 492 9 439 9 c 0
EndSplineSet
EndChar

StartChar: uni2A85
Encoding: 46 10885 46
Width: 660
Flags: HW
HStem: -81 64<376.041 497.661> 9 64<162.339 284.551> 99 64<376.041 497.661> 189 64<162.339 284.551>
LayerCount: 2
Fore
SplineSet
547 674 m 1
 570 615 l 1
 213 480 l 1
 570 345 l 1
 547 286 l 1
 90 458 l 1
 90 502 l 1
 547 674 l 1
439 99 m 0
 338 99 298 189 221 189 c 0
 183 189 154 163 126 137 c 1
 90 176 l 1
 128 212 168 253 221 253 c 0
 323 253 363 163 439 163 c 0
 477 163 506 190 534 215 c 1
 570 176 l 1
 532 140 492 99 439 99 c 0
439 -81 m 0
 338 -81 298 9 221 9 c 0
 183 9 154 -17 126 -43 c 1
 90 -4 l 1
 128 32 168 73 221 73 c 0
 323 73 363 -17 439 -17 c 0
 477 -17 506 10 534 35 c 1
 570 -4 l 1
 532 -40 492 -81 439 -81 c 0
EndSplineSet
EndChar

StartChar: uni2A86
Encoding: 47 10886 47
Width: 660
Flags: HW
HStem: -81 64<376.041 497.661> 9 64<162.339 284.551> 99 64<376.041 497.661> 189 64<162.339 284.551>
LayerCount: 2
Fore
SplineSet
113 286 m 1
 90 345 l 1
 447 480 l 1
 90 615 l 1
 113 674 l 1
 570 502 l 1
 570 458 l 1
 113 286 l 1
439 99 m 0
 338 99 298 189 221 189 c 0
 183 189 154 163 126 137 c 1
 90 176 l 1
 128 212 168 253 221 253 c 0
 323 253 363 163 439 163 c 0
 477 163 506 190 534 215 c 1
 570 176 l 1
 532 140 492 99 439 99 c 0
439 -81 m 0
 338 -81 298 9 221 9 c 0
 183 9 154 -17 126 -43 c 1
 90 -4 l 1
 128 32 168 73 221 73 c 0
 323 73 363 -17 439 -17 c 0
 477 -17 506 10 534 35 c 1
 570 -4 l 1
 532 -40 492 -81 439 -81 c 0
EndSplineSet
EndChar

StartChar: uni2276
Encoding: 48 8822 48
Width: 660
Flags: HW
LayerCount: 2
Fore
SplineSet
547 669 m 1
 570 609 l 1
 213 474 l 1
 570 340 l 1
 547 280 l 1
 90 452 l 1
 90 497 l 1
 547 669 l 1
113 -69 m 1
 90 -9 l 1
 447 126 l 1
 90 260 l 1
 113 320 l 1
 570 148 l 1
 570 103 l 1
 113 -69 l 1
EndSplineSet
EndChar

StartChar: uni2277
Encoding: 49 8823 49
Width: 660
Flags: HW
LayerCount: 2
Fore
SplineSet
113 280 m 1
 90 340 l 1
 447 474 l 1
 90 609 l 1
 113 669 l 1
 570 497 l 1
 570 452 l 1
 113 280 l 1
547 320 m 1
 570 260 l 1
 213 126 l 1
 570 -9 l 1
 547 -69 l 1
 90 103 l 1
 90 148 l 1
 547 320 l 1
EndSplineSet
EndChar

StartChar: uni22DA
Encoding: 50 8922 50
Width: 660
Flags: HW
HStem: 268 64<90 570>
LayerCount: 2
Fore
SplineSet
547 783 m 1
 570 723 l 1
 213 589 l 1
 570 454 l 1
 547 394 l 1
 90 567 l 1
 90 611 l 1
 547 783 l 1
113 -183 m 1
 90 -123 l 1
 447 11 l 1
 90 146 l 1
 113 206 l 1
 570 33 l 1
 570 -11 l 1
 113 -183 l 1
90 268 m 1
 90 332 l 1
 570 332 l 1
 570 268 l 1
 90 268 l 1
EndSplineSet
EndChar

StartChar: uni22DB
Encoding: 51 8923 51
Width: 660
Flags: HW
HStem: 268 64<90 570>
LayerCount: 2
Fore
SplineSet
113 394 m 1
 90 454 l 1
 447 589 l 1
 90 723 l 1
 113 783 l 1
 570 611 l 1
 570 567 l 1
 113 394 l 1
547 206 m 1
 570 146 l 1
 213 11 l 1
 570 -123 l 1
 547 -183 l 1
 90 -11 l 1
 90 33 l 1
 547 206 l 1
570 332 m 1
 570 268 l 1
 90 268 l 1
 90 332 l 1
 570 332 l 1
EndSplineSet
EndChar

StartChar: uni2A8B
Encoding: 52 10891 52
Width: 660
Flags: HW
HStem: 178 64<90 570> 358 64<90 570>
LayerCount: 2
Fore
SplineSet
547 873 m 1
 570 813 l 1
 213 679 l 1
 570 544 l 1
 547 484 l 1
 90 657 l 1
 90 701 l 1
 547 873 l 1
113 -273 m 1
 90 -213 l 1
 447 -79 l 1
 90 56 l 1
 113 116 l 1
 570 -57 l 1
 570 -101 l 1
 113 -273 l 1
90 358 m 1
 90 422 l 1
 570 422 l 1
 570 358 l 1
 90 358 l 1
90 178 m 1
 90 242 l 1
 570 242 l 1
 570 178 l 1
 90 178 l 1
EndSplineSet
EndChar

StartChar: uni2A8C
Encoding: 53 10892 53
Width: 660
Flags: HW
HStem: 178 64<90 570> 358 64<90 570>
LayerCount: 2
Fore
SplineSet
113 484 m 1
 90 544 l 1
 447 679 l 1
 90 813 l 1
 113 873 l 1
 570 701 l 1
 570 657 l 1
 113 484 l 1
547 116 m 1
 570 56 l 1
 213 -79 l 1
 570 -213 l 1
 547 -273 l 1
 90 -101 l 1
 90 -57 l 1
 547 116 l 1
570 422 m 1
 570 358 l 1
 90 358 l 1
 90 422 l 1
 570 422 l 1
570 242 m 1
 570 178 l 1
 90 178 l 1
 90 242 l 1
 570 242 l 1
EndSplineSet
EndChar

StartChar: uni22DA.alt
Encoding: 54 -1 54
Width: 660
Flags: HW
HStem: 739 20G<493.86 554.667>
LayerCount: 2
Fore
SplineSet
547 759 m 1
 570 699 l 1
 213 564 l 1
 570 430 l 1
 547 370 l 1
 90 542 l 1
 90 587 l 1
 547 759 l 1
113 -159 m 1
 90 -99 l 1
 447 36 l 1
 90 170 l 1
 113 230 l 1
 570 58 l 1
 570 13 l 1
 113 -159 l 1
570 244 m 1
 547 184 l 1
 90 356 l 1
 113 416 l 1
 570 244 l 1
EndSplineSet
EndChar

StartChar: uni22DB.alt
Encoding: 55 -1 55
Width: 660
Flags: HW
HStem: 739 20G<105.333 166.14>
LayerCount: 2
Fore
SplineSet
113 370 m 1
 90 430 l 1
 447 564 l 1
 90 699 l 1
 113 759 l 1
 570 587 l 1
 570 542 l 1
 113 370 l 1
547 230 m 1
 570 170 l 1
 213 36 l 1
 570 -99 l 1
 547 -159 l 1
 90 13 l 1
 90 58 l 1
 547 230 l 1
113 184 m 1
 90 244 l 1
 547 416 l 1
 570 356 l 1
 113 184 l 1
EndSplineSet
EndChar

StartChar: uni226A
Encoding: 56 8810 56
Width: 1084
Flags: HW
HStem: 529 20G<562.561 616.814 922.561 976.814>
LayerCount: 2
Fore
SplineSet
608 549 m 1
 634 490 l 1
 202 300 l 1
 634 110 l 1
 608 51 l 1
 90 279 l 1
 90 321 l 1
 608 549 l 1
968 549 m 1
 994 490 l 1
 562 300 l 1
 994 110 l 1
 968 51 l 1
 450 279 l 1
 450 321 l 1
 968 549 l 1
EndSplineSet
EndChar

StartChar: uni226B
Encoding: 57 8811 57
Width: 1084
Flags: HW
HStem: 529 20G<107.186 161.439 467.186 521.439>
LayerCount: 2
Fore
SplineSet
476 51 m 1
 450 110 l 1
 882 300 l 1
 450 490 l 1
 476 549 l 1
 994 321 l 1
 994 279 l 1
 476 51 l 1
116 51 m 1
 90 110 l 1
 522 300 l 1
 90 490 l 1
 116 549 l 1
 634 321 l 1
 634 279 l 1
 116 51 l 1
EndSplineSet
EndChar

StartChar: uni22D8
Encoding: 58 8920 58
Width: 1444
Flags: HW
HStem: 529 20G<562.561 616.814 922.561 976.814 1282.56 1336.81>
LayerCount: 2
Fore
SplineSet
608 549 m 1
 634 490 l 1
 202 300 l 1
 634 110 l 1
 608 51 l 1
 90 279 l 1
 90 321 l 1
 608 549 l 1
968 549 m 1
 994 490 l 1
 562 300 l 1
 994 110 l 1
 968 51 l 1
 450 279 l 1
 450 321 l 1
 968 549 l 1
1328 549 m 1
 1354 490 l 1
 922 300 l 1
 1354 110 l 1
 1328 51 l 1
 810 279 l 1
 810 321 l 1
 1328 549 l 1
EndSplineSet
EndChar

StartChar: uni22D9
Encoding: 59 8921 59
Width: 1444
Flags: HW
HStem: 529 20G<107.186 161.439 467.186 521.439 827.186 881.439>
LayerCount: 2
Fore
SplineSet
836 51 m 1
 810 110 l 1
 1242 300 l 1
 810 490 l 1
 836 549 l 1
 1354 321 l 1
 1354 279 l 1
 836 51 l 1
476 51 m 1
 450 110 l 1
 882 300 l 1
 450 490 l 1
 476 549 l 1
 994 321 l 1
 994 279 l 1
 476 51 l 1
116 51 m 1
 90 110 l 1
 522 300 l 1
 90 490 l 1
 116 549 l 1
 634 321 l 1
 634 279 l 1
 116 51 l 1
EndSplineSet
EndChar

StartChar: uni22B2
Encoding: 60 8882 60
Width: 660
Flags: HW
HStem: 526 20G<506 570>
VStem: 506 64<71 72 143 457 528 529>
LayerCount: 2
Fore
SplineSet
506 143 m 1
 506 457 l 1
 193 300 l 1
 506 143 l 1
506 528 m 1
 506 529 l 1
 541 546 l 1
 570 529 l 1
 570 71 l 1
 541 54 l 1
 506 71 l 1
 506 72 l 1
 90 280 l 1
 90 320 l 1
 506 528 l 1
EndSplineSet
EndChar

StartChar: uni22B3
Encoding: 61 8883 61
Width: 660
Flags: HW
HStem: 526 20G<90 154>
VStem: 90 64<71 72 143 457 528 529>
LayerCount: 2
Fore
SplineSet
154 457 m 1
 154 143 l 1
 467 300 l 1
 154 457 l 1
154 72 m 1
 154 71 l 1
 119 54 l 1
 90 71 l 1
 90 529 l 1
 119 546 l 1
 154 529 l 1
 154 528 l 1
 570 320 l 1
 570 280 l 1
 154 72 l 1
EndSplineSet
EndChar

StartChar: uni22B4
Encoding: 62 8884 62
Width: 660
Flags: HW
HStem: 39 64<90 570> 534 20G<506 570>
VStem: 506 64<249 471>
LayerCount: 2
Fore
SplineSet
506 249 m 1
 506 471 l 1
 213 360 l 1
 506 249 l 1
506 539 m 1
 547 554 l 1
 570 539 l 1
 570 181 l 1
 547 166 l 1
 506 181 l 1
 90 338 l 1
 90 382 l 1
 506 539 l 1
90 39 m 1
 90 103 l 1
 570 103 l 1
 570 39 l 1
 90 39 l 1
EndSplineSet
EndChar

StartChar: uni22B5
Encoding: 63 8885 63
Width: 660
Flags: HW
HStem: 39 64<90 570> 534 20G<90 154>
VStem: 90 64<249 471>
LayerCount: 2
Fore
SplineSet
154 471 m 1
 154 249 l 1
 447 360 l 1
 154 471 l 1
154 181 m 1
 113 166 l 1
 90 181 l 1
 90 539 l 1
 113 554 l 1
 154 539 l 1
 570 382 l 1
 570 338 l 1
 154 181 l 1
570 103 m 1
 570 39 l 1
 90 39 l 1
 90 103 l 1
 570 103 l 1
EndSplineSet
EndChar

StartChar: uni2AA6
Encoding: 64 10918 64
Width: 717
Flags: HW
HStem: 526 20G<501.088 551>
VStem: 551 64<177.681 423.328>
LayerCount: 2
Fore
SplineSet
513 140 m 1
 527 167 551 225 551 300 c 0
 551 331 547 395 513 460 c 1
 193 300 l 1
 513 140 l 1
555 82 m 1
 541 54 l 1
 90 280 l 1
 90 320 l 1
 541 546 l 1
 555 518 l 1
 556 518 l 1
 570 489 l 1
 600 429 615 365 615 300 c 0
 615 235 600 171 570 111 c 1
 556 82 l 1
 555 82 l 1
EndSplineSet
EndChar

StartChar: uni2AA7
Encoding: 65 10919 65
Width: 717
Flags: HW
HStem: 526 20G<165 215>
VStem: 102 64<178.842 421.158>
LayerCount: 2
Fore
SplineSet
204 460 m 1
 193 436 166 381 166 300 c 0
 166 219 193 164 204 140 c 1
 523 300 l 1
 204 460 l 1
161 518 m 1
 175 546 l 1
 627 320 l 1
 627 280 l 1
 175 54 l 1
 161 82 l 1
 147 111 l 1
 117 171 102 235 102 300 c 0
 102 365 117 429 147 489 c 1
 161 518 l 1
EndSplineSet
EndChar

StartChar: uni2AA8
Encoding: 66 10920 66
Width: 698
Flags: HW
VStem: 524 65<279.838 500.162>
LayerCount: 2
Fore
SplineSet
509 278 m 1
 519 315 524 352 524 390 c 0
 524 428 519 465 509 502 c 1
 213 390 l 1
 509 278 l 1
563 237 m 2
 562 233 560 230 559 226 c 1
 547 196 l 1
 90 368 l 1
 90 412 l 1
 547 584 l 1
 558 555 l 1
 559 555 l 1
 561 549 563 543 565 537 c 2
 570 525 l 1
 569 525 l 1
 582 481 589 435 589 390 c 0
 589 345 582 299 569 255 c 1
 570 255 l 1
 563 237 l 2
570 75 m 1
 547 16 l 1
 90 188 l 1
 113 248 l 1
 570 75 l 1
EndSplineSet
EndChar

StartChar: uni2AA9
Encoding: 67 10921 67
Width: 698
Flags: HW
VStem: 110 64<279.253 500.747>
LayerCount: 2
Fore
SplineSet
190 502 m 1
 179 465 174 428 174 390 c 0
 174 352 179 315 190 278 c 1
 486 390 l 1
 190 502 l 1
151 196 m 1
 128 255 l 1
 130 256 l 1
 117 300 110 345 110 390 c 0
 110 435 117 480 130 524 c 1
 128 525 l 1
 151 584 l 1
 608 412 l 1
 608 368 l 1
 151 196 l 1
151 16 m 1
 128 75 l 1
 586 248 l 1
 608 188 l 1
 151 16 l 1
EndSplineSet
EndChar

StartChar: uni228F
Encoding: 68 8847 68
Width: 660
Flags: HW
HStem: 43 64<154 570> 493 64<154 570>
VStem: 90 64<107 493>
LayerCount: 2
Fore
SplineSet
154 107 m 1
 570 107 l 1
 570 43 l 1
 90 43 l 1
 90 557 l 1
 570 557 l 1
 570 493 l 1
 154 493 l 1
 154 107 l 1
EndSplineSet
EndChar

StartChar: uni2290
Encoding: 69 8848 69
Width: 660
Flags: HW
HStem: 43 64<90 506> 493 64<90 506>
VStem: 506 64<107 493>
LayerCount: 2
Fore
SplineSet
506 107 m 1
 506 493 l 1
 90 493 l 1
 90 557 l 1
 570 557 l 1
 570 43 l 1
 90 43 l 1
 90 107 l 1
 506 107 l 1
EndSplineSet
EndChar

StartChar: uni2291
Encoding: 70 8849 70
Width: 660
Flags: HW
HStem: 9 64<90 570> 189 64<154 570> 527 64<154 570>
VStem: 90 64<253 527>
LayerCount: 2
Fore
SplineSet
154 253 m 1
 570 253 l 1
 570 189 l 1
 90 189 l 1
 90 591 l 1
 570 591 l 1
 570 527 l 1
 154 527 l 1
 154 253 l 1
90 9 m 1
 90 73 l 1
 570 73 l 1
 570 9 l 1
 90 9 l 1
EndSplineSet
EndChar

StartChar: uni2292
Encoding: 71 8850 71
Width: 660
Flags: HW
HStem: 9 64<90 570> 189 64<90 506> 527 64<90 506>
VStem: 506 64<253 527>
LayerCount: 2
Fore
SplineSet
506 253 m 1
 506 527 l 1
 90 527 l 1
 90 591 l 1
 570 591 l 1
 570 189 l 1
 90 189 l 1
 90 253 l 1
 506 253 l 1
570 73 m 1
 570 9 l 1
 90 9 l 1
 90 73 l 1
 570 73 l 1
EndSplineSet
EndChar

StartChar: sym021
Encoding: 72 -1 72
Width: 660
Flags: HW
HStem: -81 64<90 570> 99 64<90 570> 279 64<154 570> 617 64<154 570>
VStem: 90 64<343 617>
LayerCount: 2
Fore
SplineSet
154 343 m 1
 570 343 l 1
 570 279 l 1
 90 279 l 1
 90 681 l 1
 570 681 l 1
 570 617 l 1
 154 617 l 1
 154 343 l 1
90 99 m 1
 90 163 l 1
 570 163 l 1
 570 99 l 1
 90 99 l 1
90 -81 m 1
 90 -17 l 1
 570 -17 l 1
 570 -81 l 1
 90 -81 l 1
EndSplineSet
EndChar

StartChar: sym022
Encoding: 73 -1 73
Width: 660
Flags: HW
HStem: -81 64<90 570> 99 64<90 570> 279 64<90 506> 617 64<90 506>
VStem: 506 64<343 617>
LayerCount: 2
Fore
SplineSet
506 343 m 1
 506 617 l 1
 90 617 l 1
 90 681 l 1
 570 681 l 1
 570 279 l 1
 90 279 l 1
 90 343 l 1
 506 343 l 1
570 163 m 1
 570 99 l 1
 90 99 l 1
 90 163 l 1
 570 163 l 1
570 -17 m 1
 570 -81 l 1
 90 -81 l 1
 90 -17 l 1
 570 -17 l 1
EndSplineSet
EndChar

StartChar: sym023
Encoding: 74 -1 74
Width: 660
Flags: HW
HStem: 43 64<154 570> 178 64<289 570> 358 64<289 570> 493 64<154 570>
VStem: 90 64<107 493> 225 64<242 358>
LayerCount: 2
Fore
SplineSet
154 107 m 1
 570 107 l 1
 570 43 l 1
 90 43 l 1
 90 557 l 1
 570 557 l 1
 570 493 l 1
 154 493 l 1
 154 107 l 1
289 242 m 1
 570 242 l 1
 570 178 l 1
 225 178 l 1
 225 422 l 1
 570 422 l 1
 570 358 l 1
 289 358 l 1
 289 242 l 1
EndSplineSet
EndChar

StartChar: sym024
Encoding: 75 -1 75
Width: 660
Flags: HW
HStem: 43 64<90 506> 178 64<90 371> 358 64<90 371> 493 64<90 506>
VStem: 371 64<242 358> 506 64<107 493>
LayerCount: 2
Fore
SplineSet
506 107 m 1
 506 493 l 1
 90 493 l 1
 90 557 l 1
 570 557 l 1
 570 43 l 1
 90 43 l 1
 90 107 l 1
 506 107 l 1
371 242 m 1
 371 358 l 1
 90 358 l 1
 90 422 l 1
 435 422 l 1
 435 178 l 1
 90 178 l 1
 90 242 l 1
 371 242 l 1
EndSplineSet
EndChar

StartChar: propersubset
Encoding: 76 8834 76
Width: 660
Flags: HW
HStem: 43 64<238.141 570> 493 64<238.141 570>
VStem: 90 64<202.87 397.13>
LayerCount: 2
Fore
SplineSet
570 493 m 1
 309 493 l 2
 215 493 154 400 154 300 c 0
 154 200 215 107 309 107 c 2
 570 107 l 1
 570 43 l 1
 309 43 l 2
 180 43 90 165 90 300 c 0
 90 435 180 557 309 557 c 2
 570 557 l 1
 570 493 l 1
EndSplineSet
EndChar

StartChar: propersuperset
Encoding: 77 8835 77
Width: 660
Flags: HW
HStem: 43 64<90 421.859> 493 64<90 421.859>
VStem: 506 64<202.87 397.13>
LayerCount: 2
Fore
SplineSet
90 107 m 1
 351 107 l 2
 445 107 506 200 506 300 c 0
 506 400 445 493 351 493 c 2
 90 493 l 1
 90 557 l 1
 351 557 l 2
 480 557 570 435 570 300 c 0
 570 165 480 43 351 43 c 2
 90 43 l 1
 90 107 l 1
EndSplineSet
EndChar

StartChar: reflexsubset
Encoding: 78 8838 78
Width: 660
Flags: HW
HStem: 9 64<90 570> 189 64<204.51 570> 527 64<204.51 570>
VStem: 90 64<308.412 471.588>
LayerCount: 2
Fore
SplineSet
570 527 m 1
 262 527 l 2
 196 527 154 461 154 390 c 0
 154 319 196 253 262 253 c 2
 570 253 l 1
 570 189 l 1
 262 189 l 2
 161 189 90 284 90 390 c 0
 90 496 161 591 262 591 c 2
 570 591 l 1
 570 527 l 1
90 9 m 1
 90 73 l 1
 570 73 l 1
 570 9 l 1
 90 9 l 1
EndSplineSet
EndChar

StartChar: reflexsuperset
Encoding: 79 8839 79
Width: 660
Flags: HW
HStem: 9 64<90 570> 189 64<90 455.49> 527 64<90 455.49>
VStem: 506 64<308.412 471.588>
LayerCount: 2
Fore
SplineSet
90 253 m 1
 398 253 l 2
 464 253 506 319 506 390 c 0
 506 461 464 527 398 527 c 2
 90 527 l 1
 90 591 l 1
 398 591 l 2
 499 591 570 496 570 390 c 0
 570 284 499 189 398 189 c 2
 90 189 l 1
 90 253 l 1
570 73 m 1
 570 9 l 1
 90 9 l 1
 90 73 l 1
 570 73 l 1
EndSplineSet
EndChar

StartChar: uni2AC5
Encoding: 80 10949 80
Width: 660
Flags: HW
HStem: -81 64<90 570> 99 64<90 570> 279 64<204.51 570> 617 64<204.51 570>
VStem: 90 64<398.412 561.588>
LayerCount: 2
Fore
SplineSet
570 617 m 1
 262 617 l 2
 196 617 154 551 154 480 c 0
 154 409 196 343 262 343 c 2
 570 343 l 1
 570 279 l 1
 262 279 l 2
 161 279 90 374 90 480 c 0
 90 586 161 681 262 681 c 2
 570 681 l 1
 570 617 l 1
90 99 m 1
 90 163 l 1
 570 163 l 1
 570 99 l 1
 90 99 l 1
90 -81 m 1
 90 -17 l 1
 570 -17 l 1
 570 -81 l 1
 90 -81 l 1
EndSplineSet
EndChar

StartChar: uni2AC6
Encoding: 81 10950 81
Width: 660
Flags: HW
HStem: -81 64<90 570> 99 64<90 570> 279 64<90 455.49> 617 64<90 455.49>
VStem: 506 64<398.412 561.588>
LayerCount: 2
Fore
SplineSet
90 343 m 1
 398 343 l 2
 464 343 506 409 506 480 c 0
 506 551 464 617 398 617 c 2
 90 617 l 1
 90 681 l 1
 398 681 l 2
 499 681 570 586 570 480 c 0
 570 374 499 279 398 279 c 2
 90 279 l 1
 90 343 l 1
570 163 m 1
 570 99 l 1
 90 99 l 1
 90 163 l 1
 570 163 l 1
570 -17 m 1
 570 -81 l 1
 90 -81 l 1
 90 -17 l 1
 570 -17 l 1
EndSplineSet
EndChar

StartChar: uni22D0
Encoding: 82 8912 82
Width: 660
Flags: HW
HStem: 43 64<238.141 570> 178 64<297.53 570> 358 64<297.53 570> 493 64<238.141 570>
VStem: 90 64<202.87 397.13> 225 64<248.409 351.591>
LayerCount: 2
Fore
SplineSet
570 493 m 1
 309 493 l 2
 215 493 154 400 154 300 c 0
 154 200 215 107 309 107 c 2
 570 107 l 1
 570 43 l 1
 309 43 l 2
 180 43 90 165 90 300 c 0
 90 435 180 557 309 557 c 2
 570 557 l 1
 570 493 l 1
570 358 m 1
 330 358 l 2
 303 358 289 329 289 300 c 0
 289 271 303 242 330 242 c 2
 570 242 l 1
 570 178 l 1
 330 178 l 2
 268 178 225 236 225 300 c 0
 225 364 268 422 330 422 c 2
 570 422 l 1
 570 358 l 1
EndSplineSet
EndChar

StartChar: uni22D1
Encoding: 83 8913 83
Width: 660
Flags: HW
HStem: 43 64<90 421.859> 178 64<90 362.47> 358 64<90 362.47> 493 64<90 421.859>
VStem: 371 64<248.409 351.591> 506 64<202.87 397.13>
LayerCount: 2
Fore
SplineSet
90 107 m 1
 351 107 l 2
 445 107 506 200 506 300 c 0
 506 400 445 493 351 493 c 2
 90 493 l 1
 90 557 l 1
 351 557 l 2
 480 557 570 435 570 300 c 0
 570 165 480 43 351 43 c 2
 90 43 l 1
 90 107 l 1
90 242 m 1
 330 242 l 2
 357 242 371 271 371 300 c 0
 371 329 357 358 330 358 c 2
 90 358 l 1
 90 422 l 1
 330 422 l 2
 392 422 435 364 435 300 c 0
 435 236 392 178 330 178 c 2
 90 178 l 1
 90 242 l 1
EndSplineSet
EndChar

StartChar: uni227A
Encoding: 84 8826 84
Width: 660
Flags: HW
HStem: 268 64<90 249.766> 527 20G<469 544.364>
LayerCount: 2
Fore
SplineSet
289 300 m 1
 395 259 490 183 570 97 c 1
 523 53 l 1
 415 169 280 268 122 268 c 2
 90 268 l 1
 90 332 l 1
 122 332 l 2
 280 332 415 431 523 547 c 1
 570 503 l 1
 490 417 395 341 289 300 c 1
EndSplineSet
EndChar

StartChar: uni227B
Encoding: 85 8827 85
Width: 660
Flags: HW
HStem: 268 64<410.234 570> 527 20G<115.636 191>
LayerCount: 2
Fore
SplineSet
371 300 m 1
 265 341 170 417 90 503 c 1
 137 547 l 1
 245 431 380 332 538 332 c 2
 570 332 l 1
 570 268 l 1
 538 268 l 2
 380 268 245 169 137 53 c 1
 90 97 l 1
 170 183 265 259 371 300 c 1
EndSplineSet
EndChar

StartChar: uni2AAF
Encoding: 86 10927 86
Width: 660
Flags: HW
HStem: 39 64<90 570> 328 64<90 287.902> 531 20G<472 544.364>
LayerCount: 2
Fore
SplineSet
334 360 m 1
 423 331 505 283 570 213 c 1
 523 169 l 1
 421 279 272 328 122 328 c 2
 90 328 l 1
 90 392 l 1
 122 392 l 2
 272 392 421 441 523 551 c 1
 570 507 l 1
 505 437 423 389 334 360 c 1
90 39 m 1
 90 103 l 1
 570 103 l 1
 570 39 l 1
 90 39 l 1
EndSplineSet
EndChar

StartChar: uni2AB0
Encoding: 87 10928 87
Width: 660
Flags: HW
HStem: 39 64<90 570> 328 64<372.098 570> 531 20G<115.636 188>
LayerCount: 2
Fore
SplineSet
326 360 m 1
 237 389 155 437 90 507 c 1
 137 551 l 1
 239 441 388 392 538 392 c 2
 570 392 l 1
 570 328 l 1
 538 328 l 2
 388 328 239 279 137 169 c 1
 90 213 l 1
 155 283 237 331 326 360 c 1
570 103 m 1
 570 39 l 1
 90 39 l 1
 90 103 l 1
 570 103 l 1
EndSplineSet
EndChar

StartChar: uni227C
Encoding: 88 8828 88
Width: 660
Flags: HW
HStem: 178 64<90 267.904> 358 64<90 287.902>
LayerCount: 2
Fore
SplineSet
334 390 m 1
 423 361 505 313 570 243 c 1
 523 199 l 1
 421 309 272 358 122 358 c 2
 90 358 l 1
 90 422 l 1
 122 422 l 2
 272 422 421 471 523 581 c 1
 570 537 l 1
 505 467 423 419 334 390 c 1
90 178 m 1
 90 242 l 1
 154 242 l 2
 295 242 414 164 518 67 c 1
 472 23 l 1
 381 109 277 178 154 178 c 2
 90 178 l 1
EndSplineSet
EndChar

StartChar: uni227D
Encoding: 89 8829 89
Width: 660
Flags: HW
HStem: 178 64<392.096 570> 358 64<372.098 570>
LayerCount: 2
Fore
SplineSet
326 390 m 1
 237 419 155 467 90 537 c 1
 137 581 l 1
 239 471 388 422 538 422 c 2
 570 422 l 1
 570 358 l 1
 538 358 l 2
 388 358 239 309 137 199 c 1
 90 243 l 1
 155 313 237 361 326 390 c 1
570 178 m 1
 506 178 l 2
 383 178 279 109 188 23 c 1
 142 67 l 1
 246 164 365 242 506 242 c 2
 570 242 l 1
 570 178 l 1
EndSplineSet
EndChar

StartChar: uni2AB3
Encoding: 90 10931 90
Width: 660
Flags: HW
HStem: -51 64<90 570> 129 64<90 570> 418 64<90 287.902>
LayerCount: 2
Fore
SplineSet
334 450 m 1
 423 421 505 373 570 303 c 1
 523 259 l 1
 421 369 272 418 122 418 c 2
 90 418 l 1
 90 482 l 1
 122 482 l 2
 272 482 421 531 523 641 c 1
 570 597 l 1
 505 527 423 479 334 450 c 1
90 129 m 1
 90 193 l 1
 570 193 l 1
 570 129 l 1
 90 129 l 1
90 -51 m 1
 90 13 l 1
 570 13 l 1
 570 -51 l 1
 90 -51 l 1
EndSplineSet
EndChar

StartChar: uni2AB4
Encoding: 91 10932 91
Width: 660
Flags: HW
HStem: -51 64<90 570> 129 64<90 570> 418 64<372.098 570>
LayerCount: 2
Fore
SplineSet
326 450 m 1
 237 479 155 527 90 597 c 1
 137 641 l 1
 239 531 388 482 538 482 c 2
 570 482 l 1
 570 418 l 1
 538 418 l 2
 388 418 239 369 137 259 c 1
 90 303 l 1
 155 373 237 421 326 450 c 1
570 193 m 1
 570 129 l 1
 90 129 l 1
 90 193 l 1
 570 193 l 1
570 13 m 1
 570 -51 l 1
 90 -51 l 1
 90 13 l 1
 570 13 l 1
EndSplineSet
EndChar

StartChar: uni227E
Encoding: 92 8830 92
Width: 660
Flags: HW
HStem: 9 64<376.041 497.661> 99 64<162.339 284.551> 358 64<90 287.902>
LayerCount: 2
Fore
SplineSet
334 390 m 1
 423 361 505 313 570 243 c 1
 523 199 l 1
 421 309 272 358 122 358 c 2
 90 358 l 1
 90 422 l 1
 122 422 l 2
 272 422 421 471 523 581 c 1
 570 537 l 1
 505 467 423 419 334 390 c 1
439 9 m 0
 338 9 298 99 221 99 c 0
 183 99 154 73 126 47 c 1
 90 86 l 1
 128 122 168 163 221 163 c 0
 323 163 363 73 439 73 c 0
 477 73 506 100 534 125 c 1
 570 86 l 1
 532 50 492 9 439 9 c 0
EndSplineSet
EndChar

StartChar: uni227F
Encoding: 93 8831 93
Width: 660
Flags: HW
HStem: 9 64<376.041 497.661> 99 64<162.339 284.551> 358 64<372.098 570>
LayerCount: 2
Fore
SplineSet
326 390 m 1
 237 419 155 467 90 537 c 1
 137 581 l 1
 239 471 388 422 538 422 c 2
 570 422 l 1
 570 358 l 1
 538 358 l 2
 388 358 239 309 137 199 c 1
 90 243 l 1
 155 313 237 361 326 390 c 1
439 9 m 0
 338 9 298 99 221 99 c 0
 183 99 154 73 126 47 c 1
 90 86 l 1
 128 122 168 163 221 163 c 0
 323 163 363 73 439 73 c 0
 477 73 506 100 534 125 c 1
 570 86 l 1
 532 50 492 9 439 9 c 0
EndSplineSet
EndChar

StartChar: uni2AB7
Encoding: 94 10935 94
Width: 660
Flags: HW
HStem: -81 64<376.041 497.661> 9 64<162.339 284.551> 99 64<376.041 497.661> 189 64<162.339 284.551> 448 64<90 287.902>
LayerCount: 2
Fore
SplineSet
334 480 m 1
 423 451 505 403 570 333 c 1
 523 289 l 1
 421 399 272 448 122 448 c 2
 90 448 l 1
 90 512 l 1
 122 512 l 2
 272 512 421 561 523 671 c 1
 570 627 l 1
 505 557 423 509 334 480 c 1
439 99 m 0
 338 99 298 189 221 189 c 0
 183 189 154 163 126 137 c 1
 90 176 l 1
 128 212 168 253 221 253 c 0
 323 253 363 163 439 163 c 0
 477 163 506 190 534 215 c 1
 570 176 l 1
 532 140 492 99 439 99 c 0
439 -81 m 0
 338 -81 298 9 221 9 c 0
 183 9 154 -17 126 -43 c 1
 90 -4 l 1
 128 32 168 73 221 73 c 0
 323 73 363 -17 439 -17 c 0
 477 -17 506 10 534 35 c 1
 570 -4 l 1
 532 -40 492 -81 439 -81 c 0
EndSplineSet
EndChar

StartChar: uni2AB8
Encoding: 95 10936 95
Width: 660
Flags: HW
HStem: -81 64<376.041 497.661> 9 64<162.339 284.551> 99 64<376.041 497.661> 189 64<162.339 284.551> 448 64<372.098 570>
LayerCount: 2
Fore
SplineSet
326 480 m 1
 237 509 155 557 90 627 c 1
 137 671 l 1
 239 561 388 512 538 512 c 2
 570 512 l 1
 570 448 l 1
 538 448 l 2
 388 448 239 399 137 289 c 1
 90 333 l 1
 155 403 237 451 326 480 c 1
439 99 m 0
 338 99 298 189 221 189 c 0
 183 189 154 163 126 137 c 1
 90 176 l 1
 128 212 168 253 221 253 c 0
 323 253 363 163 439 163 c 0
 477 163 506 190 534 215 c 1
 570 176 l 1
 532 140 492 99 439 99 c 0
439 -81 m 0
 338 -81 298 9 221 9 c 0
 183 9 154 -17 126 -43 c 1
 90 -4 l 1
 128 32 168 73 221 73 c 0
 323 73 363 -17 439 -17 c 0
 477 -17 506 10 534 35 c 1
 570 -4 l 1
 532 -40 492 -81 439 -81 c 0
EndSplineSet
EndChar

StartChar: uni22D6
Encoding: 96 8918 96
Width: 660
Flags: HW
HStem: 244 112<479.625 548> 526 20G<501.088 551.175>
VStem: 458 112<266.744 333.256>
LayerCount: 2
Fore
SplineSet
541 546 m 1
 570 489 l 1
 193 300 l 1
 570 111 l 1
 541 54 l 1
 90 280 l 1
 90 320 l 1
 541 546 l 1
514 356 m 0
 530 356 570 317 570 300 c 0
 570 283 530 244 514 244 c 0
 497 244 458 283 458 300 c 0
 458 317 497 356 514 356 c 0
EndSplineSet
EndChar

StartChar: uni22D7
Encoding: 97 8919 97
Width: 660
Flags: HW
HStem: 244 112<112.375 179.732> 526 20G<108.825 158.912>
VStem: 90 113<267.131 332.869>
LayerCount: 2
Fore
SplineSet
119 54 m 1
 90 111 l 1
 467 300 l 1
 90 489 l 1
 119 546 l 1
 570 320 l 1
 570 280 l 1
 119 54 l 1
146 356 m 0
 163 356 203 316 203 300 c 0
 203 284 163 244 146 244 c 0
 131 244 90 283 90 300 c 0
 90 317 131 356 146 356 c 0
EndSplineSet
EndChar

StartChar: sym025
Encoding: 98 -1 98
Width: 660
Flags: HW
HStem: 39 64<90 570> 304 112<479.625 548> 534 20G<493.86 554.797>
VStem: 458 112<326.744 393.256>
LayerCount: 2
Fore
SplineSet
547 554 m 1
 570 495 l 1
 213 360 l 1
 570 225 l 1
 547 166 l 1
 90 338 l 1
 90 382 l 1
 547 554 l 1
514 416 m 0
 530 416 570 377 570 360 c 0
 570 343 530 304 514 304 c 0
 497 304 458 343 458 360 c 0
 458 377 497 416 514 416 c 0
90 39 m 1
 90 103 l 1
 570 103 l 1
 570 39 l 1
 90 39 l 1
EndSplineSet
EndChar

StartChar: sym026
Encoding: 99 -1 99
Width: 660
Flags: HW
HStem: 39 64<90 570> 304 112<112.375 179.732> 534 20G<105.203 166.14>
VStem: 90 113<327.131 392.869>
LayerCount: 2
Fore
SplineSet
113 166 m 1
 90 225 l 1
 447 360 l 1
 90 495 l 1
 113 554 l 1
 570 382 l 1
 570 338 l 1
 113 166 l 1
146 416 m 0
 163 416 203 376 203 360 c 0
 203 344 163 304 146 304 c 0
 131 304 90 343 90 360 c 0
 90 377 131 416 146 416 c 0
570 103 m 1
 570 39 l 1
 90 39 l 1
 90 103 l 1
 570 103 l 1
EndSplineSet
EndChar

StartChar: uni2A7F
Encoding: 100 10879 100
Width: 660
Flags: HW
HStem: 334 112<479.625 548>
VStem: 458 112<356.744 423.256>
LayerCount: 2
Fore
SplineSet
547 584 m 1
 570 525 l 1
 213 390 l 1
 570 255 l 1
 547 196 l 1
 90 368 l 1
 90 412 l 1
 547 584 l 1
514 446 m 0
 530 446 570 407 570 390 c 0
 570 373 530 334 514 334 c 0
 497 334 458 373 458 390 c 0
 458 407 497 446 514 446 c 0
570 75 m 1
 547 16 l 1
 90 188 l 1
 113 248 l 1
 570 75 l 1
EndSplineSet
EndChar

StartChar: uni2A80
Encoding: 101 10880 101
Width: 660
Flags: HW
HStem: 334 112<112.375 179.732>
VStem: 90 113<357.131 422.869>
LayerCount: 2
Fore
SplineSet
113 196 m 1
 90 255 l 1
 447 390 l 1
 90 525 l 1
 113 584 l 1
 570 412 l 1
 570 368 l 1
 113 196 l 1
146 446 m 0
 163 446 203 406 203 390 c 0
 203 374 163 334 146 334 c 0
 131 334 90 373 90 390 c 0
 90 407 131 446 146 446 c 0
113 16 m 1
 90 75 l 1
 547 248 l 1
 570 188 l 1
 113 16 l 1
EndSplineSet
EndChar

StartChar: uni2A95
Encoding: 102 10901 102
Width: 660
Flags: HW
LayerCount: 2
Fore
SplineSet
547 404 m 1
 570 345 l 1
 213 210 l 1
 570 75 l 1
 547 16 l 1
 90 188 l 1
 90 232 l 1
 547 404 l 1
547 584 m 1
 570 525 l 1
 113 352 l 1
 90 412 l 1
 547 584 l 1
EndSplineSet
EndChar

StartChar: uni2A96
Encoding: 103 10902 103
Width: 660
Flags: HW
LayerCount: 2
Fore
SplineSet
113 16 m 1
 90 75 l 1
 447 210 l 1
 90 345 l 1
 113 404 l 1
 570 232 l 1
 570 188 l 1
 113 16 l 1
90 525 m 1
 113 584 l 1
 570 412 l 1
 547 352 l 1
 90 525 l 1
EndSplineSet
EndChar

StartChar: uni22DE
Encoding: 104 8926 104
Width: 660
Flags: HW
HStem: 178 64<90 287.902> 358 64<90 267.904>
LayerCount: 2
Fore
SplineSet
334 210 m 1
 423 181 505 133 570 63 c 1
 523 19 l 1
 421 129 272 178 122 178 c 2
 90 178 l 1
 90 242 l 1
 122 242 l 2
 272 242 421 291 523 401 c 1
 570 357 l 1
 505 287 423 239 334 210 c 1
90 422 m 1
 154 422 l 2
 277 422 381 491 472 577 c 1
 518 533 l 1
 414 436 295 358 154 358 c 2
 90 358 l 1
 90 422 l 1
EndSplineSet
EndChar

StartChar: uni22DF
Encoding: 105 8927 105
Width: 660
Flags: HW
HStem: 178 64<372.098 570> 358 64<392.096 570>
LayerCount: 2
Fore
SplineSet
326 210 m 1
 237 239 155 287 90 357 c 1
 137 401 l 1
 239 291 388 242 538 242 c 2
 570 242 l 1
 570 178 l 1
 538 178 l 2
 388 178 239 129 137 19 c 1
 90 63 l 1
 155 133 237 181 326 210 c 1
570 422 m 1
 570 358 l 1
 506 358 l 2
 365 358 246 436 142 533 c 1
 188 577 l 1
 279 491 383 422 506 422 c 2
 570 422 l 1
EndSplineSet
EndChar

StartChar: notequal
Encoding: 106 8800 106
Width: 660
Flags: HW
HStem: -5 21G<222 283.355> 178 64<90 267 344 570> 358 64<90 316 393 570>
LayerCount: 2
Fore
SplineSet
382 605 m 1
 438 590 l 1
 393 422 l 1
 570 422 l 1
 570 358 l 1
 376 358 l 1
 344 242 l 1
 570 242 l 1
 570 178 l 1
 327 178 l 1
 278 -5 l 1
 222 10 l 1
 267 178 l 1
 90 178 l 1
 90 242 l 1
 284 242 l 1
 316 358 l 1
 90 358 l 1
 90 422 l 1
 333 422 l 1
 382 605 l 1
EndSplineSet
EndChar

StartChar: uni2262
Encoding: 107 8802 107
Width: 660
Flags: HW
HStem: 88 64<90 243 320 570> 268 64<90 291 369 570> 448 64<90 340 417 570>
CounterMasks: 1 e0
LayerCount: 2
Fore
SplineSet
394 650 m 1
 450 635 l 1
 417 512 l 1
 570 512 l 1
 570 448 l 1
 400 448 l 1
 369 332 l 1
 570 332 l 1
 570 268 l 1
 351 268 l 1
 320 152 l 1
 570 152 l 1
 570 88 l 1
 303 88 l 1
 266 -50 l 1
 210 -35 l 1
 243 88 l 1
 90 88 l 1
 90 152 l 1
 260 152 l 1
 291 268 l 1
 90 268 l 1
 90 332 l 1
 309 332 l 1
 340 448 l 1
 90 448 l 1
 90 512 l 1
 357 512 l 1
 394 650 l 1
EndSplineSet
EndChar

StartChar: uni2241
Encoding: 108 8769 108
Width: 660
Flags: HW
HStem: 223 64<373.483 497.661> 313 64<162.339 286.517>
LayerCount: 2
Fore
SplineSet
370 560 m 1
 426 545 l 1
 364 315 l 1
 387 299 412 287 439 287 c 0
 477 287 506 313 534 339 c 1
 570 300 l 1
 532 264 492 223 439 223 c 0
 406 223 376 234 347 250 c 1
 290 40 l 1
 234 55 l 1
 296 285 l 1
 273 301 248 313 221 313 c 0
 183 313 154 287 126 261 c 1
 90 300 l 1
 128 336 168 377 221 377 c 0
 254 377 284 366 313 350 c 1
 370 560 l 1
EndSplineSet
EndChar

StartChar: uni223D0338
Encoding: 109 -1 109
Width: 660
Flags: HW
HStem: 223 64<162.339 282.395> 313 64<377.605 497.661>
LayerCount: 2
Fore
SplineSet
370 560 m 1
 426 545 l 1
 377 365 l 1
 397 373 418 377 439 377 c 0
 492 377 532 336 570 300 c 1
 534 261 l 1
 506 287 477 313 439 313 c 0
 408 313 379 297 354 278 c 1
 290 40 l 1
 234 55 l 1
 283 235 l 1
 263 227 242 223 221 223 c 0
 168 223 128 264 90 300 c 1
 126 339 l 1
 154 313 183 287 221 287 c 0
 252 287 281 303 306 322 c 1
 370 560 l 1
EndSplineSet
EndChar

StartChar: uni2249
Encoding: 110 8777 110
Width: 660
Flags: HW
HStem: -5 21G<222 283.393> 133 64<374.547 497.661> 223 64<162.339 274.461> 313 64<385.539 497.661> 403 64<162.339 285.453>
LayerCount: 2
Fore
SplineSet
316 360 m 1
 289 380 259 403 221 403 c 0
 183 403 154 377 126 351 c 1
 90 390 l 1
 128 426 168 467 221 467 c 0
 262 467 300 451 334 427 c 1
 382 605 l 1
 438 590 l 1
 385 392 l 1
 402 383 420 377 439 377 c 0
 477 377 506 403 534 429 c 1
 570 390 l 1
 532 354 492 313 439 313 c 0
 414 313 391 319 368 329 c 1
 344 240 l 1
 371 220 401 197 439 197 c 0
 477 197 506 223 534 249 c 1
 570 210 l 1
 532 174 492 133 439 133 c 0
 398 133 360 149 326 173 c 1
 278 -5 l 1
 222 10 l 1
 275 208 l 1
 258 217 240 223 221 223 c 0
 183 223 154 197 126 171 c 1
 90 210 l 1
 128 246 168 287 221 287 c 0
 246 287 269 281 292 271 c 1
 316 360 l 1
EndSplineSet
EndChar

StartChar: uni224B0338
Encoding: 111 58044 111
Width: 660
Flags: HW
HStem: 43 64<373.806 497.661> 133 64<162.339 253.495> 223 64<373.483 497.661> 313 64<162.339 286.517> 403 64<406.505 497.661> 493 64<162.339 286.194>
LayerCount: 2
Fore
SplineSet
221 557 m 0
 280 557 323 525 354 502 c 1
 394 650 l 1
 450 635 l 1
 406 473 l 1
 416 469 428 467 439 467 c 0
 477 467 506 493 534 519 c 1
 570 480 l 1
 532 444 492 403 439 403 c 0
 422 403 406 406 390 411 c 1
 364 315 l 1
 387 299 412 287 439 287 c 0
 477 287 506 313 534 339 c 1
 570 300 l 1
 532 264 492 223 439 223 c 0
 406 223 376 234 347 250 c 1
 323 164 l 1
 332 158 341 152 350 145 c 0
 376 125 406 107 439 107 c 0
 477 107 506 133 534 159 c 1
 570 120 l 1
 532 84 492 43 439 43 c 0
 380 43 337 75 306 98 c 1
 266 -50 l 1
 210 -35 l 1
 254 127 l 1
 244 131 232 133 221 133 c 0
 183 133 154 107 126 81 c 1
 90 120 l 1
 128 156 168 197 221 197 c 0
 238 197 254 194 270 189 c 1
 296 285 l 1
 273 301 248 313 221 313 c 0
 183 313 154 287 126 261 c 1
 90 300 l 1
 128 336 168 377 221 377 c 0
 254 377 284 366 313 350 c 1
 337 436 l 1
 328 442 319 448 310 455 c 0
 284 475 254 493 221 493 c 0
 183 493 154 467 126 441 c 1
 90 480 l 1
 128 516 168 557 221 557 c 0
EndSplineSet
EndChar

StartChar: uni2244
Encoding: 112 8772 112
Width: 660
Flags: HW
HStem: -5 21G<222 283.355> 178 64<90 267 344 570> 313 64<385.539 497.661> 403 64<162.339 285.453>
LayerCount: 2
Fore
SplineSet
316 360 m 1
 289 380 259 403 221 403 c 0
 183 403 154 377 126 351 c 1
 90 390 l 1
 128 426 168 467 221 467 c 0
 262 467 300 451 334 427 c 1
 382 605 l 1
 438 590 l 1
 385 392 l 1
 402 383 420 377 439 377 c 0
 477 377 506 403 534 429 c 1
 570 390 l 1
 532 354 492 313 439 313 c 0
 414 313 391 319 368 329 c 1
 344 242 l 1
 570 242 l 1
 570 178 l 1
 327 178 l 1
 278 -5 l 1
 222 10 l 1
 267 178 l 1
 90 178 l 1
 90 242 l 1
 284 242 l 1
 316 360 l 1
EndSplineSet
EndChar

StartChar: uni22CD0338
Encoding: 113 -1 113
Width: 660
Flags: HW
HStem: -5 21G<222 283.355> 178 64<90 267 344 570> 313 64<162.339 286.529> 403 64<404.579 497.661>
LayerCount: 2
Fore
SplineSet
382 605 m 1
 438 590 l 1
 404 463 l 1
 415 466 427 467 439 467 c 0
 492 467 532 426 570 390 c 1
 534 351 l 1
 506 377 477 403 439 403 c 0
 419 403 400 396 383 387 c 1
 344 242 l 1
 570 242 l 1
 570 178 l 1
 327 178 l 1
 278 -5 l 1
 222 10 l 1
 267 178 l 1
 90 178 l 1
 90 242 l 1
 284 242 l 1
 310 338 l 1
 282 323 252 313 221 313 c 0
 168 313 128 354 90 390 c 1
 126 429 l 1
 154 403 183 377 221 377 c 0
 254 377 284 395 310 415 c 0
 318 422 327 427 336 433 c 1
 382 605 l 1
EndSplineSet
EndChar

StartChar: uni22420338
Encoding: 114 59470 114
Width: 660
Flags: HW
HStem: -5 21G<222 283.393> 133 64<374.547 497.661> 223 64<162.339 274.461> 358 64<90 316 393 570>
LayerCount: 2
Fore
SplineSet
344 240 m 1
 371 220 401 197 439 197 c 0
 477 197 506 223 534 249 c 1
 570 210 l 1
 532 174 492 133 439 133 c 0
 398 133 360 149 326 173 c 1
 278 -5 l 1
 222 10 l 1
 275 208 l 1
 258 217 240 223 221 223 c 0
 183 223 154 197 126 171 c 1
 90 210 l 1
 128 246 168 287 221 287 c 0
 246 287 269 281 292 271 c 1
 316 358 l 1
 90 358 l 1
 90 422 l 1
 333 422 l 1
 382 605 l 1
 438 590 l 1
 393 422 l 1
 570 422 l 1
 570 358 l 1
 376 358 l 1
 344 240 l 1
EndSplineSet
EndChar

StartChar: uni2247
Encoding: 115 8775 115
Width: 660
Flags: HW
HStem: 88 64<90 243 320 570> 268 64<90 291 369 570> 403 64<406.505 497.661> 493 64<162.339 286.194>
LayerCount: 2
Fore
SplineSet
221 557 m 0
 280 557 323 525 354 502 c 1
 394 650 l 1
 450 635 l 1
 406 473 l 1
 416 469 428 467 439 467 c 0
 477 467 506 493 534 519 c 1
 570 480 l 1
 532 444 492 403 439 403 c 0
 422 403 406 406 390 411 c 1
 369 332 l 1
 570 332 l 1
 570 268 l 1
 351 268 l 1
 320 152 l 1
 570 152 l 1
 570 88 l 1
 303 88 l 1
 266 -50 l 1
 210 -35 l 1
 243 88 l 1
 90 88 l 1
 90 152 l 1
 260 152 l 1
 291 268 l 1
 90 268 l 1
 90 332 l 1
 309 332 l 1
 337 436 l 1
 328 442 319 448 310 455 c 0
 284 475 254 493 221 493 c 0
 183 493 154 467 126 441 c 1
 90 480 l 1
 128 516 168 557 221 557 c 0
EndSplineSet
EndChar

StartChar: uni224C0338
Encoding: 116 -1 116
Width: 660
Flags: HW
HStem: 88 64<90 243 320 570> 268 64<90 291 369 570> 403 64<162.339 285.521> 493 64<429.001 497.428>
LayerCount: 2
Fore
SplineSet
394 650 m 1
 450 635 l 1
 429 557 l 1
 432 557 436 557 439 557 c 0
 492 557 532 516 570 480 c 1
 534 441 l 1
 506 467 477 493 439 493 c 0
 429 493 420 492 411 489 c 1
 369 332 l 1
 570 332 l 1
 570 268 l 1
 351 268 l 1
 320 152 l 1
 570 152 l 1
 570 88 l 1
 303 88 l 1
 266 -50 l 1
 210 -35 l 1
 243 88 l 1
 90 88 l 1
 90 152 l 1
 260 152 l 1
 291 268 l 1
 90 268 l 1
 90 332 l 1
 309 332 l 1
 339 447 l 1
 303 421 264 403 221 403 c 0
 168 403 128 444 90 480 c 1
 126 519 l 1
 154 493 183 467 221 467 c 0
 278 467 308 513 364 539 c 1
 394 650 l 1
EndSplineSet
EndChar

StartChar: uni224A0338
Encoding: 117 -1 117
Width: 660
Flags: HW
HStem: 88 64<90 243 320 570> 223 64<373.483 497.661> 313 64<162.339 286.517> 403 64<406.505 497.661> 493 64<162.339 286.194>
LayerCount: 2
Fore
SplineSet
221 557 m 0
 280 557 323 525 354 502 c 1
 394 650 l 1
 450 635 l 1
 406 473 l 1
 416 469 428 467 439 467 c 0
 477 467 506 493 534 519 c 1
 570 480 l 1
 532 444 492 403 439 403 c 0
 422 403 406 406 390 411 c 1
 364 315 l 1
 387 299 412 287 439 287 c 0
 477 287 506 313 534 339 c 1
 570 300 l 1
 532 264 492 223 439 223 c 0
 406 223 376 234 347 250 c 1
 320 152 l 1
 570 152 l 1
 570 88 l 1
 303 88 l 1
 266 -50 l 1
 210 -35 l 1
 243 88 l 1
 90 88 l 1
 90 152 l 1
 260 152 l 1
 296 285 l 1
 273 301 248 313 221 313 c 0
 183 313 154 287 126 261 c 1
 90 300 l 1
 128 336 168 377 221 377 c 0
 254 377 284 366 313 350 c 1
 337 436 l 1
 328 442 319 448 310 455 c 0
 284 475 254 493 221 493 c 0
 183 493 154 467 126 441 c 1
 90 480 l 1
 128 516 168 557 221 557 c 0
EndSplineSet
EndChar

StartChar: uni224F0338
Encoding: 118 59469 118
Width: 660
Flags: HW
HStem: -5 21G<222 283.355> 178 64<90 267 344 570> 358 64<90 212.887 446.24 570> 454 64<282.537 341>
LayerCount: 2
Fore
SplineSet
382 605 m 1
 438 590 l 1
 411 489 l 1
 432 472 447 449 454 422 c 1
 570 422 l 1
 570 358 l 1
 394 358 l 1
 394 390 l 2
 394 398 393 405 390 412 c 1
 344 242 l 1
 570 242 l 1
 570 178 l 1
 327 178 l 1
 278 -5 l 1
 222 10 l 1
 267 178 l 1
 90 178 l 1
 90 242 l 1
 284 242 l 1
 341 453 l 1
 337 454 334 454 330 454 c 0
 295 454 266 425 266 390 c 2
 266 358 l 1
 90 358 l 1
 90 422 l 1
 206 422 l 1
 220 477 270 518 330 518 c 0
 340 518 349 517 358 515 c 1
 382 605 l 1
EndSplineSet
EndChar

StartChar: uni2AAE0338
Encoding: 119 -1 119
Width: 660
Flags: HW
HStem: 88 64<90 243 320 570> 268 64<90 291 369 570> 448 64<90 212.887 446.07 570> 544 64<282.537 362.432>
LayerCount: 2
Fore
SplineSet
394 650 m 1
 450 635 l 1
 430 560 l 1
 441 546 449 530 454 512 c 1
 570 512 l 1
 570 448 l 1
 400 448 l 1
 369 332 l 1
 570 332 l 1
 570 268 l 1
 351 268 l 1
 320 152 l 1
 570 152 l 1
 570 88 l 1
 303 88 l 1
 266 -50 l 1
 210 -35 l 1
 243 88 l 1
 90 88 l 1
 90 152 l 1
 260 152 l 1
 291 268 l 1
 90 268 l 1
 90 332 l 1
 309 332 l 1
 363 535 l 1
 353 541 342 544 330 544 c 0
 295 544 266 515 266 480 c 2
 266 448 l 1
 90 448 l 1
 90 512 l 1
 206 512 l 1
 220 567 270 608 330 608 c 0
 348 608 365 604 380 598 c 1
 394 650 l 1
EndSplineSet
EndChar

StartChar: uni224E0338
Encoding: 120 58902 120
Width: 660
Flags: HW
HStem: 82 64<319 377.463> 178 64<90 213.76 447.113 570> 358 64<90 212.887 446.24 570> 454 64<282.537 341>
VStem: 90 176<188.328 242 358 421.703> 394 176<178.297 242 358 411.672>
LayerCount: 2
Fore
SplineSet
394 650 m 1
 450 635 l 1
 411 489 l 1
 432 472 447 449 454 422 c 1
 570 422 l 1
 570 358 l 1
 394 358 l 1
 394 390 l 2
 394 398 393 405 390 412 c 1
 319 147 l 1
 323 146 326 146 330 146 c 0
 365 146 394 175 394 210 c 2
 394 242 l 1
 570 242 l 1
 570 178 l 1
 454 178 l 1
 440 123 390 82 330 82 c 0
 320 82 311 83 302 85 c 1
 266 -50 l 1
 210 -35 l 1
 249 111 l 1
 228 128 213 151 206 178 c 1
 90 178 l 1
 90 242 l 1
 266 242 l 1
 266 210 l 2
 266 202 267 195 270 188 c 1
 341 453 l 1
 337 454 334 454 330 454 c 0
 295 454 266 425 266 390 c 2
 266 358 l 1
 90 358 l 1
 90 422 l 1
 206 422 l 1
 220 477 270 518 330 518 c 0
 340 518 349 517 358 515 c 1
 394 650 l 1
EndSplineSet
EndChar

StartChar: uni22500338
Encoding: 121 58250 121
Width: 660
Flags: HW
HStem: 178 64<90 267 344 570> 358 64<90 316 393 570> 514 112<295.625 362.53>
LayerCount: 2
Fore
SplineSet
330 626 m 0
 348 626 378 589 378 589 c 1
 394 650 l 1
 450 635 l 1
 393 422 l 1
 570 422 l 1
 570 358 l 1
 376 358 l 1
 344 242 l 1
 570 242 l 1
 570 178 l 1
 327 178 l 1
 266 -50 l 1
 210 -35 l 1
 267 178 l 1
 90 178 l 1
 90 242 l 1
 284 242 l 1
 316 358 l 1
 90 358 l 1
 90 422 l 1
 333 422 l 1
 363 535 l 1
 353 525 341 514 330 514 c 0
 313 514 274 553 274 570 c 0
 274 587 313 626 330 626 c 0
EndSplineSet
EndChar

StartChar: uni2A660338
Encoding: 122 -1 122
Width: 660
Flags: HW
HStem: -26 112<297.47 364.375> 178 64<90 267 344 570> 358 64<90 316 393 570>
LayerCount: 2
Fore
SplineSet
330 -26 m 0
 312 -26 282 11 282 11 c 1
 266 -50 l 1
 210 -35 l 1
 267 178 l 1
 90 178 l 1
 90 242 l 1
 284 242 l 1
 316 358 l 1
 90 358 l 1
 90 422 l 1
 333 422 l 1
 394 650 l 1
 450 635 l 1
 393 422 l 1
 570 422 l 1
 570 358 l 1
 376 358 l 1
 344 242 l 1
 570 242 l 1
 570 178 l 1
 327 178 l 1
 297 65 l 1
 307 75 319 86 330 86 c 0
 347 86 386 47 386 30 c 0
 386 13 347 -26 330 -26 c 0
EndSplineSet
EndChar

StartChar: uni22510338
Encoding: 123 -1 123
Width: 660
Flags: HW
HStem: -26 112<297.47 364.375> 178 64<90 267 344 570> 358 64<90 316 393 570> 514 112<295.625 362.53>
LayerCount: 2
Fore
SplineSet
330 626 m 0
 348 626 378 589 378 589 c 1
 394 650 l 1
 450 635 l 1
 393 422 l 1
 570 422 l 1
 570 358 l 1
 376 358 l 1
 344 242 l 1
 570 242 l 1
 570 178 l 1
 327 178 l 1
 297 65 l 1
 307 75 319 86 330 86 c 0
 347 86 386 47 386 30 c 0
 386 13 347 -26 330 -26 c 0
 312 -26 282 11 282 11 c 1
 266 -50 l 1
 210 -35 l 1
 267 178 l 1
 90 178 l 1
 90 242 l 1
 284 242 l 1
 316 358 l 1
 90 358 l 1
 90 422 l 1
 333 422 l 1
 363 535 l 1
 353 525 341 514 330 514 c 0
 313 514 274 553 274 570 c 0
 274 587 313 626 330 626 c 0
EndSplineSet
EndChar

StartChar: uni22520338
Encoding: 124 -1 124
Width: 660
Flags: HW
HStem: -26 112<479.625 548> 178 64<90 267 344 570> 358 64<90 316 393 570> 514 112<112.375 179.732>
VStem: 90 113<537.131 602.869> 458 112<-3.25573 63.2557>
LayerCount: 2
Fore
SplineSet
146 626 m 0
 163 626 203 586 203 570 c 0
 203 554 163 514 146 514 c 0
 131 514 90 553 90 570 c 0
 90 587 131 626 146 626 c 0
514 86 m 0
 530 86 570 47 570 30 c 0
 570 13 530 -26 514 -26 c 0
 497 -26 458 13 458 30 c 0
 458 47 497 86 514 86 c 0
394 650 m 1
 450 635 l 1
 393 422 l 1
 570 422 l 1
 570 358 l 1
 376 358 l 1
 344 242 l 1
 570 242 l 1
 570 178 l 1
 327 178 l 1
 266 -50 l 1
 210 -35 l 1
 267 178 l 1
 90 178 l 1
 90 242 l 1
 284 242 l 1
 316 358 l 1
 90 358 l 1
 90 422 l 1
 333 422 l 1
 394 650 l 1
EndSplineSet
EndChar

StartChar: uni22530338
Encoding: 125 -1 125
Width: 660
Flags: HW
HStem: -26 112<112.375 179.732> 178 64<90 267 344 570> 358 64<90 316 393 570> 514 112<479.625 548>
VStem: 90 113<-2.86938 62.8694> 458 112<536.744 603.256>
LayerCount: 2
Fore
SplineSet
514 626 m 0
 530 626 570 587 570 570 c 0
 570 553 530 514 514 514 c 0
 497 514 458 553 458 570 c 0
 458 587 497 626 514 626 c 0
146 86 m 0
 163 86 203 46 203 30 c 0
 203 14 163 -26 146 -26 c 0
 131 -26 90 13 90 30 c 0
 90 47 131 86 146 86 c 0
394 650 m 1
 450 635 l 1
 393 422 l 1
 570 422 l 1
 570 358 l 1
 376 358 l 1
 344 242 l 1
 570 242 l 1
 570 178 l 1
 327 178 l 1
 266 -50 l 1
 210 -35 l 1
 267 178 l 1
 90 178 l 1
 90 242 l 1
 284 242 l 1
 316 358 l 1
 90 358 l 1
 90 422 l 1
 333 422 l 1
 394 650 l 1
EndSplineSet
EndChar

StartChar: uni23230338
Encoding: 126 -1 126
Width: 660
Flags: HW
HStem: 227 62<221.458 280 357 437.491>
LayerCount: 2
Fore
SplineSet
370 560 m 1
 426 545 l 1
 357 288 l 1
 420 295 480 324 526 368 c 1
 570 322 l 1
 507 262 426 225 339 223 c 1
 290 40 l 1
 234 55 l 1
 280 227 l 1
 209 238 143 272 90 322 c 1
 134 368 l 1
 179 326 236 297 297 289 c 1
 370 560 l 1
EndSplineSet
EndChar

StartChar: uni23220338
Encoding: 127 -1 127
Width: 660
Flags: HW
HStem: 312 65<222.956 303 380 435.37>
LayerCount: 2
Fore
SplineSet
370 560 m 1
 426 545 l 1
 380 373 l 1
 451 362 517 328 570 278 c 1
 526 232 l 1
 481 274 424 303 363 311 c 1
 290 40 l 1
 234 55 l 1
 303 312 l 1
 240 305 180 276 134 232 c 1
 90 278 l 1
 153 338 234 375 321 377 c 1
 370 560 l 1
EndSplineSet
EndChar

StartChar: uni226D
Encoding: 128 8813 128
Width: 660
Flags: HW
HStem: 193 63<348 434.99> 344 63<225.01 312>
LayerCount: 2
Fore
SplineSet
394 650 m 1
 450 635 l 1
 391 414 l 1
 441 426 488 452 526 488 c 1
 570 442 l 1
 515 390 446 356 372 346 c 1
 348 256 l 1
 431 251 509 216 570 158 c 1
 526 112 l 1
 473 162 404 193 331 193 c 1
 266 -50 l 1
 210 -35 l 1
 269 186 l 1
 219 174 172 148 134 112 c 1
 90 158 l 1
 145 210 214 244 288 254 c 1
 312 344 l 1
 229 349 151 384 90 442 c 1
 134 488 l 1
 187 438 256 407 329 407 c 1
 394 650 l 1
EndSplineSet
EndChar

StartChar: uni20500338
Encoding: 129 -1 129
Width: 660
Flags: HW
HStem: 103 64<324.156 432.286> 113 62<208.701 250> 425 62<410 451.299> 433 64<227.714 335.844>
LayerCount: 2
Fore
SplineSet
394 650 m 1x50
 450 635 l 1
 410 487 l 1
 470 472 525 441 570 398 c 1
 526 352 l 1
 489 387 443 413 394 425 c 1
 324 167 l 1
 326 167 328 167 330 167 c 0
 403 167 473 198 526 248 c 1
 570 202 l 1
 505 140 420 103 330 103 c 0xa0
 322 103 315 103 307 104 c 1
 266 -50 l 1
 210 -35 l 1
 250 113 l 1
 190 128 135 159 90 202 c 1
 134 248 l 1
 171 213 217 187 266 175 c 1
 336 433 l 1
 334 433 332 433 330 433 c 0
 257 433 187 402 134 352 c 1
 90 398 l 1
 155 460 240 497 330 497 c 0
 338 497 345 497 353 496 c 1
 394 650 l 1x50
EndSplineSet
EndChar

StartChar: sym020_uni0338
Encoding: 130 -1 130
Width: 660
Flags: HW
HStem: 88 64<90 243 320 570> 268 64<90 291 369 570> 403 64<226.547 328> 528 20G<114.87 160.5 509 545.13>
LayerCount: 2
Fore
SplineSet
394 650 m 1
 450 635 l 1
 408 479 l 1
 452 492 492 516 526 548 c 1
 570 502 l 1
 519 454 457 420 389 408 c 1
 369 332 l 1
 570 332 l 1
 570 268 l 1
 351 268 l 1
 320 152 l 1
 570 152 l 1
 570 88 l 1
 303 88 l 1
 266 -50 l 1
 210 -35 l 1
 243 88 l 1
 90 88 l 1
 90 152 l 1
 260 152 l 1
 291 268 l 1
 90 268 l 1
 90 332 l 1
 309 332 l 1
 328 403 l 1
 239 404 154 441 90 502 c 1
 134 548 l 1
 187 498 257 467 330 467 c 0
 335 467 340 467 345 467 c 1
 394 650 l 1
EndSplineSet
EndChar

StartChar: uni22580338
Encoding: 131 -1 131
Width: 660
Flags: HW
HStem: 88 64<90 243 320 570> 268 64<90 291 369 570> 493 64<226.107 352>
LayerCount: 2
Fore
SplineSet
394 650 m 1
 450 635 l 1
 425 543 l 1
 479 527 529 498 570 458 c 1
 526 412 l 1
 492 444 453 468 409 481 c 1
 369 332 l 1
 570 332 l 1
 570 268 l 1
 351 268 l 1
 320 152 l 1
 570 152 l 1
 570 88 l 1
 303 88 l 1
 266 -50 l 1
 210 -35 l 1
 243 88 l 1
 90 88 l 1
 90 152 l 1
 260 152 l 1
 291 268 l 1
 90 268 l 1
 90 332 l 1
 309 332 l 1
 352 492 l 1
 345 493 337 493 330 493 c 0
 257 493 187 462 134 412 c 1
 90 458 l 1
 155 520 240 557 330 557 c 0
 343 557 355 556 368 555 c 1
 394 650 l 1
EndSplineSet
EndChar

StartChar: uni22560338
Encoding: 132 -1 132
Width: 660
Flags: HW
HStem: -5 21G<222 283.355> 178 64<90 250 410 570> 358 64<90 250 410 570>
VStem: 231 48<267.551 341.301> 381 48<258.354 332.449>
LayerCount: 2
Fore
SplineSet
313 348 m 1
 311 347 279 336 279 300 c 0
 279 287 283 276 291 267 c 1
 313 348 l 1
347 252 m 1
 363 257 381 274 381 300 c 0
 381 313 377 324 369 333 c 1
 347 252 l 1
382 605 m 1
 438 590 l 1
 393 422 l 1
 570 422 l 1
 570 358 l 1
 410 358 l 1
 422 341 429 321 429 300 c 0
 429 279 422 259 410 242 c 1
 570 242 l 1
 570 178 l 1
 327 178 l 1
 278 -5 l 1
 222 10 l 1
 267 178 l 1
 90 178 l 1
 90 242 l 1
 250 242 l 1
 238 259 231 279 231 300 c 0
 231 321 238 341 250 358 c 1
 90 358 l 1
 90 422 l 1
 333 422 l 1
 382 605 l 1
EndSplineSet
EndChar

StartChar: uni22570338
Encoding: 133 -1 133
Width: 660
Flags: HW
HStem: -5 21G<198 259.355> 178 64<90 243 320 570> 358 64<90 291 369 570> 516 48<289.119 333.927> 666 48<288.787 368.527>
VStem: 231 48<573.787 656.213>
LayerCount: 2
Fore
SplineSet
279 615 m 0
 279 587 302 564 330 564 c 0
 336 564 342 565 347 567 c 1
 369 648 l 1
 365 653 353 666 330 666 c 0
 302 666 279 643 279 615 c 0
231 615 m 0
 231 670 275 714 330 714 c 0
 349 714 367 709 383 699 c 1
 406 785 l 1
 462 770 l 1
 426 638 l 1
 428 631 429 623 429 615 c 0
 429 590 420 566 402 547 c 1
 369 422 l 1
 570 422 l 1
 570 358 l 1
 351 358 l 1
 320 242 l 1
 570 242 l 1
 570 178 l 1
 303 178 l 1
 254 -5 l 1
 198 10 l 1
 243 178 l 1
 90 178 l 1
 90 242 l 1
 260 242 l 1
 291 358 l 1
 90 358 l 1
 90 422 l 1
 309 422 l 1
 334 516 l 1
 333 516 331 516 330 516 c 0
 275 516 231 560 231 615 c 0
EndSplineSet
EndChar

StartChar: uni22590338
Encoding: 134 -1 134
Width: 660
Flags: HW
HStem: -5 21G<198 259.355> 178 64<90 243 320 570> 358 64<90 291 369 570>
LayerCount: 2
Fore
SplineSet
406 785 m 1
 462 770 l 1
 428 642 l 1
 521 519 l 1
 470 480 l 1
 407 564 l 1
 369 422 l 1
 570 422 l 1
 570 358 l 1
 351 358 l 1
 320 242 l 1
 570 242 l 1
 570 178 l 1
 303 178 l 1
 254 -5 l 1
 198 10 l 1
 243 178 l 1
 90 178 l 1
 90 242 l 1
 260 242 l 1
 291 358 l 1
 90 358 l 1
 90 422 l 1
 309 422 l 1
 362 622 l 1
 330 665 l 1
 190 480 l 1
 139 519 l 1
 314 750 l 1
 346 750 l 1
 383 701 l 1
 406 785 l 1
EndSplineSet
EndChar

StartChar: uni225A0338
Encoding: 135 -1 135
Width: 660
Flags: HW
HStem: -5 21G<198 259.355> 178 64<90 243 320 570> 358 64<90 291 369 570>
LayerCount: 2
Fore
SplineSet
406 785 m 1
 462 770 l 1
 449 723 l 1
 470 750 l 1
 521 711 l 1
 405 558 l 1
 369 422 l 1
 570 422 l 1
 570 358 l 1
 351 358 l 1
 320 242 l 1
 570 242 l 1
 570 178 l 1
 303 178 l 1
 254 -5 l 1
 198 10 l 1
 243 178 l 1
 90 178 l 1
 90 242 l 1
 260 242 l 1
 291 358 l 1
 90 358 l 1
 90 422 l 1
 309 422 l 1
 324 480 l 1
 314 480 l 1
 139 711 l 1
 190 750 l 1
 330 565 l 1
 356 600 l 1
 406 785 l 1
EndSplineSet
EndChar

StartChar: uni225B0338
Encoding: 136 -1 136
Width: 660
Flags: HW
HStem: -5 21G<198 259.355> 178 64<90 243 320 570> 358 64<90 291 369 570>
LayerCount: 2
Fore
SplineSet
406 785 m 1
 462 770 l 1
 434 666 l 1
 483 665 l 1
 421 618 l 1
 404 553 l 1
 424 485 l 1
 392 508 l 1
 369 422 l 1
 570 422 l 1
 570 358 l 1
 351 358 l 1
 320 242 l 1
 570 242 l 1
 570 178 l 1
 303 178 l 1
 254 -5 l 1
 198 10 l 1
 243 178 l 1
 90 178 l 1
 90 242 l 1
 260 242 l 1
 291 358 l 1
 90 358 l 1
 90 422 l 1
 309 422 l 1
 341 543 l 1
 330 551 l 1
 236 485 l 1
 269 595 l 1
 177 665 l 1
 292 667 l 1
 330 776 l 1
 368 667 l 1
 374 667 l 1
 406 785 l 1
EndSplineSet
EndChar

StartChar: uni225C0338
Encoding: 137 -1 137
Width: 660
Flags: HW
HStem: -5 21G<198 259.355> 178 64<90 243 320 570> 358 64<90 291 369 570> 524 48<255 336>
LayerCount: 2
Fore
SplineSet
330 702 m 1
 255 572 l 1
 349 572 l 1
 367 638 l 1
 330 702 l 1
406 785 m 1
 462 770 l 1
 425 633 l 1
 488 524 l 1
 396 524 l 1
 369 422 l 1
 570 422 l 1
 570 358 l 1
 351 358 l 1
 320 242 l 1
 570 242 l 1
 570 178 l 1
 303 178 l 1
 254 -5 l 1
 198 10 l 1
 243 178 l 1
 90 178 l 1
 90 242 l 1
 260 242 l 1
 291 358 l 1
 90 358 l 1
 90 422 l 1
 309 422 l 1
 336 524 l 1
 172 524 l 1
 330 798 l 1
 384 704 l 1
 406 785 l 1
EndSplineSet
EndChar

StartChar: notelement
Encoding: 138 8713 138
Width: 660
Flags: HW
HStem: 43 64<308.156 570> 268 64<156 291 369 570> 493 64<235.645 352 429 570>
VStem: 90 66<198.947 268 332 402.784>
CounterMasks: 1 e0
LayerCount: 2
Fore
SplineSet
309 332 m 1
 352 493 l 1
 309 493 l 2
 225 493 167 419 156 332 c 1
 309 332 l 1
291 268 m 1
 156 268 l 1
 165 203 200 145 252 120 c 1
 291 268 l 1
406 695 m 1
 462 680 l 1
 429 557 l 1
 570 557 l 1
 570 493 l 1
 412 493 l 1
 369 332 l 1
 570 332 l 1
 570 268 l 1
 351 268 l 1
 308 107 l 1
 309 107 l 2
 570 107 l 1
 570 43 l 1
 309 43 l 2
 303 43 297 43 291 44 c 1
 254 -95 l 1
 198 -80 l 1
 235 57 l 1
 147 93 90 193 90 300 c 0
 90 435 180 557 309 557 c 2
 369 557 l 1
 406 695 l 1
EndSplineSet
EndChar

StartChar: uni220C
Encoding: 139 8716 139
Width: 660
Flags: HW
HStem: 43 64<90 231 308 424.355> 268 64<90 291 369 504> 493 64<90 351.844>
VStem: 504 66<197.216 268 332 401.053>
CounterMasks: 1 e0
LayerCount: 2
Fore
SplineSet
351 268 m 1
 308 107 l 1
 351 107 l 2
 435 107 493 181 504 268 c 1
 351 268 l 1
369 332 m 1
 504 332 l 1
 495 397 460 455 408 480 c 1
 369 332 l 1
406 695 m 1
 462 680 l 1
 425 543 l 1
 513 507 570 407 570 300 c 0
 570 165 480 43 351 43 c 2
 291 43 l 1
 254 -95 l 1
 198 -80 l 1
 231 43 l 1
 90 43 l 1
 90 107 l 1
 248 107 l 1
 291 268 l 1
 90 268 l 1
 90 332 l 1
 309 332 l 1
 352 493 l 1
 351 493 l 2
 90 493 l 1
 90 557 l 1
 351 557 l 2
 357 557 363 557 369 556 c 1
 406 695 l 1
EndSplineSet
EndChar

StartChar: uni226E
Encoding: 140 8814 140
Width: 660
Flags: HW
HStem: 526 20G<501.299 551.175>
LayerCount: 2
Fore
SplineSet
287 253 m 1
 317 362 l 1
 193 300 l 1
 287 253 l 1
394 650 m 1
 450 635 l 1
 408 479 l 1
 541 546 l 1
 570 489 l 1
 386 397 l 1
 340 226 l 1
 570 111 l 1
 541 54 l 1
 323 163 l 1
 266 -50 l 1
 210 -35 l 1
 270 190 l 1
 90 280 l 1
 90 320 l 1
 339 445 l 1
 394 650 l 1
EndSplineSet
EndChar

StartChar: uni226F
Encoding: 141 8815 141
Width: 660
Flags: HW
HStem: 526 20G<108.825 159>
LayerCount: 2
Fore
SplineSet
373 347 m 1
 343 238 l 1
 467 300 l 1
 373 347 l 1
394 650 m 1
 450 635 l 1
 390 410 l 1
 570 320 l 1
 570 280 l 1
 321 155 l 1
 266 -50 l 1
 210 -35 l 1
 252 121 l 1
 119 54 l 1
 90 111 l 1
 274 203 l 1
 320 374 l 1
 90 489 l 1
 119 546 l 1
 337 437 l 1
 394 650 l 1
EndSplineSet
EndChar

StartChar: uni2270
Encoding: 142 8816 142
Width: 660
Flags: HW
HStem: 39 64<90 230 307 570> 534 20G<494.2 554.797>
LayerCount: 2
Fore
SplineSet
307 325 m 1
 328 403 l 1
 213 360 l 1
 307 325 l 1
403 684 m 1
 459 669 l 1
 415 504 l 1
 547 554 l 1
 570 495 l 1
 395 429 l 1
 361 304 l 1
 570 225 l 1
 547 166 l 1
 345 242 l 1
 307 103 l 1
 570 103 l 1
 570 39 l 1
 290 39 l 1
 257 -84 l 1
 201 -69 l 1
 230 39 l 1
 90 39 l 1
 90 103 l 1
 247 103 l 1
 290 263 l 1
 90 338 l 1
 90 382 l 1
 348 479 l 1
 403 684 l 1
EndSplineSet
EndChar

StartChar: uni2271
Encoding: 143 8817 143
Width: 660
Flags: HW
HStem: 39 64<90 230 307 570> 534 20G<105.203 166.333>
LayerCount: 2
Fore
SplineSet
383 384 m 1
 368 330 l 1
 447 360 l 1
 383 384 l 1
403 684 m 1
 459 669 l 1
 399 446 l 1
 570 382 l 1
 570 338 l 1
 348 254 l 1
 307 103 l 1
 570 103 l 1
 570 39 l 1
 290 39 l 1
 257 -84 l 1
 201 -69 l 1
 230 39 l 1
 90 39 l 1
 90 103 l 1
 247 103 l 1
 281 229 l 1
 113 166 l 1
 90 225 l 1
 301 305 l 1
 328 405 l 1
 90 495 l 1
 113 554 l 1
 345 467 l 1
 403 684 l 1
EndSplineSet
EndChar

StartChar: uni2A7D0338
Encoding: 144 58023 144
Width: 660
Flags: HW
LayerCount: 2
Fore
SplineSet
314 352 m 1
 337 437 l 1
 213 390 l 1
 314 352 l 1
403 684 m 1
 459 669 l 1
 424 538 l 1
 547 584 l 1
 570 525 l 1
 403 462 l 1
 368 331 l 1
 570 255 l 1
 547 196 l 1
 352 269 l 1
 325 168 l 1
 570 75 l 1
 547 16 l 1
 308 106 l 1
 257 -84 l 1
 201 -69 l 1
 253 126 l 1
 90 188 l 1
 113 248 l 1
 270 189 l 1
 297 290 l 1
 90 368 l 1
 90 412 l 1
 357 512 l 1
 403 684 l 1
EndSplineSet
EndChar

StartChar: uni2A7E0338
Encoding: 145 58022 145
Width: 660
Flags: HW
LayerCount: 2
Fore
SplineSet
390 412 m 1
 377 364 l 1
 447 390 l 1
 390 412 l 1
403 684 m 1
 459 669 l 1
 407 474 l 1
 570 412 l 1
 570 368 l 1
 357 288 l 1
 323 163 l 1
 547 248 l 1
 570 188 l 1
 303 88 l 1
 257 -84 l 1
 201 -69 l 1
 236 62 l 1
 113 16 l 1
 90 75 l 1
 257 138 l 1
 290 263 l 1
 113 196 l 1
 90 255 l 1
 310 338 l 1
 335 432 l 1
 90 525 l 1
 113 584 l 1
 352 494 l 1
 403 684 l 1
EndSplineSet
EndChar

StartChar: uni22660338
Encoding: 146 58024 146
Width: 660
Flags: HW
HStem: -51 64<90 206 283 570> 129 64<90 254 331 570>
LayerCount: 2
Fore
SplineSet
328 406 m 1
 355 504 l 1
 213 450 l 1
 328 406 l 1
419 744 m 1
 475 729 l 1
 442 604 l 1
 547 644 l 1
 570 585 l 1
 421 529 l 1
 383 386 l 1
 570 315 l 1
 547 256 l 1
 366 324 l 1
 331 193 l 1
 570 193 l 1
 570 129 l 1
 314 129 l 1
 283 13 l 1
 570 13 l 1
 570 -51 l 1
 266 -51 l 1
 241 -144 l 1
 185 -129 l 1
 206 -51 l 1
 90 -51 l 1
 90 13 l 1
 223 13 l 1
 254 129 l 1
 90 129 l 1
 90 193 l 1
 271 193 l 1
 312 344 l 1
 90 428 l 1
 90 472 l 1
 375 579 l 1
 419 744 l 1
EndSplineSet
EndChar

StartChar: uni22670338
Encoding: 147 58021 147
Width: 660
Flags: HW
HStem: -51 64<90 206 283 570> 129 64<90 254 331 570>
LayerCount: 2
Fore
SplineSet
405 466 m 1
 395 430 l 1
 447 450 l 1
 405 466 l 1
419 744 m 1
 475 729 l 1
 421 528 l 1
 570 472 l 1
 570 428 l 1
 375 354 l 1
 331 193 l 1
 570 193 l 1
 570 129 l 1
 314 129 l 1
 283 13 l 1
 570 13 l 1
 570 -51 l 1
 266 -51 l 1
 241 -144 l 1
 185 -129 l 1
 206 -51 l 1
 90 -51 l 1
 90 13 l 1
 223 13 l 1
 254 129 l 1
 90 129 l 1
 90 193 l 1
 271 193 l 1
 308 329 l 1
 113 256 l 1
 90 315 l 1
 328 405 l 1
 350 487 l 1
 90 585 l 1
 113 644 l 1
 367 549 l 1
 419 744 l 1
EndSplineSet
EndChar

StartChar: uni2274
Encoding: 148 8820 148
Width: 660
Flags: HW
HStem: 9 64<373.704 497.661> 99 64<162.339 245>
LayerCount: 2
Fore
SplineSet
314 352 m 1
 337 437 l 1
 213 390 l 1
 314 352 l 1
439 9 m 0
 383 9 348 34 298 70 c 1
 257 -84 l 1
 201 -69 l 1
 245 96 l 1
 237 98 229 99 221 99 c 0
 183 99 154 73 126 47 c 1
 90 86 l 1
 128 122 168 163 221 163 c 0
 235 163 249 161 262 158 c 1
 297 290 l 1
 90 368 l 1
 90 412 l 1
 357 512 l 1
 403 684 l 1
 459 669 l 1
 424 538 l 1
 547 584 l 1
 570 525 l 1
 403 462 l 1
 368 331 l 1
 570 255 l 1
 547 196 l 1
 352 269 l 1
 316 135 l 1
 328 128 339 120 350 111 c 0
 376 91 406 73 439 73 c 0
 477 73 506 100 534 125 c 1
 570 86 l 1
 532 50 492 9 439 9 c 0
EndSplineSet
EndChar

StartChar: uni2275
Encoding: 149 8821 149
Width: 660
Flags: HW
HStem: 9 64<373.704 497.661> 99 64<162.339 245>
LayerCount: 2
Fore
SplineSet
390 412 m 1
 377 364 l 1
 447 390 l 1
 390 412 l 1
439 9 m 0
 383 9 348 34 298 70 c 1
 257 -84 l 1
 201 -69 l 1
 245 96 l 1
 237 98 229 99 221 99 c 0
 183 99 154 73 126 47 c 1
 90 86 l 1
 128 122 168 163 221 163 c 0
 235 163 249 161 262 158 c 1
 290 263 l 1
 113 196 l 1
 90 255 l 1
 310 338 l 1
 335 432 l 1
 90 525 l 1
 113 584 l 1
 352 494 l 1
 403 684 l 1
 459 669 l 1
 407 474 l 1
 570 412 l 1
 570 368 l 1
 357 288 l 1
 316 135 l 1
 328 128 339 120 350 111 c 0
 376 91 406 73 439 73 c 0
 477 73 506 100 534 125 c 1
 570 86 l 1
 532 50 492 9 439 9 c 0
EndSplineSet
EndChar

StartChar: uni2A850338
Encoding: 150 -1 150
Width: 660
Flags: HW
HStem: -81 64<375.181 497.661> 9 64<162.572 221.844> 99 64<373.234 497.661> 189 64<162.339 266.592>
LayerCount: 2
Fore
SplineSet
336 434 m 1
 364 537 l 1
 213 480 l 1
 336 434 l 1
295 56 m 1
 352 30 382 -17 439 -17 c 0
 477 -17 506 10 534 35 c 1
 570 -4 l 1
 532 -40 492 -81 439 -81 c 0
 392 -81 348 -58 310 -29 c 0
 300 -21 289 -13 278 -7 c 1
 245 -129 l 1
 189 -114 l 1
 222 9 l 1
 221 9 l 0
 183 9 154 -17 126 -43 c 1
 90 -4 l 1
 128 32 168 73 221 73 c 0
 227 73 233 73 239 72 c 1
 267 178 l 1
 252 185 237 189 221 189 c 0
 183 189 154 163 126 137 c 1
 90 176 l 1
 128 212 168 253 221 253 c 0
 243 253 264 248 284 240 c 1
 319 372 l 1
 90 458 l 1
 90 502 l 1
 384 613 l 1
 415 729 l 1
 471 714 l 1
 451 638 l 1
 547 674 l 1
 570 615 l 1
 430 562 l 1
 390 413 l 1
 570 345 l 1
 547 286 l 1
 374 351 l 1
 336 211 l 1
 341 208 345 205 350 201 c 0
 376 181 406 163 439 163 c 0
 477 163 506 190 534 215 c 1
 570 176 l 1
 532 140 492 99 439 99 c 0
 395 99 354 119 318 145 c 1
 295 56 l 1
EndSplineSet
EndChar

StartChar: uni2A860338
Encoding: 151 -1 151
Width: 660
Flags: HW
HStem: -81 64<375.181 497.661> 9 64<162.572 221.844> 99 64<373.234 497.661> 189 64<162.339 266.592>
LayerCount: 2
Fore
SplineSet
412 493 m 1
 404 464 l 1
 447 480 l 1
 412 493 l 1
295 56 m 1
 352 30 382 -17 439 -17 c 0
 477 -17 506 10 534 35 c 1
 570 -4 l 1
 532 -40 492 -81 439 -81 c 0
 392 -81 348 -58 310 -29 c 0
 300 -21 289 -13 278 -7 c 1
 245 -129 l 1
 189 -114 l 1
 222 9 l 1
 221 9 l 0
 183 9 154 -17 126 -43 c 1
 90 -4 l 1
 128 32 168 73 221 73 c 0
 227 73 233 73 239 72 c 1
 267 178 l 1
 252 185 237 189 221 189 c 0
 183 189 154 163 126 137 c 1
 90 176 l 1
 128 212 168 253 221 253 c 0
 243 253 264 248 284 240 c 1
 317 363 l 1
 113 286 l 1
 90 345 l 1
 337 438 l 1
 357 514 l 1
 90 615 l 1
 113 674 l 1
 374 576 l 1
 415 729 l 1
 471 714 l 1
 428 555 l 1
 570 502 l 1
 570 458 l 1
 384 388 l 1
 336 211 l 1
 341 208 345 205 350 201 c 0
 376 181 406 163 439 163 c 0
 477 163 506 190 534 215 c 1
 570 176 l 1
 532 140 492 99 439 99 c 0
 395 99 354 119 318 145 c 1
 295 56 l 1
EndSplineSet
EndChar

StartChar: uni2278
Encoding: 152 8824 152
Width: 660
Flags: HW
LayerCount: 2
Fore
SplineSet
335 428 m 1
 362 530 l 1
 213 474 l 1
 335 428 l 1
325 172 m 1
 298 70 l 1
 447 126 l 1
 325 172 l 1
426 768 m 1
 481 753 l 1
 449 632 l 1
 547 669 l 1
 570 609 l 1
 428 555 l 1
 389 408 l 1
 570 340 l 1
 547 280 l 1
 372 346 l 1
 342 234 l 1
 570 148 l 1
 570 103 l 1
 277 -7 l 1
 234 -168 l 1
 179 -153 l 1
 211 -32 l 1
 113 -69 l 1
 90 -9 l 1
 232 45 l 1
 271 192 l 1
 90 260 l 1
 113 320 l 1
 288 254 l 1
 318 366 l 1
 90 452 l 1
 90 497 l 1
 383 607 l 1
 426 768 l 1
EndSplineSet
EndChar

StartChar: uni2279
Encoding: 153 8825 153
Width: 660
Flags: HW
LayerCount: 2
Fore
SplineSet
410 488 m 1
 402 457 l 1
 447 474 l 1
 410 488 l 1
250 112 m 1
 258 143 l 1
 213 126 l 1
 250 112 l 1
414 723 m 1
 469 708 l 1
 427 551 l 1
 570 497 l 1
 570 452 l 1
 381 381 l 1
 344 244 l 1
 547 320 l 1
 570 260 l 1
 324 168 l 1
 304 92 l 1
 570 -9 l 1
 547 -69 l 1
 287 29 l 1
 246 -123 l 1
 191 -108 l 1
 233 49 l 1
 90 103 l 1
 90 148 l 1
 279 219 l 1
 316 356 l 1
 113 280 l 1
 90 340 l 1
 336 432 l 1
 356 508 l 1
 90 609 l 1
 113 669 l 1
 373 571 l 1
 414 723 l 1
EndSplineSet
EndChar

StartChar: uni22DA0338
Encoding: 154 -1 154
Width: 660
Flags: HW
HStem: 268 64<90 291 369 570>
LayerCount: 2
Fore
SplineSet
362 533 m 1
 396 658 l 1
 213 589 l 1
 362 533 l 1
298 67 m 1
 264 -58 l 1
 447 11 l 1
 298 67 l 1
456 883 m 1
 512 868 l 1
 483 759 l 1
 547 783 l 1
 570 723 l 1
 462 683 l 1
 417 512 l 1
 570 454 l 1
 547 394 l 1
 400 450 l 1
 369 332 l 1
 570 332 l 1
 570 268 l 1
 351 268 l 1
 314 130 l 1
 570 33 l 1
 570 -11 l 1
 244 -134 l 1
 204 -283 l 1
 148 -268 l 1
 177 -159 l 1
 113 -183 l 1
 90 -123 l 1
 198 -83 l 1
 243 88 l 1
 90 146 l 1
 113 206 l 1
 260 150 l 1
 291 268 l 1
 90 268 l 1
 90 332 l 1
 309 332 l 1
 346 470 l 1
 90 567 l 1
 90 611 l 1
 416 734 l 1
 456 883 l 1
EndSplineSet
EndChar

StartChar: uni22DB0338
Encoding: 155 -1 155
Width: 660
Flags: HW
HStem: 268 64<90 291 369 570>
LayerCount: 2
Fore
SplineSet
438 592 m 1
 436 585 l 1
 447 589 l 1
 438 592 l 1
222 8 m 1
 224 15 l 1
 213 11 l 1
 222 8 l 1
432 793 m 1
 488 778 l 1
 455 654 l 1
 570 611 l 1
 570 567 l 1
 416 509 l 1
 369 332 l 1
 570 332 l 1
 570 268 l 1
 351 268 l 1
 311 117 l 1
 547 206 l 1
 570 146 l 1
 290 40 l 1
 276 -13 l 1
 570 -123 l 1
 547 -183 l 1
 260 -75 l 1
 228 -193 l 1
 172 -178 l 1
 205 -54 l 1
 90 -11 l 1
 90 33 l 1
 244 91 l 1
 291 268 l 1
 90 268 l 1
 90 332 l 1
 309 332 l 1
 349 483 l 1
 113 394 l 1
 90 454 l 1
 370 560 l 1
 384 613 l 1
 90 723 l 1
 113 783 l 1
 400 675 l 1
 432 793 l 1
EndSplineSet
EndChar

StartChar: uni2A8B0338
Encoding: 156 -1 156
Width: 660
Flags: HW
HStem: 178 64<90 267 344 570> 358 64<90 316 393 570>
LayerCount: 2
Fore
SplineSet
384 614 m 1
 422 758 l 1
 213 679 l 1
 384 614 l 1
276 -14 m 1
 238 -158 l 1
 447 -79 l 1
 276 -14 l 1
480 973 m 1
 536 958 l 1
 509 859 l 1
 547 873 l 1
 570 813 l 1
 489 783 l 1
 439 594 l 1
 570 544 l 1
 547 484 l 1
 422 531 l 1
 393 422 l 1
 570 422 l 1
 570 358 l 1
 376 358 l 1
 344 242 l 1
 570 242 l 1
 570 178 l 1
 327 178 l 1
 293 48 l 1
 570 -57 l 1
 570 -101 l 1
 217 -234 l 1
 180 -373 l 1
 124 -358 l 1
 151 -259 l 1
 113 -273 l 1
 90 -213 l 1
 171 -183 l 1
 221 6 l 1
 90 56 l 1
 113 116 l 1
 238 69 l 1
 267 178 l 1
 90 178 l 1
 90 242 l 1
 284 242 l 1
 316 358 l 1
 90 358 l 1
 90 422 l 1
 333 422 l 1
 367 552 l 1
 90 657 l 1
 90 701 l 1
 443 834 l 1
 480 973 l 1
EndSplineSet
EndChar

StartChar: uni2A8C0338
Encoding: 157 -1 157
Width: 660
Flags: HW
HStem: 178 64<90 267 344 570> 358 64<90 316 393 570>
LayerCount: 2
Fore
SplineSet
456 883 m 1
 512 868 l 1
 477 736 l 1
 570 701 l 1
 570 657 l 1
 443 609 l 1
 393 422 l 1
 570 422 l 1
 570 358 l 1
 376 358 l 1
 344 242 l 1
 570 242 l 1
 570 178 l 1
 327 178 l 1
 284 16 l 1
 547 116 l 1
 570 56 l 1
 264 -60 l 1
 254 -95 l 1
 570 -213 l 1
 547 -273 l 1
 238 -157 l 1
 204 -283 l 1
 148 -268 l 1
 183 -136 l 1
 90 -101 l 1
 90 -57 l 1
 217 -9 l 1
 267 178 l 1
 90 178 l 1
 90 242 l 1
 284 242 l 1
 316 358 l 1
 90 358 l 1
 90 422 l 1
 333 422 l 1
 376 584 l 1
 113 484 l 1
 90 544 l 1
 396 660 l 1
 406 695 l 1
 90 813 l 1
 113 873 l 1
 422 757 l 1
 456 883 l 1
EndSplineSet
EndChar

StartChar: uni22DA0338.alt
Encoding: 158 -1 158
Width: 660
Flags: HW
HStem: 739 20G<493.667 554.667>
LayerCount: 2
Fore
SplineSet
357 510 m 1
 389 631 l 1
 213 564 l 1
 357 510 l 1
303 90 m 1
 271 -31 l 1
 447 36 l 1
 303 90 l 1
450 858 m 1
 505 843 l 1
 475 732 l 1
 547 759 l 1
 570 699 l 1
 455 655 l 1
 410 490 l 1
 570 430 l 1
 547 370 l 1
 394 428 l 1
 365 321 l 1
 570 244 l 1
 547 184 l 1
 348 259 l 1
 320 152 l 1
 570 58 l 1
 570 13 l 1
 250 -107 l 1
 210 -258 l 1
 155 -243 l 1
 185 -132 l 1
 113 -159 l 1
 90 -99 l 1
 205 -55 l 1
 250 110 l 1
 90 170 l 1
 113 230 l 1
 266 172 l 1
 295 279 l 1
 90 356 l 1
 113 416 l 1
 312 341 l 1
 340 448 l 1
 90 542 l 1
 90 587 l 1
 410 707 l 1
 450 858 l 1
EndSplineSet
EndChar

StartChar: uni22DB0338.alt
Encoding: 159 -1 159
Width: 660
Flags: HW
HStem: 739 20G<105.333 166.208>
LayerCount: 2
Fore
SplineSet
432 570 m 1
 428 557 l 1
 447 564 l 1
 432 570 l 1
228 30 m 1
 232 43 l 1
 213 36 l 1
 228 30 l 1
426 768 m 1
 481 753 l 1
 449 633 l 1
 570 587 l 1
 570 542 l 1
 408 481 l 1
 373 351 l 1
 547 416 l 1
 570 356 l 1
 353 274 l 1
 318 144 l 1
 547 230 l 1
 570 170 l 1
 297 68 l 1
 282 10 l 1
 570 -99 l 1
 547 -159 l 1
 265 -53 l 1
 234 -168 l 1
 179 -153 l 1
 211 -33 l 1
 90 13 l 1
 90 58 l 1
 252 119 l 1
 287 249 l 1
 113 184 l 1
 90 244 l 1
 307 326 l 1
 342 456 l 1
 113 370 l 1
 90 430 l 1
 363 532 l 1
 378 590 l 1
 90 699 l 1
 113 759 l 1
 395 653 l 1
 426 768 l 1
EndSplineSet
EndChar

StartChar: uni226A0338
Encoding: 160 58059 160
Width: 1084
Flags: HW
HStem: 529 20G<922.512 976.814>
LayerCount: 2
Fore
SplineSet
527 355 m 1
 554 455 l 1
 202 300 l 1
 479 178 l 1
 500 257 l 1
 450 279 l 1
 450 321 l 1
 527 355 l 1
606 650 m 1
 662 635 l 1
 627 505 l 1
 634 490 l 1
 622 485 l 1
 595 385 l 1
 968 549 l 1
 994 490 l 1
 573 305 l 1
 571 296 l 1
 994 110 l 1
 968 51 l 1
 554 233 l 1
 533 154 l 1
 634 110 l 1
 608 51 l 1
 516 91 l 1
 478 -50 l 1
 422 -35 l 1
 462 115 l 1
 90 279 l 1
 90 321 l 1
 575 534 l 1
 606 650 l 1
EndSplineSet
EndChar

StartChar: uni226B0338
Encoding: 161 58060 161
Width: 1084
Flags: HW
HStem: 529 20G<107.186 161.495 467.186 522>
LayerCount: 2
Fore
SplineSet
557 245 m 1
 530 145 l 1
 882 300 l 1
 605 422 l 1
 584 343 l 1
 634 321 l 1
 634 279 l 1
 557 245 l 1
606 650 m 1
 662 635 l 1
 622 485 l 1
 994 321 l 1
 994 279 l 1
 509 66 l 1
 478 -50 l 1
 422 -35 l 1
 457 95 l 1
 450 110 l 1
 462 115 l 1
 489 215 l 1
 116 51 l 1
 90 110 l 1
 511 295 l 1
 513 304 l 1
 90 490 l 1
 116 549 l 1
 530 367 l 1
 551 446 l 1
 450 490 l 1
 476 549 l 1
 568 509 l 1
 606 650 l 1
EndSplineSet
EndChar

StartChar: uni22D80338
Encoding: 162 58061 162
Width: 1444
Flags: HW
HStem: 529 20G<562.561 616.814 1282.56 1336.81>
LayerCount: 2
Fore
SplineSet
651 261 m 1
 756 385 l 1
 562 300 l 1
 651 261 l 1
1328 549 m 1
 1354 490 l 1
 922 300 l 1
 1354 110 l 1
 1328 51 l 1
 810 279 l 1
 810 321 l 1
 1328 549 l 1
983 656 m 1
 1027 619 l 1
 968 549 l 1
 994 490 l 1
 875 438 l 1
 706 237 l 1
 994 110 l 1
 968 51 l 1
 663 185 l 1
 609 121 l 1
 634 110 l 1
 608 51 l 1
 566 69 l 1
 461 -56 l 1
 417 -19 l 1
 511 94 l 1
 90 279 l 1
 90 321 l 1
 608 549 l 1
 634 490 l 1
 202 300 l 1
 554 145 l 1
 608 209 l 1
 450 279 l 1
 450 321 l 1
 850 497 l 1
 983 656 l 1
EndSplineSet
EndChar

StartChar: uni22D90338
Encoding: 163 58062 163
Width: 1444
Flags: HW
HStem: 529 20G<107.186 161.439 467.186 521.522 827.186 878>
LayerCount: 2
Fore
SplineSet
793 339 m 1
 688 215 l 1
 882 300 l 1
 793 339 l 1
116 51 m 1
 90 110 l 1
 522 300 l 1
 90 490 l 1
 116 549 l 1
 634 321 l 1
 634 279 l 1
 116 51 l 1
983 656 m 1
 1027 619 l 1
 933 506 l 1
 1354 321 l 1
 1354 279 l 1
 836 51 l 1
 810 110 l 1
 1242 300 l 1
 890 455 l 1
 836 391 l 1
 994 321 l 1
 994 279 l 1
 594 103 l 1
 461 -56 l 1
 417 -19 l 1
 476 51 l 1
 450 110 l 1
 569 162 l 1
 738 363 l 1
 450 490 l 1
 476 549 l 1
 781 415 l 1
 835 479 l 1
 810 490 l 1
 836 549 l 1
 878 531 l 1
 983 656 l 1
EndSplineSet
EndChar

StartChar: uni22EA
Encoding: 164 8938 164
Width: 660
Flags: HW
HStem: 526 20G<506 570>
VStem: 506 64<71 72 143 457 528 529>
LayerCount: 2
Fore
SplineSet
287 253 m 1
 317 362 l 1
 193 300 l 1
 287 253 l 1
506 143 m 1
 506 457 l 1
 386 397 l 1
 340 226 l 1
 506 143 l 1
394 650 m 1
 450 635 l 1
 408 479 l 1
 506 528 l 1
 506 529 l 1
 541 546 l 1
 570 529 l 1
 570 71 l 1
 541 54 l 1
 506 71 l 1
 506 72 l 1
 323 163 l 1
 266 -50 l 1
 210 -35 l 1
 270 190 l 1
 90 280 l 1
 90 320 l 1
 339 445 l 1
 394 650 l 1
EndSplineSet
EndChar

StartChar: uni22EB
Encoding: 165 8939 165
Width: 660
Flags: HW
HStem: 526 20G<90 154>
VStem: 90 64<71 72 143 457 528 529>
LayerCount: 2
Fore
SplineSet
373 347 m 1
 343 238 l 1
 467 300 l 1
 373 347 l 1
154 457 m 1
 154 143 l 1
 274 203 l 1
 320 374 l 1
 154 457 l 1
394 650 m 1
 450 635 l 1
 390 410 l 1
 570 320 l 1
 570 280 l 1
 321 155 l 1
 266 -50 l 1
 210 -35 l 1
 252 121 l 1
 154 72 l 1
 154 71 l 1
 119 54 l 1
 90 71 l 1
 90 529 l 1
 119 546 l 1
 154 529 l 1
 154 528 l 1
 337 437 l 1
 394 650 l 1
EndSplineSet
EndChar

StartChar: uni22EC
Encoding: 166 8940 166
Width: 660
Flags: HW
HStem: 39 64<90 230 307 570> 534 20G<506 570>
VStem: 506 64<249 471>
LayerCount: 2
Fore
SplineSet
307 325 m 1
 328 403 l 1
 213 360 l 1
 307 325 l 1
506 249 m 1
 506 471 l 1
 395 429 l 1
 361 304 l 1
 506 249 l 1
403 684 m 1
 459 669 l 1
 415 504 l 1
 506 539 l 1
 547 554 l 1
 570 539 l 1
 570 181 l 1
 547 166 l 1
 506 181 l 1
 345 242 l 1
 307 103 l 1
 570 103 l 1
 570 39 l 1
 290 39 l 1
 257 -84 l 1
 201 -69 l 1
 230 39 l 1
 90 39 l 1
 90 103 l 1
 247 103 l 1
 290 263 l 1
 90 338 l 1
 90 382 l 1
 348 479 l 1
 403 684 l 1
EndSplineSet
EndChar

StartChar: uni22ED
Encoding: 167 8941 167
Width: 660
Flags: HW
HStem: 39 64<90 230 307 570> 534 20G<90 154>
VStem: 90 64<249 471>
LayerCount: 2
Fore
SplineSet
383 384 m 1
 368 330 l 1
 447 360 l 1
 383 384 l 1
154 471 m 1
 154 249 l 1
 301 305 l 1
 328 405 l 1
 154 471 l 1
403 684 m 1
 459 669 l 1
 399 446 l 1
 570 382 l 1
 570 338 l 1
 348 254 l 1
 307 103 l 1
 570 103 l 1
 570 39 l 1
 290 39 l 1
 257 -84 l 1
 201 -69 l 1
 230 39 l 1
 90 39 l 1
 90 103 l 1
 247 103 l 1
 281 229 l 1
 154 181 l 1
 113 166 l 1
 90 181 l 1
 90 539 l 1
 113 554 l 1
 154 539 l 1
 345 467 l 1
 403 684 l 1
EndSplineSet
EndChar

StartChar: uni2AA60338
Encoding: 168 -1 168
Width: 717
Flags: HW
HStem: 526 20G<501 551>
VStem: 551 64<177.681 423.328>
LayerCount: 2
Fore
SplineSet
312 240 m 1
 349 378 l 1
 193 300 l 1
 312 240 l 1
513 140 m 1
 527 167 551 225 551 300 c 0
 551 331 547 395 513 460 c 1
 418 413 l 1
 365 214 l 1
 513 140 l 1
422 650 m 1
 478 635 l 1
 441 496 l 1
 541 546 l 1
 555 518 l 1
 556 518 l 1
 570 489 l 1
 600 429 615 365 615 300 c 0
 615 235 600 171 570 111 c 1
 556 82 l 1
 555 82 l 1
 541 54 l 1
 348 151 l 1
 294 -50 l 1
 239 -35 l 1
 296 177 l 1
 90 280 l 1
 90 320 l 1
 372 461 l 1
 422 650 l 1
EndSplineSet
EndChar

StartChar: uni2AA70338
Encoding: 169 -1 169
Width: 717
Flags: HW
HStem: 526 20G<165 214.794>
VStem: 102 64<178.842 421.158>
LayerCount: 2
Fore
SplineSet
404 360 m 1
 367 222 l 1
 523 300 l 1
 404 360 l 1
204 460 m 1
 193 436 166 381 166 300 c 0
 166 219 193 164 204 140 c 1
 298 187 l 1
 352 386 l 1
 204 460 l 1
422 650 m 1
 478 635 l 1
 421 423 l 1
 627 320 l 1
 627 280 l 1
 345 139 l 1
 294 -50 l 1
 239 -35 l 1
 276 105 l 1
 175 54 l 1
 161 82 l 1
 147 111 l 1
 117 171 102 235 102 300 c 0
 102 365 117 429 147 489 c 1
 161 518 l 1
 175 546 l 1
 368 449 l 1
 422 650 l 1
EndSplineSet
EndChar

StartChar: uni2AA80338
Encoding: 170 -1 170
Width: 698
Flags: HW
VStem: 524 65<279.838 500.162>
LayerCount: 2
Fore
SplineSet
332 345 m 1
 358 445 l 1
 213 390 l 1
 332 345 l 1
509 278 m 1
 519 315 524 352 524 390 c 0
 524 428 519 465 509 502 c 1
 425 470 l 1
 386 325 l 1
 509 278 l 1
422 684 m 1
 478 669 l 1
 445 546 l 1
 547 584 l 1
 558 555 l 1
 559 555 l 1
 561 549 563 543 565 537 c 2
 570 525 l 1
 569 525 l 1
 582 481 589 435 589 390 c 0
 589 345 582 299 569 255 c 1
 570 255 l 1
 563 237 l 2
 562 233 560 230 559 226 c 1
 547 196 l 1
 369 263 l 1
 342 161 l 1
 570 75 l 1
 547 16 l 1
 325 99 l 1
 276 -84 l 1
 221 -69 l 1
 271 120 l 1
 90 188 l 1
 113 248 l 1
 288 182 l 1
 315 283 l 1
 90 368 l 1
 90 412 l 1
 378 521 l 1
 422 684 l 1
EndSplineSet
EndChar

StartChar: uni2AA90338
Encoding: 171 -1 171
Width: 698
Flags: HW
VStem: 110 64<279.253 500.747>
LayerCount: 2
Fore
SplineSet
411 418 m 1
 394 355 l 1
 486 390 l 1
 411 418 l 1
190 502 m 1
 179 465 174 428 174 390 c 0
 174 352 179 315 190 278 c 1
 328 330 l 1
 357 439 l 1
 190 502 l 1
422 684 m 1
 478 669 l 1
 427 480 l 1
 608 412 l 1
 608 368 l 1
 374 280 l 1
 340 155 l 1
 586 248 l 1
 608 188 l 1
 320 80 l 1
 276 -84 l 1
 221 -69 l 1
 254 55 l 1
 151 16 l 1
 128 75 l 1
 274 130 l 1
 307 255 l 1
 151 196 l 1
 128 255 l 1
 130 256 l 1
 117 300 110 345 110 390 c 0
 110 435 117 480 130 524 c 1
 128 525 l 1
 151 584 l 1
 373 500 l 1
 422 684 l 1
EndSplineSet
EndChar

StartChar: uni228F0338
Encoding: 172 58884 172
Width: 660
Flags: HW
HStem: 43 64<154 231 308 570> 493 64<154 352 429 570>
VStem: 90 64<107 493>
LayerCount: 2
Fore
SplineSet
154 107 m 1
 248 107 l 1
 352 493 l 1
 154 493 l 1
 154 107 l 1
406 695 m 1
 462 680 l 1
 429 557 l 1
 570 557 l 1
 570 493 l 1
 412 493 l 1
 308 107 l 1
 570 107 l 1
 570 43 l 1
 291 43 l 1
 254 -95 l 1
 198 -80 l 1
 231 43 l 1
 90 43 l 1
 90 557 l 1
 369 557 l 1
 406 695 l 1
EndSplineSet
EndChar

StartChar: uni22900338
Encoding: 173 58901 173
Width: 660
Flags: HW
HStem: 43 64<90 231 308 506> 493 64<90 352 429 506>
VStem: 506 64<107 493>
LayerCount: 2
Fore
SplineSet
506 107 m 1
 506 493 l 1
 412 493 l 1
 308 107 l 1
 506 107 l 1
406 695 m 1
 462 680 l 1
 429 557 l 1
 570 557 l 1
 570 43 l 1
 291 43 l 1
 254 -95 l 1
 198 -80 l 1
 231 43 l 1
 90 43 l 1
 90 107 l 1
 248 107 l 1
 352 493 l 1
 90 493 l 1
 90 557 l 1
 369 557 l 1
 406 695 l 1
EndSplineSet
EndChar

StartChar: uni22E2
Encoding: 174 8930 174
Width: 660
Flags: HW
HStem: 9 64<90 222 299 570> 189 64<154 270 347 570> 527 64<154 361 438 570>
VStem: 90 64<253 527>
LayerCount: 2
Fore
SplineSet
154 253 m 1
 287 253 l 1
 361 527 l 1
 154 527 l 1
 154 253 l 1
415 729 m 1
 471 714 l 1
 438 591 l 1
 570 591 l 1
 570 527 l 1
 421 527 l 1
 347 253 l 1
 570 253 l 1
 570 189 l 1
 330 189 l 1
 299 73 l 1
 570 73 l 1
 570 9 l 1
 282 9 l 1
 245 -129 l 1
 189 -114 l 1
 222 9 l 1
 90 9 l 1
 90 73 l 1
 239 73 l 1
 270 189 l 1
 90 189 l 1
 90 591 l 1
 378 591 l 1
 415 729 l 1
EndSplineSet
EndChar

StartChar: uni22E3
Encoding: 175 8931 175
Width: 660
Flags: HW
HStem: 9 64<90 222 299 570> 189 64<90 270 347 506> 527 64<90 361 438 506>
VStem: 506 64<253 527>
LayerCount: 2
Fore
SplineSet
506 253 m 1
 506 527 l 1
 421 527 l 1
 347 253 l 1
 506 253 l 1
415 729 m 1
 471 714 l 1
 438 591 l 1
 570 591 l 1
 570 189 l 1
 330 189 l 1
 299 73 l 1
 570 73 l 1
 570 9 l 1
 282 9 l 1
 245 -129 l 1
 189 -114 l 1
 222 9 l 1
 90 9 l 1
 90 73 l 1
 239 73 l 1
 270 189 l 1
 90 189 l 1
 90 253 l 1
 287 253 l 1
 361 527 l 1
 90 527 l 1
 90 591 l 1
 378 591 l 1
 415 729 l 1
EndSplineSet
EndChar

StartChar: sym021_uni0338
Encoding: 176 -1 176
Width: 660
Flags: HW
HStem: -81 64<90 198 275 570> 99 64<90 246 323 570> 279 64<154 294 372 570> 617 64<154 385 462 570>
VStem: 90 64<343 617>
LayerCount: 2
Fore
SplineSet
154 343 m 1
 312 343 l 1
 385 617 l 1
 154 617 l 1
 154 343 l 1
427 774 m 1
 483 759 l 1
 462 681 l 1
 570 681 l 1
 570 617 l 1
 445 617 l 1
 372 343 l 1
 570 343 l 1
 570 279 l 1
 354 279 l 1
 323 163 l 1
 570 163 l 1
 570 99 l 1
 306 99 l 1
 275 -17 l 1
 570 -17 l 1
 570 -81 l 1
 258 -81 l 1
 233 -174 l 1
 177 -159 l 1
 198 -81 l 1
 90 -81 l 1
 90 -17 l 1
 215 -17 l 1
 246 99 l 1
 90 99 l 1
 90 163 l 1
 263 163 l 1
 294 279 l 1
 90 279 l 1
 90 681 l 1
 402 681 l 1
 427 774 l 1
EndSplineSet
EndChar

StartChar: sym022_uni0338
Encoding: 177 -1 177
Width: 660
Flags: HW
HStem: -81 64<90 198 275 570> 99 64<90 246 323 570> 279 64<90 294 372 506> 617 64<90 385 462 506>
VStem: 506 64<343 617>
LayerCount: 2
Fore
SplineSet
506 343 m 1
 506 617 l 1
 445 617 l 1
 372 343 l 1
 506 343 l 1
427 774 m 1
 483 759 l 1
 462 681 l 1
 570 681 l 1
 570 279 l 1
 354 279 l 1
 323 163 l 1
 570 163 l 1
 570 99 l 1
 306 99 l 1
 275 -17 l 1
 570 -17 l 1
 570 -81 l 1
 258 -81 l 1
 233 -174 l 1
 177 -159 l 1
 198 -81 l 1
 90 -81 l 1
 90 -17 l 1
 215 -17 l 1
 246 99 l 1
 90 99 l 1
 90 163 l 1
 263 163 l 1
 294 279 l 1
 90 279 l 1
 90 343 l 1
 312 343 l 1
 385 617 l 1
 90 617 l 1
 90 681 l 1
 402 681 l 1
 427 774 l 1
EndSplineSet
EndChar

StartChar: sym023_uni0338
Encoding: 178 -1 178
Width: 660
Flags: HW
HStem: 43 64<154 231 308 570> 178 64<344 570> 358 64<289 316 393 570> 493 64<154 352 429 570>
VStem: 90 64<107 493> 225 64<259 358>
LayerCount: 2
Fore
SplineSet
267 178 m 1
 225 178 l 1
 225 422 l 1
 333 422 l 1
 352 493 l 1
 154 493 l 1
 154 107 l 1
 248 107 l 1
 267 178 l 1
289 259 m 1
 316 358 l 1
 289 358 l 1
 289 259 l 1
406 695 m 1
 462 680 l 1
 429 557 l 1
 570 557 l 1
 570 493 l 1
 412 493 l 1
 393 422 l 1
 570 422 l 1
 570 358 l 1
 376 358 l 1
 344 242 l 1
 570 242 l 1
 570 178 l 1
 327 178 l 1
 308 107 l 1
 570 107 l 1
 570 43 l 1
 291 43 l 1
 254 -95 l 1
 198 -80 l 1
 231 43 l 1
 90 43 l 1
 90 557 l 1
 369 557 l 1
 406 695 l 1
EndSplineSet
EndChar

StartChar: sym024_uni0338
Encoding: 179 -1 179
Width: 660
Flags: HW
HStem: 43 64<90 231 308 506> 178 64<90 267 344 371> 358 64<90 316> 493 64<90 352 429 506>
VStem: 371 64<242 341> 506 64<107 493>
LayerCount: 2
Fore
SplineSet
327 178 m 1
 308 107 l 1
 506 107 l 1
 506 493 l 1
 412 493 l 1
 393 422 l 1
 435 422 l 1
 435 178 l 1
 327 178 l 1
371 341 m 1
 344 242 l 1
 371 242 l 1
 371 341 l 1
406 695 m 1
 462 680 l 1
 429 557 l 1
 570 557 l 1
 570 43 l 1
 291 43 l 1
 254 -95 l 1
 198 -80 l 1
 231 43 l 1
 90 43 l 1
 90 107 l 1
 248 107 l 1
 267 178 l 1
 90 178 l 1
 90 242 l 1
 284 242 l 1
 316 358 l 1
 90 358 l 1
 90 422 l 1
 333 422 l 1
 352 493 l 1
 90 493 l 1
 90 557 l 1
 369 557 l 1
 406 695 l 1
EndSplineSet
EndChar

StartChar: notsubset
Encoding: 180 8836 180
Width: 660
Flags: HW
HStem: 43 64<308.156 570> 493 64<238.141 352 429 570>
VStem: 90 64<202.077 397.13>
LayerCount: 2
Fore
SplineSet
252 120 m 1
 352 493 l 1
 309 493 l 2
 215 493 154 400 154 300 c 0
 154 222 191 149 252 120 c 1
406 695 m 1
 462 680 l 1
 429 557 l 1
 570 557 l 1
 570 493 l 1
 412 493 l 1
 308 107 l 1
 309 107 l 2
 570 107 l 1
 570 43 l 1
 309 43 l 2
 303 43 297 43 291 44 c 1
 254 -95 l 1
 198 -80 l 1
 235 57 l 1
 147 93 90 193 90 300 c 0
 90 435 180 557 309 557 c 2
 369 557 l 1
 406 695 l 1
EndSplineSet
EndChar

StartChar: uni2285
Encoding: 181 8837 181
Width: 660
Flags: HW
HStem: 43 64<90 231 308 421.859> 493 64<90 351.844>
VStem: 506 64<202.87 397.923>
LayerCount: 2
Fore
SplineSet
408 480 m 1
 308 107 l 1
 351 107 l 2
 445 107 506 200 506 300 c 0
 506 378 469 451 408 480 c 1
406 695 m 1
 462 680 l 1
 425 543 l 1
 513 507 570 407 570 300 c 0
 570 165 480 43 351 43 c 2
 291 43 l 1
 254 -95 l 1
 198 -80 l 1
 231 43 l 1
 90 43 l 1
 90 107 l 1
 248 107 l 1
 352 493 l 1
 351 493 l 2
 90 493 l 1
 90 557 l 1
 351 557 l 2
 357 557 363 557 369 556 c 1
 406 695 l 1
EndSplineSet
EndChar

StartChar: uni2288
Encoding: 182 8840 182
Width: 660
Flags: HW
HStem: 9 64<90 222 299 570> 189 64<204.51 270 347 570> 527 64<204.51 361 438 570>
VStem: 90 64<308.412 471.588>
LayerCount: 2
Fore
SplineSet
287 253 m 1
 361 527 l 1
 262 527 l 2
 196 527 154 461 154 390 c 0
 154 319 196 253 262 253 c 2
 287 253 l 1
415 729 m 1
 471 714 l 1
 438 591 l 1
 570 591 l 1
 570 527 l 1
 421 527 l 1
 347 253 l 1
 570 253 l 1
 570 189 l 1
 330 189 l 1
 299 73 l 1
 570 73 l 1
 570 9 l 1
 282 9 l 1
 245 -129 l 1
 189 -114 l 1
 222 9 l 1
 90 9 l 1
 90 73 l 1
 239 73 l 1
 270 189 l 1
 262 189 l 2
 161 189 90 284 90 390 c 0
 90 496 161 591 262 591 c 2
 378 591 l 1
 415 729 l 1
EndSplineSet
EndChar

StartChar: uni2289
Encoding: 183 8841 183
Width: 660
Flags: HW
HStem: 9 64<90 222 299 570> 189 64<90 270 347 455.49> 527 64<90 361 437 455.243>
VStem: 506 64<308.412 472.739>
LayerCount: 2
Fore
SplineSet
420 524 m 1
 347 253 l 1
 398 253 l 2
 464 253 506 319 506 390 c 0
 506 453 473 511 420 524 c 1
415 729 m 1
 471 714 l 1
 437 586 l 1
 517 565 570 482 570 390 c 0
 570 284 499 189 398 189 c 2
 330 189 l 1
 299 73 l 1
 570 73 l 1
 570 9 l 1
 282 9 l 1
 245 -129 l 1
 189 -114 l 1
 222 9 l 1
 90 9 l 1
 90 73 l 1
 239 73 l 1
 270 189 l 1
 90 189 l 1
 90 253 l 1
 287 253 l 1
 361 527 l 1
 90 527 l 1
 90 591 l 1
 378 591 l 1
 415 729 l 1
EndSplineSet
EndChar

StartChar: uni2AC50338
Encoding: 184 58030 184
Width: 660
Flags: HW
HStem: -81 64<90 198 275 570> 99 64<90 246 323 570> 279 64<204.51 294 372 570> 617 64<204.51 385 462 570>
VStem: 90 64<398.412 561.588>
LayerCount: 2
Fore
SplineSet
312 343 m 1
 385 617 l 1
 262 617 l 2
 196 617 154 551 154 480 c 0
 154 409 196 343 262 343 c 2
 312 343 l 1
427 774 m 1
 483 759 l 1
 462 681 l 1
 570 681 l 1
 570 617 l 1
 445 617 l 1
 372 343 l 1
 570 343 l 1
 570 279 l 1
 354 279 l 1
 323 163 l 1
 570 163 l 1
 570 99 l 1
 306 99 l 1
 275 -17 l 1
 570 -17 l 1
 570 -81 l 1
 258 -81 l 1
 233 -174 l 1
 177 -159 l 1
 198 -81 l 1
 90 -81 l 1
 90 -17 l 1
 215 -17 l 1
 246 99 l 1
 90 99 l 1
 90 163 l 1
 263 163 l 1
 294 279 l 1
 262 279 l 2
 161 279 90 374 90 480 c 0
 90 586 161 681 262 681 c 2
 402 681 l 1
 427 774 l 1
EndSplineSet
EndChar

StartChar: uni2AC60338
Encoding: 185 58032 185
Width: 660
Flags: HW
HStem: -81 64<90 198 275 570> 99 64<90 246 323 570> 279 64<90 294 372 455.49> 617 64<90 385>
VStem: 506 64<398.412 562.409>
LayerCount: 2
Fore
SplineSet
442 606 m 1
 372 343 l 1
 398 343 l 2
 464 343 506 409 506 480 c 0
 506 534 482 584 442 606 c 1
427 774 m 1
 483 759 l 1
 459 669 l 1
 527 640 570 563 570 480 c 0
 570 374 499 279 398 279 c 2
 354 279 l 1
 323 163 l 1
 570 163 l 1
 570 99 l 1
 306 99 l 1
 275 -17 l 1
 570 -17 l 1
 570 -81 l 1
 258 -81 l 1
 233 -174 l 1
 177 -159 l 1
 198 -81 l 1
 90 -81 l 1
 90 -17 l 1
 215 -17 l 1
 246 99 l 1
 90 99 l 1
 90 163 l 1
 263 163 l 1
 294 279 l 1
 90 279 l 1
 90 343 l 1
 312 343 l 1
 385 617 l 1
 90 617 l 1
 90 681 l 1
 398 681 l 2
 399 681 401 681 402 681 c 1
 427 774 l 1
EndSplineSet
EndChar

StartChar: uni22D00338
Encoding: 186 -1 186
Width: 660
Flags: HW
HStem: 43 64<308.156 570> 178 64<344 570> 358 64<393 570> 493 64<238.141 352 429 570>
VStem: 90 64<202.077 397.13> 225 64<274.829 351.278>
LayerCount: 2
Fore
SplineSet
293 274 m 1
 315 354 l 1
 298 345 289 323 289 300 c 0
 289 291 290 282 293 274 c 1
333 422 m 1
 352 493 l 1
 309 493 l 2
 215 493 154 400 154 300 c 0
 154 222 191 149 252 120 c 1
 272 197 l 1
 243 219 225 259 225 300 c 0
 225 364 268 422 330 422 c 2
 333 422 l 1
406 695 m 1
 462 680 l 1
 429 557 l 1
 570 557 l 1
 570 493 l 1
 412 493 l 1
 393 422 l 1
 570 422 l 1
 570 358 l 1
 376 358 l 1
 344 242 l 1
 570 242 l 1
 570 178 l 1
 330 178 l 2
 329 178 328 178 327 178 c 2
 308 107 l 1
 309 107 l 2
 570 107 l 1
 570 43 l 1
 309 43 l 2
 303 43 297 43 291 44 c 1
 254 -95 l 1
 198 -80 l 1
 235 57 l 1
 147 93 90 193 90 300 c 0
 90 435 180 557 309 557 c 2
 369 557 l 1
 406 695 l 1
EndSplineSet
EndChar

StartChar: uni22D10338
Encoding: 187 -1 187
Width: 660
Flags: HW
HStem: 43 64<90 231 308 421.859> 178 64<90 267> 358 64<90 316> 493 64<90 351.844>
VStem: 371 64<248.722 325.171> 506 64<202.87 397.923>
LayerCount: 2
Fore
SplineSet
367 326 m 1
 345 246 l 1
 362 255 371 277 371 300 c 0
 371 309 370 318 367 326 c 1
327 178 m 1
 308 107 l 1
 351 107 l 2
 445 107 506 200 506 300 c 0
 506 378 469 451 408 480 c 1
 388 403 l 1
 417 381 435 341 435 300 c 0
 435 236 392 178 330 178 c 2
 327 178 l 1
406 695 m 1
 462 680 l 1
 425 543 l 1
 513 507 570 407 570 300 c 0
 570 165 480 43 351 43 c 2
 291 43 l 1
 254 -95 l 1
 198 -80 l 1
 231 43 l 1
 90 43 l 1
 90 107 l 1
 248 107 l 1
 267 178 l 1
 90 178 l 1
 90 242 l 1
 284 242 l 1
 316 358 l 1
 90 358 l 1
 90 422 l 1
 330 422 l 2
 331 422 332 422 333 422 c 2
 352 493 l 1
 351 493 l 2
 90 493 l 1
 90 557 l 1
 351 557 l 2
 357 557 363 557 369 556 c 1
 406 695 l 1
EndSplineSet
EndChar

StartChar: uni2280
Encoding: 188 8832 188
Width: 660
Flags: HW
HStem: 268 64<90 248.055> 527 20G<503.5 544.364>
LayerCount: 2
Fore
SplineSet
299 296 m 1
 301 305 l 1
 297 303 293 302 289 300 c 1
 292 299 296 297 299 296 c 1
394 650 m 1
 450 635 l 1
 395 432 l 1
 441 466 484 505 523 547 c 1
 570 503 l 1
 511 440 445 381 371 339 c 1
 352 271 l 1
 433 228 506 166 570 97 c 1
 523 53 l 1
 467 113 404 168 335 208 c 1
 266 -50 l 1
 210 -35 l 1
 282 234 l 1
 232 255 178 268 122 268 c 2
 90 268 l 1
 90 332 l 1
 122 332 l 2
 194 332 261 353 323 386 c 1
 394 650 l 1
EndSplineSet
EndChar

StartChar: uni2281
Encoding: 189 8833 189
Width: 660
Flags: HW
HStem: 268 64<411.945 570> 527 20G<115.636 165>
LayerCount: 2
Fore
SplineSet
361 304 m 1
 359 295 l 1
 363 297 367 298 371 300 c 1
 368 301 364 303 361 304 c 1
394 650 m 1
 450 635 l 1
 378 366 l 1
 428 345 482 332 538 332 c 2
 570 332 l 1
 570 268 l 1
 538 268 l 2
 466 268 399 247 337 214 c 1
 266 -50 l 1
 210 -35 l 1
 265 168 l 1
 219 134 176 95 137 53 c 1
 90 97 l 1
 149 160 215 219 289 261 c 1
 308 329 l 1
 227 372 154 434 90 503 c 1
 137 547 l 1
 193 487 256 432 325 392 c 1
 394 650 l 1
EndSplineSet
EndChar

StartChar: uni2AAF0338
Encoding: 190 58844 190
Width: 660
Flags: HW
HStem: 39 64<90 230 307 570> 328 64<90 287.569> 531 20G<505.5 544.364>
LayerCount: 2
Fore
SplineSet
403 684 m 1
 459 669 l 1
 403 458 l 1
 447 482 488 513 523 551 c 1
 570 507 l 1
 517 449 452 406 381 377 c 1
 372 346 l 1
 446 317 515 273 570 213 c 1
 523 169 l 1
 476 220 419 258 356 284 c 1
 307 103 l 1
 570 103 l 1
 570 39 l 1
 290 39 l 1
 257 -84 l 1
 201 -69 l 1
 230 39 l 1
 90 39 l 1
 90 103 l 1
 247 103 l 1
 301 303 l 1
 244 320 183 328 122 328 c 2
 90 328 l 1
 90 392 l 1
 122 392 l 2
 195 392 267 404 334 428 c 1
 403 684 l 1
EndSplineSet
EndChar

StartChar: uni2AB00338
Encoding: 191 58865 191
Width: 660
Flags: HW
HStem: 39 64<90 230 307 570> 328 64<391.252 570> 531 20G<115.636 164>
LayerCount: 2
Fore
SplineSet
403 684 m 1
 459 669 l 1
 389 409 l 1
 437 398 488 392 538 392 c 2
 570 392 l 1
 570 328 l 1
 538 328 l 2
 478 328 418 321 361 304 c 1
 307 103 l 1
 570 103 l 1
 570 39 l 1
 290 39 l 1
 257 -84 l 1
 201 -69 l 1
 230 39 l 1
 90 39 l 1
 90 103 l 1
 247 103 l 1
 295 280 l 1
 236 254 182 217 137 169 c 1
 90 213 l 1
 152 280 230 327 315 356 c 1
 317 363 l 1
 231 392 153 439 90 507 c 1
 137 551 l 1
 191 492 260 451 334 425 c 1
 403 684 l 1
EndSplineSet
EndChar

StartChar: uni22E0
Encoding: 192 8928 192
Width: 660
Flags: HW
HStem: 160 61<91 262> 178 64<90 260.169> 358 64<90 288.209>
LayerCount: 2
Fore
SplineSet
403 684 m 1xa0
 459 669 l 1
 412 494 l 1
 453 517 490 546 523 581 c 1
 570 537 l 1
 519 482 458 440 390 411 c 1
 380 373 l 1
 451 344 516 301 570 243 c 1
 523 199 l 1
 478 248 423 285 363 311 c 1
 333 199 l 1
 400 167 461 120 518 67 c 1
 472 23 l 1
 424 68 372 109 316 137 c 1
 257 -84 l 1
 201 -69 l 1
 262 160 l 1xa0
 228 172 192 178 154 178 c 2
 90 178 l 1
 90 242 l 1
 154 242 l 2x60
 198 242 239 234 279 221 c 1
 308 331 l 1
 248 349 185 358 122 358 c 2
 90 358 l 1
 90 422 l 1
 122 422 l 2
 198 422 273 434 343 461 c 1
 403 684 l 1xa0
EndSplineSet
EndChar

StartChar: uni22E1
Encoding: 193 8929 193
Width: 660
Flags: HW
HStem: 178 64<389.492 570> 358 64<399.157 570>
LayerCount: 2
Fore
SplineSet
403 684 m 1
 459 669 l 1
 397 437 l 1
 443 427 490 422 538 422 c 2
 570 422 l 1
 570 358 l 1
 538 358 l 2
 481 358 424 351 370 336 c 1
 334 203 l 1
 388 228 445 242 506 242 c 2
 570 242 l 1
 570 178 l 1
 506 178 l 2
 435 178 371 155 312 119 c 1
 257 -84 l 1
 201 -69 l 1
 237 67 l 1
 220 53 204 38 188 23 c 1
 142 67 l 1
 180 103 220 136 263 164 c 1
 304 313 l 1
 241 287 184 250 137 199 c 1
 90 243 l 1
 154 312 235 360 324 389 c 1
 324 391 l 1
 235 420 154 467 90 537 c 1
 137 581 l 1
 193 520 264 479 341 453 c 1
 403 684 l 1
EndSplineSet
EndChar

StartChar: uni2AB30338
Encoding: 194 -1 194
Width: 660
Flags: HW
HStem: -51 64<90 206 283 570> 129 64<90 254 331 570> 418 64<90 289.495>
LayerCount: 2
Fore
SplineSet
340 448 m 1
 341 452 l 1
 339 451 336 451 334 450 c 1
 336 449 338 449 340 448 c 1
419 744 m 1
 475 729 l 1
 431 565 l 1
 464 586 495 611 523 641 c 1
 570 597 l 1
 524 547 468 508 408 479 c 1
 394 427 l 1
 460 398 520 357 570 303 c 1
 523 259 l 1
 481 304 431 339 377 364 c 1
 331 193 l 1
 570 193 l 1
 570 129 l 1
 314 129 l 1
 283 13 l 1
 570 13 l 1
 570 -51 l 1
 266 -51 l 1
 241 -144 l 1
 185 -129 l 1
 206 -51 l 1
 90 -51 l 1
 90 13 l 1
 223 13 l 1
 254 129 l 1
 90 129 l 1
 90 193 l 1
 271 193 l 1
 323 386 l 1
 259 408 191 418 122 418 c 2
 90 418 l 1
 90 482 l 1
 122 482 l 2
 205 482 287 497 361 529 c 1
 419 744 l 1
EndSplineSet
EndChar

StartChar: uni2AB40338
Encoding: 195 -1 195
Width: 660
Flags: HW
HStem: -51 64<90 206 283 570> 129 64<90 254 331 570> 418 64<413.923 570>
LayerCount: 2
Fore
SplineSet
419 744 m 1
 475 729 l 1
 412 494 l 1
 453 486 496 482 538 482 c 2
 570 482 l 1
 570 418 l 1
 538 418 l 2
 487 418 436 412 387 400 c 1
 331 193 l 1
 570 193 l 1
 570 129 l 1
 314 129 l 1
 283 13 l 1
 570 13 l 1
 570 -51 l 1
 266 -51 l 1
 241 -144 l 1
 185 -129 l 1
 206 -51 l 1
 90 -51 l 1
 90 13 l 1
 223 13 l 1
 254 129 l 1
 90 129 l 1
 90 193 l 1
 271 193 l 1
 322 381 l 1
 252 355 189 315 137 259 c 1
 90 303 l 1
 155 373 237 421 326 450 c 1
 237 479 155 527 90 597 c 1
 137 641 l 1
 197 576 273 533 356 508 c 1
 419 744 l 1
EndSplineSet
EndChar

StartChar: uni227E0338
Encoding: 196 59446 196
Width: 660
Flags: HW
HStem: 9 64<373.704 497.661> 99 64<162.339 245> 358 64<90 288.209>
LayerCount: 2
Fore
SplineSet
439 9 m 0
 383 9 348 34 298 70 c 1
 257 -84 l 1
 201 -69 l 1
 245 96 l 1
 237 98 229 99 221 99 c 0
 183 99 154 73 126 47 c 1
 90 86 l 1
 128 122 168 163 221 163 c 0
 235 163 249 161 262 158 c 1
 308 331 l 1
 248 349 185 358 122 358 c 2
 90 358 l 1
 90 422 l 1
 122 422 l 2
 198 422 273 434 343 461 c 1
 403 684 l 1
 459 669 l 1
 412 494 l 1
 453 517 490 546 523 581 c 1
 570 537 l 1
 519 482 458 440 390 411 c 1
 380 373 l 1
 451 344 516 301 570 243 c 1
 523 199 l 1
 478 248 423 285 363 311 c 1
 316 135 l 1
 328 128 339 120 350 111 c 0
 376 91 406 73 439 73 c 0
 477 73 506 100 534 125 c 1
 570 86 l 1
 532 50 492 9 439 9 c 0
EndSplineSet
EndChar

StartChar: uni227F0338
Encoding: 197 59447 197
Width: 660
Flags: HW
HStem: 9 64<373.704 497.661> 99 64<162.339 245> 358 64<399.157 570>
LayerCount: 2
Fore
SplineSet
439 9 m 0
 383 9 348 34 298 70 c 1
 257 -84 l 1
 201 -69 l 1
 245 96 l 1
 237 98 229 99 221 99 c 0
 183 99 154 73 126 47 c 1
 90 86 l 1
 128 122 168 163 221 163 c 0
 235 163 249 161 262 158 c 1
 304 313 l 1
 241 287 184 250 137 199 c 1
 90 243 l 1
 154 312 235 360 324 389 c 1
 324 391 l 1
 235 420 154 467 90 537 c 1
 137 581 l 1
 193 520 264 479 341 453 c 1
 403 684 l 1
 459 669 l 1
 397 437 l 1
 443 427 490 422 538 422 c 2
 570 422 l 1
 570 358 l 1
 538 358 l 2
 481 358 424 351 370 336 c 1
 316 135 l 1
 328 128 339 120 350 111 c 0
 376 91 406 73 439 73 c 0
 477 73 506 100 534 125 c 1
 570 86 l 1
 532 50 492 9 439 9 c 0
EndSplineSet
EndChar

StartChar: uni2AB70338
Encoding: 198 -1 198
Width: 660
Flags: HW
HStem: -81 64<375.181 497.661> 9 64<162.572 221.844> 99 64<373.234 497.661> 189 64<162.339 266.592> 448 64<90 284.21>
LayerCount: 2
Fore
SplineSet
347 476 m 1
 350 485 l 1
 345 483 339 482 334 480 c 1
 338 479 343 478 347 476 c 1
295 56 m 1
 352 30 382 -17 439 -17 c 0
 477 -17 506 10 534 35 c 1
 570 -4 l 1
 532 -40 492 -81 439 -81 c 0
 392 -81 348 -58 310 -29 c 0
 300 -21 289 -13 278 -7 c 1
 245 -129 l 1
 189 -114 l 1
 222 9 l 1
 221 9 l 0
 183 9 154 -17 126 -43 c 1
 90 -4 l 1
 128 32 168 73 221 73 c 0
 227 73 233 73 239 72 c 1
 267 178 l 1
 252 185 237 189 221 189 c 0
 183 189 154 163 126 137 c 1
 90 176 l 1
 128 212 168 253 221 253 c 0
 243 253 264 248 284 240 c 1
 330 413 l 1
 264 436 193 448 122 448 c 2
 90 448 l 1
 90 512 l 1
 122 512 l 2
 208 512 293 529 370 563 c 1
 415 729 l 1
 471 714 l 1
 441 601 l 1
 471 621 498 644 523 671 c 1
 570 627 l 1
 526 579 474 542 417 514 c 1
 401 454 l 1
 464 425 522 385 570 333 c 1
 523 289 l 1
 483 332 436 366 384 391 c 1
 336 211 l 1
 341 208 345 205 350 201 c 0
 376 181 406 163 439 163 c 0
 477 163 506 190 534 215 c 1
 570 176 l 1
 532 140 492 99 439 99 c 0
 395 99 354 119 318 145 c 1
 295 56 l 1
EndSplineSet
EndChar

StartChar: uni2AB80338
Encoding: 199 -1 199
Width: 660
Flags: HW
HStem: -81 64<375.181 497.661> 9 64<162.572 221.844> 99 64<373.234 497.661> 189 64<162.339 266.592> 448 64<422.073 570>
LayerCount: 2
Fore
SplineSet
295 56 m 1
 352 30 382 -17 439 -17 c 0
 477 -17 506 10 534 35 c 1
 570 -4 l 1
 532 -40 492 -81 439 -81 c 0
 392 -81 348 -58 310 -29 c 0
 300 -21 289 -13 278 -7 c 1
 245 -129 l 1
 189 -114 l 1
 222 9 l 1
 221 9 l 0
 183 9 154 -17 126 -43 c 1
 90 -4 l 1
 128 32 168 73 221 73 c 0
 227 73 233 73 239 72 c 1
 267 178 l 1
 252 185 237 189 221 189 c 0
 183 189 154 163 126 137 c 1
 90 176 l 1
 128 212 168 253 221 253 c 0
 243 253 264 248 284 240 c 1
 330 414 l 1
 257 388 191 347 137 289 c 1
 90 333 l 1
 155 403 237 451 326 480 c 1
 237 509 155 557 90 627 c 1
 137 671 l 1
 199 605 277 561 363 536 c 1
 415 729 l 1
 471 714 l 1
 420 523 l 1
 459 516 498 512 538 512 c 2
 570 512 l 1
 570 448 l 1
 538 448 l 2
 490 448 442 442 396 432 c 1
 336 211 l 1
 341 208 345 205 350 201 c 0
 376 181 406 163 439 163 c 0
 477 163 506 190 534 215 c 1
 570 176 l 1
 532 140 492 99 439 99 c 0
 395 99 354 119 318 145 c 1
 295 56 l 1
EndSplineSet
EndChar

StartChar: uni22D60338
Encoding: 200 -1 200
Width: 660
Flags: HW
HStem: 244 112<479.625 548> 526 20G<501.299 551.175>
VStem: 458 112<266.744 333.256>
LayerCount: 2
Fore
SplineSet
287 253 m 1
 317 362 l 1
 193 300 l 1
 287 253 l 1
514 356 m 0
 530 356 570 317 570 300 c 0
 570 283 530 244 514 244 c 0
 497 244 458 283 458 300 c 0
 458 317 497 356 514 356 c 0
394 650 m 1
 450 635 l 1
 408 479 l 1
 541 546 l 1
 570 489 l 1
 386 397 l 1
 340 226 l 1
 570 111 l 1
 541 54 l 1
 323 163 l 1
 266 -50 l 1
 210 -35 l 1
 270 190 l 1
 90 280 l 1
 90 320 l 1
 339 445 l 1
 394 650 l 1
EndSplineSet
EndChar

StartChar: uni22D70338
Encoding: 201 -1 201
Width: 660
Flags: HW
HStem: 244 112<112.375 179.732> 526 20G<108.825 159>
VStem: 90 113<267.131 332.869>
LayerCount: 2
Fore
SplineSet
373 347 m 1
 343 238 l 1
 467 300 l 1
 373 347 l 1
146 356 m 0
 163 356 203 316 203 300 c 0
 203 284 163 244 146 244 c 0
 131 244 90 283 90 300 c 0
 90 317 131 356 146 356 c 0
394 650 m 1
 450 635 l 1
 390 410 l 1
 570 320 l 1
 570 280 l 1
 321 155 l 1
 266 -50 l 1
 210 -35 l 1
 252 121 l 1
 119 54 l 1
 90 111 l 1
 274 203 l 1
 320 374 l 1
 90 489 l 1
 119 546 l 1
 337 437 l 1
 394 650 l 1
EndSplineSet
EndChar

StartChar: sym025_uni0338
Encoding: 202 -1 202
Width: 660
Flags: HW
HStem: 39 64<90 230 307 570> 304 112<479.625 548> 534 20G<494.2 554.797>
VStem: 458 112<326.744 393.256>
LayerCount: 2
Fore
SplineSet
307 325 m 1
 328 403 l 1
 213 360 l 1
 307 325 l 1
514 416 m 0
 530 416 570 377 570 360 c 0
 570 343 530 304 514 304 c 0
 497 304 458 343 458 360 c 0
 458 377 497 416 514 416 c 0
403 684 m 1
 459 669 l 1
 415 504 l 1
 547 554 l 1
 570 495 l 1
 395 429 l 1
 361 304 l 1
 570 225 l 1
 547 166 l 1
 345 242 l 1
 307 103 l 1
 570 103 l 1
 570 39 l 1
 290 39 l 1
 257 -84 l 1
 201 -69 l 1
 230 39 l 1
 90 39 l 1
 90 103 l 1
 247 103 l 1
 290 263 l 1
 90 338 l 1
 90 382 l 1
 348 479 l 1
 403 684 l 1
EndSplineSet
EndChar

StartChar: sym026_uni0338
Encoding: 203 -1 203
Width: 660
Flags: HW
HStem: 39 64<90 230 307 570> 304 112<112.375 179.732> 534 20G<105.203 166.333>
VStem: 90 113<327.131 392.869>
LayerCount: 2
Fore
SplineSet
383 384 m 1
 368 330 l 1
 447 360 l 1
 383 384 l 1
146 416 m 0
 163 416 203 376 203 360 c 0
 203 344 163 304 146 304 c 0
 131 304 90 343 90 360 c 0
 90 377 131 416 146 416 c 0
403 684 m 1
 459 669 l 1
 399 446 l 1
 570 382 l 1
 570 338 l 1
 348 254 l 1
 307 103 l 1
 570 103 l 1
 570 39 l 1
 290 39 l 1
 257 -84 l 1
 201 -69 l 1
 230 39 l 1
 90 39 l 1
 90 103 l 1
 247 103 l 1
 281 229 l 1
 113 166 l 1
 90 225 l 1
 301 305 l 1
 328 405 l 1
 90 495 l 1
 113 554 l 1
 345 467 l 1
 403 684 l 1
EndSplineSet
EndChar

StartChar: uni2A7F0338
Encoding: 204 -1 204
Width: 660
Flags: HW
HStem: 334 112<479.625 548>
VStem: 458 112<356.744 423.256>
LayerCount: 2
Fore
SplineSet
314 352 m 1
 337 437 l 1
 213 390 l 1
 314 352 l 1
514 446 m 0
 530 446 570 407 570 390 c 0
 570 373 530 334 514 334 c 0
 497 334 458 373 458 390 c 0
 458 407 497 446 514 446 c 0
403 684 m 1
 459 669 l 1
 424 538 l 1
 547 584 l 1
 570 525 l 1
 403 462 l 1
 368 331 l 1
 570 255 l 1
 547 196 l 1
 352 269 l 1
 325 168 l 1
 570 75 l 1
 547 16 l 1
 308 106 l 1
 257 -84 l 1
 201 -69 l 1
 253 126 l 1
 90 188 l 1
 113 248 l 1
 270 189 l 1
 297 290 l 1
 90 368 l 1
 90 412 l 1
 357 512 l 1
 403 684 l 1
EndSplineSet
EndChar

StartChar: uni2A800338
Encoding: 205 -1 205
Width: 660
Flags: HW
HStem: 334 112<112.375 179.732>
VStem: 90 113<357.131 422.869>
LayerCount: 2
Fore
SplineSet
390 412 m 1
 377 364 l 1
 447 390 l 1
 390 412 l 1
146 446 m 0
 163 446 203 406 203 390 c 0
 203 374 163 334 146 334 c 0
 131 334 90 373 90 390 c 0
 90 407 131 446 146 446 c 0
403 684 m 1
 459 669 l 1
 407 474 l 1
 570 412 l 1
 570 368 l 1
 357 288 l 1
 323 163 l 1
 547 248 l 1
 570 188 l 1
 303 88 l 1
 257 -84 l 1
 201 -69 l 1
 236 62 l 1
 113 16 l 1
 90 75 l 1
 257 138 l 1
 290 263 l 1
 113 196 l 1
 90 255 l 1
 310 338 l 1
 335 432 l 1
 90 525 l 1
 113 584 l 1
 352 494 l 1
 403 684 l 1
EndSplineSet
EndChar

StartChar: uni2A950338
Encoding: 206 60772 206
Width: 660
Flags: HW
LayerCount: 2
Fore
SplineSet
270 188 m 1
 283 236 l 1
 213 210 l 1
 270 188 l 1
403 684 m 1
 459 669 l 1
 424 538 l 1
 547 584 l 1
 570 525 l 1
 403 462 l 1
 370 337 l 1
 547 404 l 1
 570 345 l 1
 350 262 l 1
 325 168 l 1
 570 75 l 1
 547 16 l 1
 308 106 l 1
 257 -84 l 1
 201 -69 l 1
 253 126 l 1
 90 188 l 1
 90 232 l 1
 303 312 l 1
 337 437 l 1
 113 352 l 1
 90 412 l 1
 357 512 l 1
 403 684 l 1
EndSplineSet
EndChar

StartChar: uni2A960338
Encoding: 207 60773 207
Width: 660
Flags: HW
LayerCount: 2
Fore
SplineSet
346 248 m 1
 323 163 l 1
 447 210 l 1
 346 248 l 1
403 684 m 1
 459 669 l 1
 407 474 l 1
 570 412 l 1
 547 352 l 1
 390 411 l 1
 363 310 l 1
 570 232 l 1
 570 188 l 1
 303 88 l 1
 257 -84 l 1
 201 -69 l 1
 236 62 l 1
 113 16 l 1
 90 75 l 1
 257 138 l 1
 292 269 l 1
 90 345 l 1
 113 404 l 1
 308 331 l 1
 335 432 l 1
 90 525 l 1
 113 584 l 1
 352 494 l 1
 403 684 l 1
EndSplineSet
EndChar

StartChar: uni22DE0338
Encoding: 208 60796 208
Width: 660
Flags: HW
HStem: 178 64<90 260.843> 358 64<90 270.508>
LayerCount: 2
Fore
SplineSet
403 684 m 1
 459 669 l 1
 423 533 l 1
 440 547 456 562 472 577 c 1
 518 533 l 1
 480 497 440 464 397 436 c 1
 356 287 l 1
 419 313 476 350 523 401 c 1
 570 357 l 1
 506 288 425 240 336 211 c 1
 336 209 l 1
 425 180 506 133 570 63 c 1
 523 19 l 1
 467 80 396 121 319 147 c 1
 257 -84 l 1
 201 -69 l 1
 263 163 l 1
 217 173 170 178 122 178 c 2
 90 178 l 1
 90 242 l 1
 122 242 l 2
 179 242 236 249 290 264 c 1
 326 397 l 1
 272 372 215 358 154 358 c 2
 90 358 l 1
 90 422 l 1
 154 422 l 2
 225 422 289 445 348 481 c 1
 403 684 l 1
EndSplineSet
EndChar

StartChar: uni22DF0338
Encoding: 209 60797 209
Width: 660
Flags: HW
HStem: 178 64<371.791 570> 358 64<399.831 570> 379 61<398 569>
LayerCount: 2
Fore
SplineSet
403 684 m 1xa0
 459 669 l 1
 398 440 l 1xa0
 432 428 468 422 506 422 c 2
 570 422 l 1
 570 358 l 1
 506 358 l 2xc0
 462 358 421 366 381 379 c 1
 352 269 l 1
 412 251 475 242 538 242 c 2
 570 242 l 1
 570 178 l 1
 538 178 l 2
 462 178 387 166 317 139 c 1
 257 -84 l 1
 201 -69 l 1
 248 106 l 1
 207 83 170 54 137 19 c 1
 90 63 l 1
 141 118 202 160 270 189 c 1
 280 227 l 1
 209 256 144 299 90 357 c 1
 137 401 l 1
 182 352 237 315 297 289 c 1
 327 401 l 1
 260 433 199 480 142 533 c 1
 188 577 l 1
 236 532 288 491 344 463 c 1
 403 684 l 1xa0
EndSplineSet
EndChar

StartChar: uni2246
Encoding: 210 8774 210
Width: 660
Flags: HW
HStem: -5 21G<253 313.376> 88 64<90 274 350 570> 268 64<90 322 398 570> 403 64<375.771 497.661> 493 64<162.339 284.229>
LayerCount: 2
Fore
SplineSet
439 403 m 0
 337 403 297 493 221 493 c 0
 183 493 154 467 126 441 c 1
 90 480 l 1
 128 516 168 557 221 557 c 0
 323 557 363 467 439 467 c 0
 477 467 506 493 534 519 c 1
 570 480 l 1
 532 444 492 403 439 403 c 0
352 380 m 1
 407 365 l 1
 398 332 l 1
 570 332 l 1
 570 268 l 1
 381 268 l 1
 350 152 l 1
 570 152 l 1
 570 88 l 1
 333 88 l 1
 308 -5 l 1
 253 10 l 1
 274 88 l 1
 90 88 l 1
 90 152 l 1
 291 152 l 1
 322 268 l 1
 90 268 l 1
 90 332 l 1
 339 332 l 1
 352 380 l 1
EndSplineSet
EndChar

StartChar: sym027
Encoding: 211 -1 211
Width: 660
Flags: HW
HStem: -5 21G<246 307.376> 88 64<90 267 344 570> 268 64<90 316 393 570> 403 64<162.339 284.229> 493 64<375.771 497.661>
LayerCount: 2
Fore
SplineSet
221 467 m 0
 297 467 337 557 439 557 c 0
 492 557 532 516 570 480 c 1
 534 441 l 1
 506 467 477 493 439 493 c 0
 363 493 323 403 221 403 c 0
 168 403 128 444 90 480 c 1
 126 519 l 1
 154 493 183 467 221 467 c 0
358 425 m 1
 414 410 l 1
 393 332 l 1
 570 332 l 1
 570 268 l 1
 376 268 l 1
 344 152 l 1
 570 152 l 1
 570 88 l 1
 327 88 l 1
 302 -5 l 1
 246 10 l 1
 267 88 l 1
 90 88 l 1
 90 152 l 1
 284 152 l 1
 316 268 l 1
 90 268 l 1
 90 332 l 1
 333 332 l 1
 358 425 l 1
EndSplineSet
EndChar

StartChar: uni2A87
Encoding: 212 10887 212
Width: 660
Flags: HW
HStem: 39 64<90 292 368 570> 534 20G<493.86 554.797>
LayerCount: 2
Fore
SplineSet
547 554 m 1
 570 495 l 1
 213 360 l 1
 570 225 l 1
 547 166 l 1
 90 338 l 1
 90 382 l 1
 547 554 l 1
334 197 m 1
 389 182 l 1
 368 103 l 1
 570 103 l 1
 570 39 l 1
 351 39 l 1
 326 -54 l 1
 271 -39 l 1
 292 39 l 1
 90 39 l 1
 90 103 l 1
 309 103 l 1
 334 197 l 1
EndSplineSet
EndChar

StartChar: uni2A88
Encoding: 213 10888 213
Width: 660
Flags: HW
HStem: 39 64<90 292 368 570> 534 20G<105.203 166.14>
LayerCount: 2
Fore
SplineSet
113 166 m 1
 90 225 l 1
 447 360 l 1
 90 495 l 1
 113 554 l 1
 570 382 l 1
 570 338 l 1
 113 166 l 1
334 197 m 1
 389 182 l 1
 368 103 l 1
 570 103 l 1
 570 39 l 1
 351 39 l 1
 326 -54 l 1
 271 -39 l 1
 292 39 l 1
 90 39 l 1
 90 103 l 1
 309 103 l 1
 334 197 l 1
EndSplineSet
EndChar

StartChar: uni2268
Encoding: 214 8808 214
Width: 660
Flags: HW
HStem: -51 64<90 267 344 570> 129 64<90 315 393 570>
LayerCount: 2
Fore
SplineSet
547 644 m 1
 570 585 l 1
 213 450 l 1
 570 315 l 1
 547 256 l 1
 90 428 l 1
 90 472 l 1
 547 644 l 1
358 287 m 1
 414 272 l 1
 393 193 l 1
 570 193 l 1
 570 129 l 1
 376 129 l 1
 344 13 l 1
 570 13 l 1
 570 -51 l 1
 327 -51 l 1
 302 -144 l 1
 246 -129 l 1
 267 -51 l 1
 90 -51 l 1
 90 13 l 1
 284 13 l 1
 315 129 l 1
 90 129 l 1
 90 193 l 1
 333 193 l 1
 358 287 l 1
EndSplineSet
EndChar

StartChar: uni2269
Encoding: 215 8809 215
Width: 660
Flags: HW
HStem: -51 64<90 267 344 570> 129 64<90 315 393 570>
LayerCount: 2
Fore
SplineSet
113 256 m 1
 90 315 l 1
 447 450 l 1
 90 585 l 1
 113 644 l 1
 570 472 l 1
 570 428 l 1
 113 256 l 1
358 287 m 1
 414 272 l 1
 393 193 l 1
 570 193 l 1
 570 129 l 1
 376 129 l 1
 344 13 l 1
 570 13 l 1
 570 -51 l 1
 327 -51 l 1
 302 -144 l 1
 246 -129 l 1
 267 -51 l 1
 90 -51 l 1
 90 13 l 1
 284 13 l 1
 315 129 l 1
 90 129 l 1
 90 193 l 1
 333 193 l 1
 358 287 l 1
EndSplineSet
EndChar

StartChar: uni22E6
Encoding: 216 8934 216
Width: 660
Flags: HW
HStem: 9 64<372.616 497.661> 99 64<162.339 286.202>
LayerCount: 2
Fore
SplineSet
547 584 m 1
 570 525 l 1
 213 390 l 1
 570 255 l 1
 547 196 l 1
 90 368 l 1
 90 412 l 1
 547 584 l 1
334 212 m 1
 389 197 l 1
 363 101 l 1
 386 85 412 73 439 73 c 0
 477 73 506 100 534 125 c 1
 570 86 l 1
 532 50 492 9 439 9 c 0
 406 9 375 20 346 37 c 1
 326 -39 l 1
 271 -24 l 1
 296 71 l 1
 273 87 248 99 221 99 c 0
 183 99 154 73 126 47 c 1
 90 86 l 1
 128 122 168 163 221 163 c 0
 254 163 285 153 314 136 c 1
 334 212 l 1
EndSplineSet
EndChar

StartChar: uni22E7
Encoding: 217 8935 217
Width: 660
Flags: HW
HStem: 9 64<372.616 497.661> 99 64<162.339 286.202>
LayerCount: 2
Fore
SplineSet
113 196 m 1
 90 255 l 1
 447 390 l 1
 90 525 l 1
 113 584 l 1
 570 412 l 1
 570 368 l 1
 113 196 l 1
334 212 m 1
 389 197 l 1
 363 101 l 1
 386 85 412 73 439 73 c 0
 477 73 506 100 534 125 c 1
 570 86 l 1
 532 50 492 9 439 9 c 0
 406 9 375 20 346 37 c 1
 326 -39 l 1
 271 -24 l 1
 296 71 l 1
 273 87 248 99 221 99 c 0
 183 99 154 73 126 47 c 1
 90 86 l 1
 128 122 168 163 221 163 c 0
 254 163 285 153 314 136 c 1
 334 212 l 1
EndSplineSet
EndChar

StartChar: uni2A89
Encoding: 218 10889 218
Width: 660
Flags: HW
HStem: -81 64<373.85 497.661> 9 64<162.339 274.461> 99 64<385.539 497.661> 189 64<162.339 285.925>
LayerCount: 2
Fore
SplineSet
547 674 m 1
 570 615 l 1
 213 480 l 1
 570 345 l 1
 547 286 l 1
 90 458 l 1
 90 502 l 1
 547 674 l 1
316 146 m 1
 279 173 258 189 221 189 c 0
 183 189 154 163 126 137 c 1
 90 176 l 1
 128 212 168 253 221 253 c 0
 262 253 300 237 334 213 c 1
 358 302 l 1
 414 287 l 1
 385 178 l 1
 402 169 420 163 439 163 c 0
 477 163 506 190 534 215 c 1
 570 176 l 1
 532 140 492 99 439 99 c 0
 414 99 391 106 368 116 c 1
 344 26 l 1
 371 5 401 -17 439 -17 c 0
 477 -17 506 10 534 35 c 1
 570 -4 l 1
 532 -40 492 -81 439 -81 c 0
 398 -81 360 -63 326 -40 c 1
 302 -129 l 1
 246 -114 l 1
 275 -6 l 1
 258 3 240 9 221 9 c 0
 183 9 154 -17 126 -43 c 1
 90 -4 l 1
 128 32 168 73 221 73 c 0
 246 73 269 67 292 57 c 1
 316 146 l 1
EndSplineSet
EndChar

StartChar: uni2A8A
Encoding: 219 10890 219
Width: 660
Flags: HW
HStem: -81 64<373.85 497.661> 9 64<162.339 274.461> 99 64<385.539 497.661> 189 64<162.339 285.925>
LayerCount: 2
Fore
SplineSet
113 286 m 1
 90 345 l 1
 447 480 l 1
 90 615 l 1
 113 674 l 1
 570 502 l 1
 570 458 l 1
 113 286 l 1
316 146 m 1
 279 173 258 189 221 189 c 0
 183 189 154 163 126 137 c 1
 90 176 l 1
 128 212 168 253 221 253 c 0
 262 253 300 237 334 213 c 1
 358 302 l 1
 414 287 l 1
 385 178 l 1
 402 169 420 163 439 163 c 0
 477 163 506 190 534 215 c 1
 570 176 l 1
 532 140 492 99 439 99 c 0
 414 99 391 106 368 116 c 1
 344 26 l 1
 371 5 401 -17 439 -17 c 0
 477 -17 506 10 534 35 c 1
 570 -4 l 1
 532 -40 492 -81 439 -81 c 0
 398 -81 360 -63 326 -40 c 1
 302 -129 l 1
 246 -114 l 1
 275 -6 l 1
 258 3 240 9 221 9 c 0
 183 9 154 -17 126 -43 c 1
 90 -4 l 1
 128 32 168 73 221 73 c 0
 246 73 269 67 292 57 c 1
 316 146 l 1
EndSplineSet
EndChar

StartChar: uni22E4
Encoding: 220 8932 220
Width: 660
Flags: HW
HStem: 9 64<90 267 344 570> 189 64<154 315 393 570> 527 64<154 570>
VStem: 90 64<253 527>
LayerCount: 2
Fore
SplineSet
358 347 m 1
 414 332 l 1
 393 253 l 1
 570 253 l 1
 570 189 l 1
 376 189 l 1
 344 73 l 1
 570 73 l 1
 570 9 l 1
 327 9 l 1
 302 -84 l 1
 246 -69 l 1
 267 9 l 1
 90 9 l 1
 90 73 l 1
 284 73 l 1
 315 189 l 1
 90 189 l 1
 90 591 l 1
 570 591 l 1
 570 527 l 1
 154 527 l 1
 154 253 l 1
 333 253 l 1
 358 347 l 1
EndSplineSet
EndChar

StartChar: uni22E5
Encoding: 221 8933 221
Width: 660
Flags: HW
HStem: 9 64<90 267 344 570> 189 64<90 315 393 506> 527 64<90 506>
VStem: 506 64<253 527>
LayerCount: 2
Fore
SplineSet
358 347 m 1
 414 332 l 1
 393 253 l 1
 506 253 l 1
 506 527 l 1
 90 527 l 1
 90 591 l 1
 570 591 l 1
 570 189 l 1
 376 189 l 1
 344 73 l 1
 570 73 l 1
 570 9 l 1
 327 9 l 1
 302 -84 l 1
 246 -69 l 1
 267 9 l 1
 90 9 l 1
 90 73 l 1
 284 73 l 1
 315 189 l 1
 90 189 l 1
 90 253 l 1
 333 253 l 1
 358 347 l 1
EndSplineSet
EndChar

StartChar: sym028
Encoding: 222 -1 222
Width: 660
Flags: HW
HStem: -81 64<90 267 344 570> 99 64<90 315 393 570> 279 64<154 570> 617 64<154 570>
VStem: 90 64<343 617>
LayerCount: 2
Fore
SplineSet
154 343 m 1
 570 343 l 1
 570 279 l 1
 90 279 l 1
 90 681 l 1
 570 681 l 1
 570 617 l 1
 154 617 l 1
 154 343 l 1
358 257 m 1
 414 242 l 1
 393 163 l 1
 570 163 l 1
 570 99 l 1
 376 99 l 1
 344 -17 l 1
 570 -17 l 1
 570 -81 l 1
 327 -81 l 1
 302 -174 l 1
 246 -159 l 1
 267 -81 l 1
 90 -81 l 1
 90 -17 l 1
 284 -17 l 1
 315 99 l 1
 90 99 l 1
 90 163 l 1
 333 163 l 1
 358 257 l 1
EndSplineSet
EndChar

StartChar: sym029
Encoding: 223 -1 223
Width: 660
Flags: HW
HStem: -81 64<90 267 344 570> 99 64<90 315 393 570> 279 64<90 506> 617 64<90 506>
VStem: 506 64<343 617>
LayerCount: 2
Fore
SplineSet
506 343 m 1
 506 617 l 1
 90 617 l 1
 90 681 l 1
 570 681 l 1
 570 279 l 1
 90 279 l 1
 90 343 l 1
 506 343 l 1
358 257 m 1
 414 242 l 1
 393 163 l 1
 570 163 l 1
 570 99 l 1
 376 99 l 1
 344 -17 l 1
 570 -17 l 1
 570 -81 l 1
 327 -81 l 1
 302 -174 l 1
 246 -159 l 1
 267 -81 l 1
 90 -81 l 1
 90 -17 l 1
 284 -17 l 1
 315 99 l 1
 90 99 l 1
 90 163 l 1
 333 163 l 1
 358 257 l 1
EndSplineSet
EndChar

StartChar: uni228A
Encoding: 224 8842 224
Width: 660
Flags: HW
HStem: 9 64<90 267 344 570> 189 64<204.51 315 393 570> 527 64<204.51 570>
VStem: 90 64<308.412 471.588>
LayerCount: 2
Fore
SplineSet
358 347 m 1
 414 332 l 1
 393 253 l 1
 570 253 l 1
 570 189 l 1
 376 189 l 1
 344 73 l 1
 570 73 l 1
 570 9 l 1
 327 9 l 1
 302 -84 l 1
 246 -69 l 1
 267 9 l 1
 90 9 l 1
 90 73 l 1
 284 73 l 1
 315 189 l 1
 262 189 l 2
 161 189 90 284 90 390 c 0
 90 496 161 591 262 591 c 2
 570 591 l 1
 570 527 l 1
 262 527 l 2
 196 527 154 461 154 390 c 0
 154 319 196 253 262 253 c 2
 333 253 l 1
 358 347 l 1
EndSplineSet
EndChar

StartChar: uni228B
Encoding: 225 8843 225
Width: 660
Flags: HW
HStem: 9 64<90 267 344 570> 189 64<90 315 393 455.49> 527 64<90 455.49>
VStem: 506 64<308.412 471.588>
LayerCount: 2
Fore
SplineSet
358 347 m 1
 414 332 l 1
 393 253 l 1
 398 253 l 2
 464 253 506 319 506 390 c 0
 506 461 464 527 398 527 c 2
 90 527 l 1
 90 591 l 1
 398 591 l 2
 499 591 570 496 570 390 c 0
 570 284 499 189 398 189 c 2
 376 189 l 1
 344 73 l 1
 570 73 l 1
 570 9 l 1
 327 9 l 1
 302 -84 l 1
 246 -69 l 1
 267 9 l 1
 90 9 l 1
 90 73 l 1
 284 73 l 1
 315 189 l 1
 90 189 l 1
 90 253 l 1
 333 253 l 1
 358 347 l 1
EndSplineSet
EndChar

StartChar: uni2ACB
Encoding: 226 10955 226
Width: 660
Flags: HW
HStem: -81 64<90 267 344 570> 99 64<90 315 393 570> 279 64<204.51 570> 617 64<204.51 570>
VStem: 90 64<398.412 561.588>
LayerCount: 2
Fore
SplineSet
570 617 m 1
 262 617 l 2
 196 617 154 551 154 480 c 0
 154 409 196 343 262 343 c 2
 570 343 l 1
 570 279 l 1
 262 279 l 2
 161 279 90 374 90 480 c 0
 90 586 161 681 262 681 c 2
 570 681 l 1
 570 617 l 1
358 257 m 1
 414 242 l 1
 393 163 l 1
 570 163 l 1
 570 99 l 1
 376 99 l 1
 344 -17 l 1
 570 -17 l 1
 570 -81 l 1
 327 -81 l 1
 302 -174 l 1
 246 -159 l 1
 267 -81 l 1
 90 -81 l 1
 90 -17 l 1
 284 -17 l 1
 315 99 l 1
 90 99 l 1
 90 163 l 1
 333 163 l 1
 358 257 l 1
EndSplineSet
EndChar

StartChar: uni2ACC
Encoding: 227 10956 227
Width: 660
Flags: HW
HStem: -81 64<90 267 344 570> 99 64<90 315 393 570> 279 64<90 455.49> 617 64<90 455.49>
VStem: 506 64<398.412 561.588>
LayerCount: 2
Fore
SplineSet
90 343 m 1
 398 343 l 2
 464 343 506 409 506 480 c 0
 506 551 464 617 398 617 c 2
 90 617 l 1
 90 681 l 1
 398 681 l 2
 499 681 570 586 570 480 c 0
 570 374 499 279 398 279 c 2
 90 279 l 1
 90 343 l 1
358 257 m 1
 414 242 l 1
 393 163 l 1
 570 163 l 1
 570 99 l 1
 376 99 l 1
 344 -17 l 1
 570 -17 l 1
 570 -81 l 1
 327 -81 l 1
 302 -174 l 1
 246 -159 l 1
 267 -81 l 1
 90 -81 l 1
 90 -17 l 1
 284 -17 l 1
 315 99 l 1
 90 99 l 1
 90 163 l 1
 333 163 l 1
 358 257 l 1
EndSplineSet
EndChar

StartChar: uni2AB1
Encoding: 228 10929 228
Width: 660
Flags: HW
HStem: 39 64<90 292 368 570> 328 64<90 287.902> 531 20G<472 544.364>
LayerCount: 2
Fore
SplineSet
334 360 m 1
 423 331 505 283 570 213 c 1
 523 169 l 1
 421 279 272 328 122 328 c 2
 90 328 l 1
 90 392 l 1
 122 392 l 2
 272 392 421 441 523 551 c 1
 570 507 l 1
 505 437 423 389 334 360 c 1
334 197 m 1
 389 182 l 1
 368 103 l 1
 570 103 l 1
 570 39 l 1
 351 39 l 1
 326 -54 l 1
 271 -39 l 1
 292 39 l 1
 90 39 l 1
 90 103 l 1
 309 103 l 1
 334 197 l 1
EndSplineSet
EndChar

StartChar: uni2AB2
Encoding: 229 10930 229
Width: 660
Flags: HW
HStem: 39 64<90 292 368 570> 328 64<372.098 570> 531 20G<115.636 188>
LayerCount: 2
Fore
SplineSet
326 360 m 1
 237 389 155 437 90 507 c 1
 137 551 l 1
 239 441 388 392 538 392 c 2
 570 392 l 1
 570 328 l 1
 538 328 l 2
 388 328 239 279 137 169 c 1
 90 213 l 1
 155 283 237 331 326 360 c 1
334 197 m 1
 389 182 l 1
 368 103 l 1
 570 103 l 1
 570 39 l 1
 351 39 l 1
 326 -54 l 1
 271 -39 l 1
 292 39 l 1
 90 39 l 1
 90 103 l 1
 309 103 l 1
 334 197 l 1
EndSplineSet
EndChar

StartChar: uni2AB5
Encoding: 230 10933 230
Width: 660
Flags: HW
HStem: -51 64<90 267 344 570> 129 64<90 315 393 570> 418 64<90 287.902>
LayerCount: 2
Fore
SplineSet
334 450 m 1
 423 421 505 373 570 303 c 1
 523 259 l 1
 421 369 272 418 122 418 c 2
 90 418 l 1
 90 482 l 1
 122 482 l 2
 272 482 421 531 523 641 c 1
 570 597 l 1
 505 527 423 479 334 450 c 1
358 287 m 1
 414 272 l 1
 393 193 l 1
 570 193 l 1
 570 129 l 1
 376 129 l 1
 344 13 l 1
 570 13 l 1
 570 -51 l 1
 327 -51 l 1
 302 -144 l 1
 246 -129 l 1
 267 -51 l 1
 90 -51 l 1
 90 13 l 1
 284 13 l 1
 315 129 l 1
 90 129 l 1
 90 193 l 1
 333 193 l 1
 358 287 l 1
EndSplineSet
EndChar

StartChar: uni2AB6
Encoding: 231 10934 231
Width: 660
Flags: HW
HStem: -51 64<90 267 344 570> 129 64<90 315 393 570> 418 64<372.098 570>
LayerCount: 2
Fore
SplineSet
326 450 m 1
 237 479 155 527 90 597 c 1
 137 641 l 1
 239 531 388 482 538 482 c 2
 570 482 l 1
 570 418 l 1
 538 418 l 2
 388 418 239 369 137 259 c 1
 90 303 l 1
 155 373 237 421 326 450 c 1
358 287 m 1
 414 272 l 1
 393 193 l 1
 570 193 l 1
 570 129 l 1
 376 129 l 1
 344 13 l 1
 570 13 l 1
 570 -51 l 1
 327 -51 l 1
 302 -144 l 1
 246 -129 l 1
 267 -51 l 1
 90 -51 l 1
 90 13 l 1
 284 13 l 1
 315 129 l 1
 90 129 l 1
 90 193 l 1
 333 193 l 1
 358 287 l 1
EndSplineSet
EndChar

StartChar: uni22E8
Encoding: 232 8936 232
Width: 660
Flags: HW
HStem: 9 64<372.616 497.661> 99 64<162.339 286.202> 358 64<90 287.902>
LayerCount: 2
Fore
SplineSet
334 390 m 1
 423 361 505 313 570 243 c 1
 523 199 l 1
 421 309 272 358 122 358 c 2
 90 358 l 1
 90 422 l 1
 122 422 l 2
 272 422 421 471 523 581 c 1
 570 537 l 1
 505 467 423 419 334 390 c 1
334 212 m 1
 389 197 l 1
 363 101 l 1
 386 85 412 73 439 73 c 0
 477 73 506 100 534 125 c 1
 570 86 l 1
 532 50 492 9 439 9 c 0
 406 9 375 20 346 37 c 1
 326 -39 l 1
 271 -24 l 1
 296 71 l 1
 273 87 248 99 221 99 c 0
 183 99 154 73 126 47 c 1
 90 86 l 1
 128 122 168 163 221 163 c 0
 254 163 285 153 314 136 c 1
 334 212 l 1
EndSplineSet
EndChar

StartChar: uni22E9
Encoding: 233 8937 233
Width: 660
Flags: HW
HStem: 9 64<372.616 497.661> 99 64<162.339 286.202> 358 64<372.098 570>
LayerCount: 2
Fore
SplineSet
326 390 m 1
 237 419 155 467 90 537 c 1
 137 581 l 1
 239 471 388 422 538 422 c 2
 570 422 l 1
 570 358 l 1
 538 358 l 2
 388 358 239 309 137 199 c 1
 90 243 l 1
 155 313 237 361 326 390 c 1
334 212 m 1
 389 197 l 1
 363 101 l 1
 386 85 412 73 439 73 c 0
 477 73 506 100 534 125 c 1
 570 86 l 1
 532 50 492 9 439 9 c 0
 406 9 375 20 346 37 c 1
 326 -39 l 1
 271 -24 l 1
 296 71 l 1
 273 87 248 99 221 99 c 0
 183 99 154 73 126 47 c 1
 90 86 l 1
 128 122 168 163 221 163 c 0
 254 163 285 153 314 136 c 1
 334 212 l 1
EndSplineSet
EndChar

StartChar: uni2AB9
Encoding: 234 10937 234
Width: 660
Flags: HW
HStem: -81 64<373.85 497.661> 9 64<162.339 274.461> 99 64<385.539 497.661> 189 64<162.339 285.925> 448 64<90 287.902>
LayerCount: 2
Fore
SplineSet
334 480 m 1
 423 451 505 403 570 333 c 1
 523 289 l 1
 421 399 272 448 122 448 c 2
 90 448 l 1
 90 512 l 1
 122 512 l 2
 272 512 421 561 523 671 c 1
 570 627 l 1
 505 557 423 509 334 480 c 1
316 146 m 1
 279 173 258 189 221 189 c 0
 183 189 154 163 126 137 c 1
 90 176 l 1
 128 212 168 253 221 253 c 0
 262 253 300 237 334 213 c 1
 358 302 l 1
 414 287 l 1
 385 178 l 1
 402 169 420 163 439 163 c 0
 477 163 506 190 534 215 c 1
 570 176 l 1
 532 140 492 99 439 99 c 0
 414 99 391 106 368 116 c 1
 344 26 l 1
 371 5 401 -17 439 -17 c 0
 477 -17 506 10 534 35 c 1
 570 -4 l 1
 532 -40 492 -81 439 -81 c 0
 398 -81 360 -63 326 -40 c 1
 302 -129 l 1
 246 -114 l 1
 275 -6 l 1
 258 3 240 9 221 9 c 0
 183 9 154 -17 126 -43 c 1
 90 -4 l 1
 128 32 168 73 221 73 c 0
 246 73 269 67 292 57 c 1
 316 146 l 1
EndSplineSet
EndChar

StartChar: uni2ABA
Encoding: 235 10938 235
Width: 660
Flags: HW
HStem: -81 64<373.85 497.661> 9 64<162.339 274.461> 99 64<385.539 497.661> 189 64<162.339 285.925> 448 64<372.098 570>
LayerCount: 2
Fore
SplineSet
326 480 m 1
 237 509 155 557 90 627 c 1
 137 671 l 1
 239 561 388 512 538 512 c 2
 570 512 l 1
 570 448 l 1
 538 448 l 2
 388 448 239 399 137 289 c 1
 90 333 l 1
 155 403 237 451 326 480 c 1
316 146 m 1
 279 173 258 189 221 189 c 0
 183 189 154 163 126 137 c 1
 90 176 l 1
 128 212 168 253 221 253 c 0
 262 253 300 237 334 213 c 1
 358 302 l 1
 414 287 l 1
 385 178 l 1
 402 169 420 163 439 163 c 0
 477 163 506 190 534 215 c 1
 570 176 l 1
 532 140 492 99 439 99 c 0
 414 99 391 106 368 116 c 1
 344 26 l 1
 371 5 401 -17 439 -17 c 0
 477 -17 506 10 534 35 c 1
 570 -4 l 1
 532 -40 492 -81 439 -81 c 0
 398 -81 360 -63 326 -40 c 1
 302 -129 l 1
 246 -114 l 1
 275 -6 l 1
 258 3 240 9 221 9 c 0
 183 9 154 -17 126 -43 c 1
 90 -4 l 1
 128 32 168 73 221 73 c 0
 246 73 269 67 292 57 c 1
 316 146 l 1
EndSplineSet
EndChar
